<svg width="17" height="14" viewBox="0 0 17 14" fill="none" xmlns="http://www.w3.org/2000/svg">
<path d="M3.53095 0C2.56096 0 1.84317 0.877695 1.87531 1.82953C1.90619 2.74395 1.86608 3.92838 1.57768 4.89422C1.28841 5.86288 0.799133 6.47647 0 6.55528V7.44472C0.799133 7.52353 1.28841 8.13712 1.57768 9.10585C1.86608 10.0717 1.90619 11.256 1.87531 12.1705C1.84317 13.1222 2.56096 14 3.53109 14H13.4703C14.4404 14 15.158 13.1223 15.1258 12.1705C15.095 11.256 15.135 10.0717 15.4234 9.10585C15.7129 8.13719 16.2009 7.52346 17 7.44472V6.55528C16.2009 6.47647 15.7129 5.86288 15.4235 4.89422C15.135 3.92852 15.095 2.74402 15.1258 1.82953C15.158 0.877832 14.4404 0 13.4703 0H3.53082H3.53095ZM11.5255 8.61788C11.5255 9.92855 10.5798 10.7234 9.01053 10.7234H6.33901C6.26261 10.7234 6.18934 10.692 6.13533 10.6361C6.08131 10.5802 6.05096 10.5045 6.05094 10.4255V3.57449C6.05094 3.49548 6.08129 3.41971 6.13533 3.36383C6.18936 3.30796 6.26265 3.27656 6.33907 3.27654H8.99526C10.3038 3.27654 11.1626 4.00939 11.1626 5.13443C11.1626 5.92411 10.5848 6.63107 9.84884 6.75485V6.79611C10.8508 6.90973 11.5255 7.62705 11.5255 8.61788ZM8.71914 4.22083H7.19598V6.4451H8.47895C9.47066 6.4451 10.0176 6.03224 10.0176 5.29425C10.0176 4.60273 9.54723 4.22083 8.71914 4.22083ZM7.19605 7.32767V9.77883H8.77532C9.8078 9.77883 10.3549 9.35052 10.3549 8.54552C10.3549 7.74039 9.7926 7.32753 8.70891 7.32753H7.19605V7.32767Z" fill="#7E13F8"/>
</svg>
