<svg width="35" height="20" viewBox="0 0 35 20" fill="none" xmlns="http://www.w3.org/2000/svg">
<path d="M17.4582 3.61047V4.78407H12.133L12.125 4.77641L12.1174 4.78379H1.69422C1.68914 4.78379 1.68427 4.78581 1.68068 4.7894C1.67709 4.79299 1.67508 4.79786 1.67508 4.80293V9.98594H0V10.1H1.67535V15.2179C1.67542 15.2229 1.67747 15.2277 1.68105 15.2313C1.68464 15.2348 1.68946 15.2368 1.69449 15.2368H6.84496V17.5719H6.95898V15.2368H12.0682V15.2559H12.0982L12.1248 15.2824L12.1524 15.2559H12.1822V15.2368H17.4582V16.0697H17.5719V15.2368H22.8703V15.2559H22.9001L22.9275 15.2824L22.954 15.2559H22.9841V15.2368H28.0905V16.3729H28.2043V15.2368H33.3586C33.3636 15.2367 33.3684 15.2346 33.3719 15.2311C33.3754 15.2275 33.3774 15.2227 33.3774 15.2176V10.1002H34.7266V9.98622H33.3774V4.80293C33.3774 4.79786 33.3754 4.79299 33.3718 4.7894C33.3682 4.78581 33.3634 4.78379 33.3583 4.78379H28.2043V4.78024H28.0905V4.78407H22.9354L22.9277 4.77641L22.9198 4.78379H17.5722V3.61075L17.4582 3.61047ZM1.73988 4.8218H6.84496V9.93782L1.73988 4.8218ZM6.95898 4.8218H12.0682V4.83274L6.95898 9.93454V4.8218ZM12.1822 4.8218H17.4582V9.93672L12.1822 4.83165V4.8218ZM17.5722 4.8218H22.8706V4.83165L17.5722 9.9586V4.8218ZM22.9843 4.8218H28.0905V9.93098L22.9843 4.83301V4.8218ZM28.2043 4.8218H33.3126L28.2043 9.94082V4.8218ZM1.71309 4.84887L6.83922 9.98594H1.71309V4.84887ZM33.3389 4.84887V9.98594H28.2127L33.3389 4.84887ZM12.1816 4.88442L17.4535 9.98594H12.1816V4.88442ZM22.8698 4.88442V9.98594H17.5979L22.8698 4.88442ZM12.0676 4.88661V9.98567H6.96062L12.0676 4.88661ZM22.9838 4.88661L28.09 9.98485V9.98594H22.9838V4.88661ZM1.71281 10.0997H6.79273L1.71281 15.172V10.0997ZM7.00629 10.0997H12.0676V15.172L7.00629 10.0997ZM12.1816 10.0997H17.4256L12.1816 15.1744V10.0997ZM17.6261 10.0997H22.87V15.1744L17.6261 10.0997ZM22.9841 10.0997H28.0454L22.9841 15.172V10.0997ZM28.204 10.0997H28.2051L33.3118 15.199H28.2037L28.204 10.0997ZM28.2589 10.0997H33.3389V15.172L28.2589 10.0997ZM17.5716 10.1L22.8408 15.199H17.5716V10.1ZM6.84469 10.1016V15.1985H1.73988L6.84469 10.1016ZM6.95871 10.1054L12.0414 15.1985H6.95871V10.1054ZM28.09 10.1087V15.1988H23.0111L28.09 10.1087ZM17.4579 10.1216V15.1985H12.2112L17.4579 10.1216Z" fill="#CECECE"/>
<path d="M17.5153 6.31006C17.4412 6.31033 17.3688 6.33194 17.3067 6.37231C17.2446 6.41268 17.1954 6.47009 17.165 6.53768C17.1347 6.60527 17.1244 6.68017 17.1356 6.75342C17.1467 6.82667 17.1786 6.89517 17.2277 6.95072L7.97811 12.2084L7.98795 12.2251C8.57775 13.2212 9.29799 14.1347 10.1905 14.9387L10.2047 14.9515L10.2173 14.937L17.2572 6.9808C17.3035 7.02305 17.3595 7.05335 17.4202 7.06909C17.4809 7.08482 17.5445 7.08552 17.6055 7.07111C17.6666 7.0567 17.7232 7.02762 17.7704 6.98639C17.8177 6.94517 17.8542 6.89304 17.8767 6.83453C17.8993 6.77601 17.9072 6.71288 17.8998 6.65061C17.8925 6.58834 17.87 6.5288 17.8345 6.47716C17.7989 6.42552 17.7512 6.38334 17.6957 6.35426C17.6401 6.32519 17.5783 6.31011 17.5156 6.31033L17.5153 6.31006ZM17.5153 6.34779C17.5724 6.34784 17.6286 6.36195 17.6789 6.38888C17.7293 6.41582 17.7722 6.45474 17.8039 6.50221C17.8356 6.54968 17.8551 6.60423 17.8607 6.66104C17.8663 6.71785 17.8578 6.77516 17.8359 6.8279C17.8141 6.88064 17.7796 6.92718 17.7355 6.96341C17.6914 6.99964 17.639 7.02444 17.583 7.03561C17.5271 7.04678 17.4692 7.04398 17.4146 7.02746C17.3599 7.01093 17.3102 6.9812 17.2698 6.94088C17.2211 6.89233 17.188 6.83043 17.1745 6.76302C17.1611 6.69561 17.1679 6.62573 17.1942 6.56222C17.2205 6.49871 17.2651 6.44443 17.3222 6.40626C17.3794 6.36809 17.4466 6.34774 17.5153 6.34779ZM30.733 6.46428V6.50256H31.1569V14.9545H30.733V14.9928H31.6187V14.9545H31.1949V6.50256H31.6187V6.46428H30.733ZM5.11986 6.60455L5.10072 6.60537H5.10018L5.08076 6.60646L5.06299 6.60756V7.73248L5.08377 7.73029L5.101 7.7292C5.12412 7.73033 5.1468 7.73601 5.16773 7.7459C5.18866 7.75579 5.20744 7.76972 5.22299 7.78687C5.23854 7.80402 5.25056 7.82406 5.25837 7.84586C5.26617 7.86766 5.26961 7.89078 5.26848 7.91391C5.26735 7.93703 5.26167 7.95971 5.25178 7.98064C5.24188 8.00157 5.22796 8.02035 5.21081 8.0359C5.19366 8.05145 5.17361 8.06347 5.15181 8.07128C5.13002 8.07908 5.10689 8.08252 5.08377 8.08139L5.06299 8.0792V9.20467L5.08104 9.20549L5.10018 9.20604H5.101C5.44561 9.20857 5.77712 9.07411 6.0226 8.83222C6.26807 8.59034 6.4074 8.26085 6.40994 7.91623C6.41248 7.57161 6.27802 7.24011 6.03613 6.99463C5.79425 6.74916 5.46475 6.60982 5.12014 6.60728L5.11986 6.60455ZM5.10127 6.64338C5.26703 6.64338 5.43117 6.67604 5.58431 6.73949C5.73745 6.80294 5.87658 6.89594 5.99377 7.01318C6.11096 7.13042 6.2039 7.26959 6.26728 7.42276C6.33067 7.57592 6.36326 7.74008 6.36318 7.90584C6.36322 8.0716 6.3306 8.23575 6.26718 8.3889C6.20376 8.54205 6.11079 8.68121 5.99358 8.79842C5.87637 8.91563 5.73721 9.0086 5.58406 9.07202C5.4309 9.13544 5.26676 9.16806 5.101 9.16803V8.12021C5.15656 8.11823 5.20919 8.09476 5.2478 8.05475C5.28641 8.01474 5.30798 7.9613 5.30798 7.9057C5.30798 7.8501 5.28641 7.79667 5.2478 7.75666C5.20919 7.71664 5.15656 7.69318 5.101 7.69119L5.10127 6.64338ZM21.5018 6.69588V6.6967C21.3204 6.70291 21.1485 6.77934 21.0224 6.90986C20.8962 7.04038 20.8257 7.21479 20.8257 7.39629C20.8257 7.57779 20.8962 7.7522 21.0224 7.88272C21.1485 8.01324 21.3204 8.08967 21.5018 8.09588V11.8138H21.5001C21.3167 11.8174 21.142 11.8928 21.0136 12.0239C20.8851 12.1549 20.8132 12.331 20.8132 12.5145C20.8132 12.698 20.8851 12.8741 21.0136 13.0051C21.142 13.1361 21.3167 13.2116 21.5001 13.2152C21.6817 13.2142 21.8559 13.1426 21.9857 13.0157C22.1156 12.8887 22.1911 12.7163 22.1962 12.5347C22.2014 12.3532 22.1358 12.1768 22.0133 12.0427C21.8908 11.9086 21.721 11.8273 21.5398 11.816V8.09561C21.9174 8.08549 22.2212 7.7765 22.2212 7.39615C22.2212 7.0158 21.9177 6.70654 21.5398 6.69643V6.69561L21.5018 6.69588ZM21.5018 6.73471V8.05814C21.3263 8.05814 21.158 7.98843 21.0339 7.86433C20.9098 7.74023 20.8401 7.57192 20.8401 7.39643C20.8401 7.22093 20.9098 7.05262 21.0339 6.92852C21.158 6.80442 21.3263 6.73471 21.5018 6.73471ZM21.5398 6.73471C21.7153 6.73471 21.8836 6.80442 22.0077 6.92852C22.1318 7.05262 22.2015 7.22093 22.2015 7.39643C22.2015 7.57192 22.1318 7.74023 22.0077 7.86433C21.8836 7.98843 21.7153 8.05814 21.5398 8.05814V6.73471ZM17.1604 7.03275L10.202 14.8968C9.32424 14.1033 8.61385 13.2031 8.03088 12.2218L17.1604 7.03275ZM8.66033 7.266V8.15166H8.69807V7.72783H10.4932V8.15166H10.5315V7.266H10.4932V7.68982H8.69807V7.266H8.66033ZM15.4673 10.74V10.778H15.8911V13.531H15.4673V13.569H16.3527V13.5307H15.9288V10.7783H16.3527V10.7403L15.4673 10.74ZM21.5001 11.8515H21.5018V13.1766H21.5001C21.4131 13.1768 21.3268 13.1597 21.2464 13.1265C21.1659 13.0932 21.0928 13.0445 21.0312 12.9829C20.9697 12.9214 20.9208 12.8483 20.8876 12.7678C20.8543 12.6874 20.8372 12.6011 20.8373 12.5141C20.8372 12.427 20.8543 12.3408 20.8876 12.2603C20.9208 12.1799 20.9697 12.1068 21.0312 12.0453C21.0928 11.9837 21.1659 11.9349 21.2464 11.9017C21.3268 11.8684 21.4131 11.8514 21.5001 11.8515ZM21.5395 11.8535C21.7081 11.8632 21.8667 11.937 21.9826 12.0598C22.0986 12.1826 22.1632 12.3452 22.1632 12.5141C22.1632 12.683 22.0986 12.8455 21.9826 12.9683C21.8667 13.0912 21.7081 13.165 21.5395 13.1747V11.8535ZM25.1606 11.9724V12.8583H25.1989V12.4345H28.4862V12.8583H28.5245V11.9724H28.4862V12.3962H25.1989V11.9724H25.1606Z" fill="#6C6C6C"/>
<path d="M22.03 4.56549L21.9488 4.56576C21.5346 4.57232 20.6467 4.57068 19.8516 4.93053C19.0567 5.29037 18.3578 6.03631 18.3578 7.45928C18.3578 8.06084 18.5585 8.58037 18.8735 9.02607H12.527V6.15197H16.6934V4.68881H10.8514V6.1517H10.8519V9.02607H10.8514V10.489H10.8519V13.8952L9.87301 13.8892L8.5184 13.8954L6.39789 10.6011C6.895 10.396 7.38145 10.1012 7.75578 9.68807C8.1632 9.23881 8.43555 8.65174 8.43555 7.92521V7.71631C8.43555 6.65346 8.03031 5.89084 7.36914 5.40467C6.70824 4.9185 5.80398 4.70357 4.79883 4.68088H1.57227V6.16018H1.58047V9.63529H1.57227V11.0164H1.58047V15.3515H3.25555V11.0121L4.93992 11.0074L7.25238 14.7696L7.25566 14.774C7.45172 15.0332 7.85859 15.6091 8.51621 16.0236L8.57227 16.0592L9.90144 15.3578L10.9662 15.3515H16.6931V13.8309H12.5267V10.489H20.7648L20.7733 10.4931C21.2838 10.7263 21.9032 10.9374 22.3855 11.2417C22.8676 11.5458 23.205 11.9223 23.205 12.5201C23.205 13.1637 22.9146 13.5006 22.505 13.7051C22.0954 13.9097 21.5608 13.9603 21.1206 13.9603H21.1198C20.2757 13.9654 19.2828 13.6067 18.4349 13.3237L18.285 13.2737V14.8823L18.3515 14.9126C19.1838 15.2922 20.4165 15.4404 21.1228 15.4133C21.6297 15.4133 22.555 15.3138 23.3718 14.905C24.1899 14.4956 24.8989 13.7538 24.8989 12.5201C24.8989 11.5652 24.5396 10.8805 24.0368 10.3905C23.5337 9.90053 22.893 9.60029 22.3207 9.37717C22.1033 9.29322 21.6918 9.12889 21.2825 8.90604C20.8739 8.68373 20.4698 8.39936 20.268 8.10103C20.1422 7.89705 20.0648 7.6701 20.0514 7.45545C20.0525 6.80467 20.3558 6.45385 20.7487 6.24686C21.1419 6.03959 21.6319 5.99529 21.9521 6.01853C22.5961 6.06502 23.7057 6.42869 24.0606 6.5799L24.1735 6.6283L24.3376 6.14568H28.7796V15.3515H30.4546V6.14541H33.4652V4.6951H30.4546V4.68854H28.7796V4.6951H22.992C22.6704 4.61744 22.3475 4.56795 22.0298 4.56494L22.03 4.56549ZM22.0279 4.79326C22.3286 4.796 22.6406 4.8433 22.9548 4.92014L22.9682 4.92342H29.0082V4.91686H30.2277V4.92342H33.2382V5.91791H30.2277V15.1237H29.0082V5.91791H24.1754L24.036 6.32725C23.5884 6.14951 22.6267 5.83889 21.9693 5.79131C21.6139 5.76588 21.0921 5.80881 20.6432 6.04561C20.1939 6.28213 19.8239 6.73193 19.8239 7.45928V7.46611C19.8398 7.72697 19.9317 7.98947 20.0763 8.22354L20.0774 8.22545L20.0788 8.22736C20.32 8.58502 20.7501 8.87541 21.1745 9.10647C21.5988 9.33752 22.0191 9.50486 22.2392 9.58963C22.7998 9.80838 23.4117 10.0993 23.8782 10.554C24.345 11.0088 24.6717 11.6215 24.6717 12.5201C24.6717 13.6685 24.0395 14.3165 23.2706 14.7015C22.5017 15.0865 21.5966 15.1858 21.1214 15.1858H21.1168C20.4723 15.2107 19.2902 15.0649 18.5136 14.7319V13.5903C19.3252 13.864 20.265 14.1935 21.122 14.1883C21.5786 14.1883 22.1424 14.1415 22.6078 13.9091C23.0732 13.6767 23.4336 13.2365 23.4336 12.5201C23.4336 11.834 23.0234 11.3744 22.5077 11.049C21.992 10.7236 21.3623 10.5117 20.8687 10.2861L20.8387 10.2719L20.816 10.2615H12.2992V14.0587H16.4656V15.1235H10.9657L9.84457 15.13L8.58512 15.7945C8.00625 15.4125 7.63684 14.9003 7.44078 14.6406L5.06734 10.7791L3.0275 10.7846V15.1235H1.80879V10.7887H1.80059V9.86307H1.80879V5.9324H1.80059V4.90865H4.79418C5.76953 4.9308 6.62813 5.14217 7.23461 5.58814C7.84137 6.03439 8.20832 6.71006 8.20832 7.71631V7.92521C8.20832 8.59514 7.96277 9.12096 7.58762 9.53521C7.21219 9.9492 6.70387 10.2489 6.18762 10.4441L6.05637 10.4939C6.83922 11.7017 7.61605 12.9135 8.3948 14.1238L9.87328 14.1169L11.0802 14.124V10.2612H11.0797V9.25385H11.0802V5.92393H11.0797V4.91658H16.4664V5.92393H12.2992V9.25385H19.3337L19.1808 9.06764C18.8122 8.61838 18.5858 8.08928 18.5858 7.45928C18.5858 6.1085 19.2095 5.47139 19.9459 5.13779C20.682 4.80475 21.5338 4.8001 21.9529 4.79353C21.9779 4.79317 22.003 4.79317 22.0281 4.79353L22.0279 4.79326ZM3.0275 5.93268V9.86334H4.41027C4.9916 9.86334 5.60273 9.77803 6.0818 9.48955C6.56059 9.20107 6.89473 8.69658 6.89473 7.92549V7.71658C6.89473 6.93592 6.45641 6.47135 5.98254 6.22607C5.50895 5.98053 5.00418 5.93268 4.79609 5.93268H3.0275ZM3.25555 6.16045H4.79609C4.96563 6.16045 5.45371 6.2083 5.87781 6.42814C6.30191 6.64799 6.66695 7.0185 6.66695 7.71658V7.92549C6.66695 8.63314 6.38559 9.04029 5.96422 9.29432C5.54285 9.54834 4.96863 9.63529 4.41027 9.63529H3.25555V6.16045Z" fill="#7F2D2D"/>
<path d="M3.16474 0C3.15468 7.15912e-05 3.14505 0.00409865 3.13794 0.011211C3.13083 0.0183234 3.1268 0.0279496 3.12673 0.0380078V0.78832C3.12673 0.828607 3.12919 0.879739 3.13411 0.941718C3.13603 0.967968 3.13821 0.982734 3.14013 1.00434C3.11032 0.970156 3.08325 0.934062 3.04606 0.905625C2.98591 0.858229 2.91518 0.820859 2.83388 0.793515C2.74164 0.764563 2.64534 0.750623 2.54868 0.752226C2.29356 0.752226 2.08329 0.839726 1.92798 1.01254C1.7713 1.1859 1.69556 1.43965 1.69556 1.76777C1.69556 2.09262 1.76938 2.34363 1.92251 2.51453C2.07563 2.68461 2.28618 2.76992 2.54321 2.76992C2.65313 2.76992 2.74938 2.75616 2.83196 2.72863C2.91472 2.70001 2.98636 2.66146 3.04634 2.61297C3.08845 2.57961 3.1188 2.53996 3.15052 2.50113L3.1847 2.70402C3.18624 2.71286 3.19083 2.72088 3.19767 2.72668C3.20452 2.73247 3.21319 2.73568 3.22216 2.73574H3.46278C3.47289 2.73574 3.48258 2.73175 3.48976 2.72463C3.49693 2.71751 3.50099 2.70784 3.50106 2.69773V0.0380078C3.50099 0.0279024 3.49693 0.0182352 3.48976 0.0111151C3.48258 0.00399498 3.47289 -2.57787e-07 3.46278 0H3.16474ZM4.28993 0.0855859C4.23335 0.0844254 4.17834 0.104191 4.13544 0.141093C4.09169 0.179922 4.07255 0.239531 4.07255 0.309805C4.07255 0.379258 4.09169 0.43832 4.13489 0.477969L4.13544 0.478242C4.1783 0.515243 4.23332 0.535108 4.28993 0.534023C4.34681 0.534023 4.39931 0.514883 4.44032 0.478516C4.48599 0.439414 4.50731 0.379531 4.50731 0.309805C4.50731 0.238984 4.48599 0.178828 4.44005 0.14082C4.39843 0.104516 4.34515 0.0848479 4.28993 0.0855859ZM10.2421 0.713672C10.0799 0.713307 9.93997 0.739557 9.82239 0.792422C9.70509 0.845195 9.61349 0.923672 9.5506 1.02566C9.48771 1.12711 9.45708 1.24934 9.45708 1.38934C9.45708 1.52223 9.49071 1.64145 9.55825 1.74371L9.5588 1.74398C9.61431 1.82519 9.68759 1.88316 9.77044 1.92664C9.71165 1.96601 9.66106 2.00703 9.62661 2.05133C9.58217 2.10955 9.55849 2.18098 9.55935 2.25422C9.55935 2.32121 9.5804 2.38301 9.62142 2.43496L9.62169 2.43551C9.64338 2.46194 9.66754 2.48491 9.69415 2.50441C9.58942 2.53695 9.497 2.58289 9.42974 2.65371C9.34636 2.74197 9.30055 2.85935 9.30259 2.98074C9.30259 3.15656 9.38106 3.30012 9.52954 3.39691C9.67856 3.49535 9.88556 3.54184 10.1486 3.54184C10.4879 3.54184 10.751 3.48633 10.9375 3.37012C11.1234 3.25391 11.221 3.07918 11.221 2.86098C11.221 2.68816 11.1576 2.54871 11.0334 2.45629C10.9104 2.36387 10.7379 2.32066 10.5186 2.32066H10.1718C10.1211 2.32108 10.0703 2.31678 10.0204 2.30781C9.98934 2.30205 9.96022 2.28872 9.9356 2.26898C9.92083 2.25477 9.91372 2.23809 9.91372 2.20992C9.91372 2.16891 9.92521 2.135 9.95009 2.10383C9.9828 2.06753 10.0221 2.03783 10.066 2.01633C10.1193 2.02398 10.1724 2.02891 10.2241 2.02891C10.4622 2.02891 10.6547 1.97258 10.7958 1.85609C10.9369 1.73879 11.0091 1.57664 11.0091 1.38086C11.0091 1.30029 10.9964 1.22618 10.9708 1.15855C10.9536 1.11398 10.929 1.07926 10.9058 1.04262L11.2125 1.00652C11.2218 1.00539 11.2303 1.00094 11.2365 0.993996C11.2427 0.987051 11.2461 0.978091 11.2462 0.968789V0.785859C11.2461 0.775801 11.2421 0.766175 11.235 0.759063C11.2279 0.75195 11.2182 0.747923 11.2082 0.747851H10.5363C10.5093 0.740991 10.4819 0.735515 10.4543 0.731445C10.4193 0.725544 10.3841 0.721347 10.3488 0.718867C10.3133 0.7154 10.2777 0.713666 10.2421 0.713672ZM5.88954 0.720507C5.75938 0.720507 5.63515 0.736367 5.51685 0.768086C5.40943 0.795867 5.30494 0.83396 5.20485 0.881836C5.19617 0.886154 5.18944 0.89361 5.18604 0.902696C5.18264 0.911781 5.18282 0.92182 5.18653 0.930781L5.27813 1.14598C5.28015 1.15063 5.28307 1.15484 5.28673 1.15836C5.29039 1.16188 5.29471 1.16463 5.29944 1.16646C5.30418 1.1683 5.30923 1.16917 5.3143 1.16903C5.31937 1.16889 5.32437 1.16775 5.32899 1.16566C5.41103 1.12757 5.49798 1.09457 5.58985 1.06668C5.67936 1.03934 5.77388 1.02566 5.87341 1.02566C6.00001 1.02566 6.09243 1.05602 6.15696 1.11316C6.21821 1.16785 6.25376 1.26902 6.25376 1.42516V1.50336L5.95079 1.51539C5.62868 1.52469 5.3856 1.5791 5.22071 1.68547C5.0561 1.79156 4.9697 1.9507 4.9697 2.1484C4.9697 2.27773 4.99731 2.3882 5.05501 2.47652V2.47707C5.11298 2.56375 5.19255 2.62937 5.29071 2.67203C5.38952 2.71414 5.50135 2.7351 5.62567 2.73492C5.74179 2.7351 5.84114 2.72325 5.92372 2.69937C6.00685 2.67404 6.08031 2.63712 6.14411 2.58863H6.14466C6.19278 2.5509 6.23763 2.50113 6.28247 2.45055L6.32841 2.67066C6.33026 2.67911 6.33492 2.68668 6.34162 2.69214C6.34832 2.6976 6.35668 2.70063 6.36532 2.70074H6.5827C6.59281 2.70074 6.60251 2.69675 6.60968 2.68963C6.61685 2.68251 6.62091 2.67284 6.62099 2.66273V1.38934C6.62099 1.16293 6.56138 0.990117 6.43724 0.880742C6.31392 0.77164 6.12962 0.720507 5.88954 0.720507ZM8.17931 0.752226C8.08707 0.752226 7.99911 0.764713 7.91544 0.789687C7.83362 0.812194 7.75629 0.848639 7.68685 0.897422C7.63834 0.931883 7.59521 0.97335 7.55888 1.02047L7.52524 0.818125C7.52371 0.809286 7.51911 0.801268 7.51227 0.795471C7.50542 0.789674 7.49675 0.786466 7.48778 0.786406H7.24716C7.2371 0.786478 7.22747 0.790505 7.22036 0.797617C7.21325 0.80473 7.20922 0.814356 7.20915 0.824414V2.69773C7.20915 2.70784 7.21315 2.71754 7.22027 2.72471C7.22739 2.73188 7.23705 2.73594 7.24716 2.73602H7.5452C7.55536 2.73602 7.56509 2.73198 7.57227 2.7248C7.57945 2.71762 7.58349 2.70789 7.58349 2.69773V1.71664C7.58349 1.49816 7.62696 1.33656 7.70845 1.22855C7.78802 1.12301 7.92692 1.06723 8.13774 1.06723C8.28595 1.06723 8.38821 1.10387 8.45356 1.17195C8.52028 1.24031 8.5561 1.34613 8.5561 1.49598V2.69773C8.5561 2.70784 8.5601 2.71754 8.56722 2.72471C8.57434 2.73188 8.58401 2.73594 8.59411 2.73602H8.8886C8.89871 2.73594 8.90838 2.73188 8.9155 2.72471C8.92262 2.71754 8.92661 2.70784 8.92661 2.69773V1.47738C8.92661 1.23074 8.86454 1.04398 8.73466 0.926133C8.60587 0.808554 8.41856 0.752226 8.17931 0.752226ZM12.4255 0.755781C12.2319 0.755599 12.0635 0.795338 11.9202 0.875C11.7783 0.95375 11.6686 1.07023 11.5924 1.2209C11.5158 1.37102 11.4786 1.55176 11.4786 1.76121C11.4784 1.91871 11.5008 2.06026 11.5456 2.18586C11.5915 2.31109 11.6559 2.41773 11.7386 2.50523C11.8229 2.59237 11.922 2.65918 12.0356 2.70566L12.0361 2.70594C12.151 2.75096 12.2766 2.77348 12.4129 2.77348C12.558 2.77366 12.6889 2.75115 12.8056 2.70594C12.9234 2.65945 13.0236 2.59255 13.1064 2.50523C13.1895 2.41755 13.2528 2.311 13.2964 2.18559C13.3398 2.0598 13.3614 1.91835 13.3612 1.76121C13.3612 1.55258 13.3229 1.37238 13.2436 1.22226C13.1709 1.0764 13.0564 0.955506 12.9147 0.875C12.7738 0.795338 12.6109 0.755599 12.4255 0.755781ZM4.13708 0.786406C4.12697 0.786406 4.11728 0.790402 4.11011 0.797522C4.10294 0.804642 4.09887 0.814309 4.0988 0.824414V3.00043C4.0988 3.10871 4.07446 3.17488 4.03673 3.20742C3.99407 3.24406 3.93856 3.2632 3.86392 3.2632C3.81798 3.2632 3.77715 3.26001 3.74142 3.25363L3.74032 3.25336C3.7039 3.24759 3.66791 3.23937 3.63259 3.22875C3.62688 3.22705 3.62085 3.2267 3.61498 3.22774C3.60911 3.22878 3.60357 3.23117 3.59879 3.23473C3.59401 3.23829 3.59013 3.24291 3.58745 3.24823C3.58477 3.25356 3.58338 3.25943 3.58337 3.26539V3.49617C3.58346 3.5041 3.586 3.5118 3.59066 3.51822C3.59531 3.52463 3.60184 3.52945 3.60935 3.53199C3.64507 3.54402 3.68636 3.55414 3.73321 3.56234C3.78152 3.57201 3.83712 3.57684 3.90001 3.57684C4.02661 3.57684 4.13353 3.55441 4.21993 3.50711C4.30447 3.46138 4.37184 3.3894 4.41188 3.30203C4.4529 3.21453 4.47332 3.11172 4.47313 2.99359V0.824414C4.47306 0.814309 4.469 0.804642 4.46183 0.797522C4.45465 0.790402 4.44496 0.786406 4.43485 0.786406H4.13708ZM10.2315 0.999687C10.3676 0.999687 10.4639 1.03305 10.5281 1.09539C10.5921 1.15609 10.626 1.24879 10.626 1.3825C10.626 1.50664 10.5932 1.59414 10.5303 1.65402C10.4674 1.71391 10.3712 1.74617 10.235 1.74617C10.1038 1.74617 10.0083 1.71418 9.9427 1.65375C9.87708 1.59332 9.84372 1.50801 9.84372 1.3877C9.84372 1.25535 9.87763 1.16156 9.94189 1.0984C10.0078 1.03359 10.1016 0.999687 10.2315 0.999687ZM2.58997 1.06422C2.80161 1.06422 2.93614 1.12355 3.01052 1.2384C3.08845 1.35707 3.13028 1.53289 3.13028 1.76641V1.81781C3.13028 2.03738 3.08708 2.19789 3.00724 2.30234C2.92849 2.40461 2.79396 2.4582 2.58997 2.4582C2.41415 2.4582 2.29165 2.4016 2.20771 2.28621C2.12431 2.16973 2.08001 2.00019 2.08001 1.77488C2.08001 1.54875 2.12485 1.3743 2.20989 1.24934C2.29493 1.12438 2.41606 1.06422 2.58997 1.06422ZM12.4184 1.07105C12.5518 1.07105 12.6568 1.09949 12.7364 1.15336C12.8174 1.20805 12.8767 1.28543 12.9163 1.38852C12.9563 1.49133 12.9763 1.61583 12.9765 1.76148C12.9763 1.90823 12.9563 2.03419 12.9163 2.13937C12.8823 2.23601 12.8187 2.31945 12.7345 2.37781C12.6547 2.43332 12.5513 2.46176 12.42 2.46176C12.288 2.46176 12.1838 2.43305 12.104 2.37809C12.0207 2.31909 11.9578 2.23567 11.924 2.13937C11.8839 2.03419 11.8639 1.90823 11.8639 1.76148C11.8639 1.53891 11.9098 1.3691 11.9979 1.24906H11.9981V1.24879C12.0862 1.13066 12.2215 1.07105 12.4184 1.07105ZM6.2502 1.77926V1.9127C6.2502 2.08961 6.19853 2.2143 6.09681 2.29879C5.9929 2.38492 5.86001 2.4284 5.69185 2.4284C5.58521 2.4284 5.50372 2.40461 5.44356 2.35922C5.38532 2.31547 5.35606 2.25094 5.35606 2.15195C5.35606 2.0393 5.39845 1.95945 5.49005 1.89793C5.57974 1.83832 5.74735 1.79894 5.98962 1.78992L6.2502 1.77926ZM10.075 2.66164H10.4163C10.5151 2.66164 10.5976 2.66829 10.6638 2.6816H10.6643C10.7283 2.69309 10.7726 2.71523 10.8016 2.74559C10.8289 2.77539 10.8453 2.82133 10.8453 2.89051C10.8468 2.95835 10.8213 3.02401 10.7745 3.07316L10.774 3.07371C10.7275 3.12566 10.6542 3.16805 10.5511 3.19758H10.5508C10.4491 3.2282 10.318 3.2437 10.1576 3.24406C9.9952 3.24406 9.87353 3.21699 9.79259 3.16887C9.71192 3.12156 9.67665 3.06086 9.67665 2.97062C9.67665 2.90035 9.69224 2.84484 9.72204 2.80082C9.75321 2.75598 9.79724 2.72234 9.85739 2.69828C9.91755 2.67404 9.9901 2.66182 10.075 2.66164ZM15.0297 16.7059C14.891 16.7056 14.7716 16.7303 14.6715 16.78C14.5706 16.8308 14.4894 16.9137 14.4408 17.0157C14.388 17.1213 14.3631 17.2545 14.3631 17.4158V17.5115L14.0429 17.5979C14.0349 17.6001 14.0277 17.6049 14.0227 17.6115C14.0176 17.6181 14.0148 17.6262 14.0147 17.6345V17.7712C14.0148 17.7813 14.0188 17.7909 14.0259 17.798C14.0331 17.8052 14.0427 17.8092 14.0527 17.8093H14.3631V19.4225C14.3632 19.4326 14.3672 19.4422 14.3743 19.4493C14.3814 19.4564 14.391 19.4605 14.4011 19.4605H14.6992C14.7093 19.4605 14.719 19.4565 14.7262 19.4493C14.7334 19.4422 14.7374 19.4324 14.7374 19.4223V17.809H15.1894C15.1994 17.8089 15.209 17.8049 15.2161 17.7979C15.2232 17.7908 15.2273 17.7813 15.2274 17.7712V17.5489C15.2274 17.5389 15.2233 17.5293 15.2162 17.5221C15.2091 17.515 15.1995 17.511 15.1894 17.5109H14.7372V17.4125C14.7372 17.2676 14.7642 17.1664 14.8099 17.1073C14.8572 17.0466 14.9275 17.016 15.0333 17.016C15.0832 17.016 15.1319 17.0214 15.1793 17.0321H15.1801C15.2308 17.0424 15.2756 17.0536 15.3147 17.0658C15.3241 17.0687 15.3343 17.0678 15.3432 17.0633C15.352 17.0588 15.3587 17.0511 15.362 17.0417L15.4391 16.8178C15.4423 16.8082 15.4416 16.7977 15.4371 16.7887C15.4327 16.7796 15.4248 16.7727 15.4153 16.7694C15.359 16.7511 15.3017 16.7365 15.2436 16.7256C15.1731 16.7121 15.1015 16.7055 15.0297 16.7059ZM31.7387 16.7248C31.7286 16.7248 31.7189 16.7288 31.7117 16.7359C31.7045 16.743 31.7005 16.7527 31.7004 16.7628V19.4225C31.7005 19.4326 31.7045 19.4423 31.7117 19.4494C31.7189 19.4566 31.7286 19.4605 31.7387 19.4605H32.0351C32.0451 19.4604 32.0547 19.4563 32.0618 19.4491C32.0689 19.442 32.0728 19.4323 32.0728 19.4223V18.7611L32.2686 18.5902L32.9388 19.4461C32.9424 19.4506 32.947 19.4542 32.9522 19.4568C32.9574 19.4593 32.9631 19.4606 32.9689 19.4605H33.3279C33.3351 19.4606 33.3421 19.4586 33.3482 19.4548C33.3542 19.4511 33.3591 19.4457 33.3623 19.4392C33.3654 19.4328 33.3667 19.4256 33.3659 19.4185C33.3652 19.4114 33.3624 19.4046 33.358 19.399L32.5292 18.3518L33.2975 17.5757C33.3028 17.5704 33.3065 17.5636 33.3079 17.5562C33.3093 17.5489 33.3086 17.5412 33.3057 17.5343C33.3028 17.5274 33.2979 17.5214 33.2916 17.5173C33.2854 17.5131 33.278 17.5109 33.2705 17.5109H32.9205C32.9154 17.5109 32.9103 17.512 32.9057 17.5139C32.901 17.5159 32.8967 17.5188 32.8931 17.5224L32.2396 18.1855L32.2391 18.1861C32.2048 18.2223 32.1629 18.2696 32.1133 18.328L32.0635 18.3881L32.0674 18.3135C32.071 18.2469 32.0728 18.1904 32.0728 18.1439V16.7628C32.0728 16.7527 32.0688 16.743 32.0617 16.7358C32.0546 16.7287 32.0449 16.7246 32.0348 16.7245L31.7387 16.7248ZM23.5585 17.4412C23.3767 17.4412 23.2159 17.4828 23.0789 17.5664C22.9414 17.653 22.8317 17.7772 22.7628 17.9244C22.6892 18.0777 22.6525 18.2575 22.6529 18.4639C22.6525 18.6753 22.693 18.8558 22.7743 19.0053C22.8555 19.1535 22.9704 19.2678 23.1169 19.3454C23.2649 19.4214 23.436 19.4594 23.6302 19.4592C23.7483 19.4605 23.8662 19.4505 23.9824 19.4291C24.0835 19.4092 24.1848 19.3778 24.2861 19.3348C24.293 19.3318 24.2989 19.327 24.303 19.3207C24.3071 19.3145 24.3093 19.3072 24.3094 19.2998V19.0501C24.3093 19.0439 24.3077 19.0378 24.3047 19.0324C24.3018 19.0269 24.2975 19.0223 24.2923 19.0188C24.2872 19.0154 24.2812 19.0132 24.2751 19.0126C24.2689 19.0119 24.2626 19.0128 24.2569 19.0151C24.1557 19.0565 24.0584 19.0878 23.9649 19.1089C23.859 19.1312 23.7509 19.1417 23.6427 19.1404C23.4478 19.1404 23.3029 19.0862 23.1998 18.9793C23.1032 18.8799 23.0503 18.7339 23.0412 18.5412H24.3592C24.3693 18.5412 24.379 18.5372 24.3862 18.53C24.3934 18.5229 24.3974 18.5131 24.3974 18.503V18.3271C24.3974 18.1523 24.3643 17.9985 24.2982 17.8656C24.2345 17.735 24.1338 17.6261 24.0086 17.5525C23.8823 17.4781 23.7313 17.4412 23.5585 17.4412ZM28.6989 17.4412C28.5053 17.441 28.3368 17.4809 28.1936 17.5607C28.0513 17.6396 27.9367 17.7604 27.8654 17.9066C27.7896 18.057 27.7518 18.2371 27.752 18.4469C27.752 18.6044 27.7743 18.746 27.819 18.8716C27.8649 18.9966 27.9292 19.1033 28.012 19.1909H28.0123C28.0965 19.2779 28.1954 19.3447 28.309 19.3914H28.3095C28.4245 19.4366 28.5501 19.4592 28.6863 19.4592C28.8314 19.4592 28.9623 19.4367 29.079 19.3916C29.1967 19.3452 29.2971 19.2783 29.38 19.1909C29.4631 19.1034 29.5264 18.9968 29.5698 18.871C29.6151 18.7343 29.6371 18.5909 29.6349 18.4469C29.635 18.238 29.5958 18.0584 29.5173 17.908C29.4445 17.7621 29.3299 17.6412 29.1881 17.5607C29.0478 17.4809 28.8837 17.4412 28.6989 17.4412ZM18.0083 17.4448C17.8781 17.4448 17.7539 17.4605 17.6356 17.4921C17.5281 17.5198 17.4235 17.5579 17.3233 17.6058C17.3146 17.6102 17.3079 17.6177 17.3046 17.6269C17.3012 17.636 17.3015 17.6461 17.3053 17.655L17.3969 17.8702C17.3989 17.8749 17.4018 17.8791 17.4055 17.8826C17.4091 17.8861 17.4135 17.8889 17.4182 17.8907C17.4229 17.8926 17.428 17.8934 17.433 17.8933C17.4381 17.8932 17.4431 17.892 17.4477 17.8899C17.5298 17.8516 17.6167 17.8186 17.7086 17.7907C17.7981 17.7633 17.8925 17.7496 17.9919 17.7496C18.1188 17.7496 18.2112 17.7803 18.2757 17.8377C18.337 17.8924 18.3725 17.9933 18.3725 18.1494V18.2273L18.0695 18.2396C17.7474 18.2487 17.5043 18.3034 17.3392 18.4097C17.1746 18.5158 17.0884 18.675 17.0884 18.8724C17.0884 19.002 17.1158 19.1125 17.1735 19.2005L17.1738 19.2011C17.2321 19.2884 17.3107 19.3534 17.4095 19.396C17.5084 19.4381 17.62 19.4591 17.7441 19.4589C17.8603 19.4591 17.9596 19.4472 18.0422 19.4234C18.1255 19.3982 18.1991 19.3614 18.2629 19.3129L18.2631 19.3126C18.3115 19.2749 18.3564 19.2251 18.4012 19.1745L18.4469 19.3946C18.4487 19.4031 18.4534 19.4107 18.4602 19.4162C18.467 19.4217 18.4754 19.4247 18.4841 19.4247H18.7015C18.7114 19.4246 18.7209 19.4206 18.728 19.4135C18.735 19.4065 18.739 19.397 18.7392 19.387V18.1133C18.7392 17.8869 18.6799 17.7141 18.556 17.6047C18.4324 17.4959 18.2484 17.4448 18.0083 17.4448ZM16.5965 17.4762C16.4983 17.4762 16.4081 17.4944 16.3261 17.5309C16.2466 17.567 16.1764 17.6157 16.1156 17.6769C16.0754 17.7168 16.045 17.7639 16.0127 17.8095L15.9881 17.5448C15.9872 17.5354 15.9828 17.5267 15.9758 17.5203C15.9687 17.5139 15.9596 17.5104 15.9501 17.5104H15.7024C15.6922 17.5104 15.6825 17.5144 15.6753 17.5216C15.6681 17.5288 15.6641 17.5385 15.6641 17.5487V19.4217C15.6641 19.4319 15.6681 19.4416 15.6753 19.4488C15.6825 19.456 15.6922 19.46 15.7024 19.46H16.0021C16.0122 19.46 16.022 19.456 16.0291 19.4488C16.0363 19.4416 16.0404 19.4319 16.0404 19.4217V18.4174C16.0404 18.3246 16.0545 18.2414 16.0827 18.1677C16.1085 18.0971 16.1479 18.0323 16.1987 17.9769L16.199 17.9763C16.248 17.9235 16.3047 17.8833 16.369 17.8557H16.3693C16.4349 17.8269 16.5047 17.8125 16.5788 17.8125C16.6495 17.8127 16.7199 17.821 16.7888 17.8371C16.7939 17.8383 16.7992 17.8385 16.8044 17.8375C16.8096 17.8365 16.8145 17.8345 16.8189 17.8316C16.8232 17.8286 16.8269 17.8248 16.8298 17.8203C16.8326 17.8159 16.8344 17.8109 16.8352 17.8057L16.8733 17.5424C16.8746 17.5328 16.8722 17.523 16.8666 17.5151C16.861 17.5072 16.8527 17.5017 16.8432 17.4997C16.8037 17.4922 16.7638 17.487 16.7237 17.4839C16.6814 17.4795 16.639 17.4772 16.5965 17.4768M20.2256 17.4768C20.1383 17.4768 20.0556 17.4887 19.9776 17.5126C19.9012 17.5359 19.8293 17.572 19.7649 17.6192C19.7205 17.6532 19.6811 17.6933 19.6478 17.7382L19.615 17.5427C19.6135 17.5338 19.6088 17.5257 19.6019 17.5199C19.595 17.5141 19.5863 17.5109 19.5773 17.5109H19.3367C19.3265 17.511 19.3169 17.5151 19.3098 17.5222C19.3026 17.5294 19.2986 17.5391 19.2986 17.5492V19.4223C19.2986 19.4324 19.3027 19.4422 19.3099 19.4493C19.317 19.4565 19.3268 19.4605 19.3369 19.4605H19.635C19.645 19.4604 19.6546 19.4563 19.6617 19.4491C19.6688 19.442 19.6727 19.4323 19.6727 19.4223V18.4311C19.6731 18.287 19.6897 18.1676 19.7227 18.0729C19.7564 17.978 19.8083 17.9093 19.88 17.8629C19.9511 17.8169 20.0481 17.792 20.1736 17.792C20.2611 17.792 20.3303 17.8084 20.3828 17.8385L20.3836 17.8388C20.4375 17.868 20.4766 17.9107 20.5034 17.9711L20.5037 17.9717C20.5321 18.0322 20.5465 18.1112 20.5469 18.2088V19.4225C20.547 19.4326 20.551 19.4422 20.5581 19.4493C20.5652 19.4564 20.5748 19.4605 20.5849 19.4605H20.8813C20.8914 19.4604 20.901 19.4563 20.908 19.4491C20.9151 19.442 20.919 19.4323 20.919 19.4223V18.3745C20.919 18.1759 20.9611 18.031 21.0399 17.9356C21.1173 17.8413 21.242 17.792 21.4254 17.792C21.5534 17.792 21.6423 17.827 21.7024 17.894L21.7027 17.8943C21.7637 17.9602 21.7968 18.063 21.7968 18.2088V19.4225C21.7968 19.4326 21.8009 19.4423 21.8081 19.4494C21.8152 19.4566 21.8249 19.4605 21.835 19.4605H22.1293C22.1394 19.4605 22.1492 19.4565 22.1563 19.4493C22.1635 19.4422 22.1675 19.4324 22.1675 19.4223V18.1951C22.1675 17.9512 22.1109 17.7671 21.9906 17.6501C21.8717 17.5331 21.697 17.4768 21.4738 17.4768C21.3347 17.4768 21.2061 17.5047 21.088 17.5607H21.0877C20.9819 17.6099 20.8985 17.6873 20.8326 17.7833C20.7864 17.6887 20.7114 17.6111 20.6185 17.5615C20.511 17.5046 20.38 17.4764 20.2256 17.4768ZM30.9859 17.4768C30.8877 17.4768 30.7975 17.495 30.7155 17.5314C30.636 17.5675 30.5658 17.6162 30.5049 17.6775C30.4647 17.7174 30.4344 17.7644 30.4021 17.8101L30.3775 17.5454C30.3766 17.536 30.3722 17.5272 30.3651 17.5209C30.3581 17.5145 30.349 17.511 30.3395 17.5109H30.0918C30.0816 17.5109 30.0719 17.515 30.0647 17.5221C30.0575 17.5293 30.0535 17.5391 30.0535 17.5492V19.4223C30.0535 19.4324 30.0575 19.4422 30.0647 19.4493C30.0719 19.4565 30.0816 19.4605 30.0918 19.4605H30.3915C30.4016 19.4605 30.4113 19.4565 30.4185 19.4493C30.4257 19.4422 30.4297 19.4324 30.4297 19.4223V18.4174C30.4297 18.3246 30.4439 18.2414 30.4721 18.1677C30.5006 18.0919 30.5392 18.0283 30.5881 17.9769V17.9763C30.6356 17.9244 30.6937 17.8833 30.7584 17.8557C30.824 17.8269 30.8941 17.8125 30.9681 17.8125C31.0388 17.8127 31.1093 17.821 31.1781 17.8371C31.1833 17.8383 31.1886 17.8385 31.1938 17.8375C31.1989 17.8365 31.2039 17.8345 31.2082 17.8316C31.2126 17.8286 31.2163 17.8248 31.2191 17.8203C31.2219 17.8159 31.2238 17.8109 31.2246 17.8057L31.2626 17.5424C31.2639 17.5328 31.2616 17.523 31.256 17.5151C31.2504 17.5072 31.242 17.5017 31.2325 17.4997C31.193 17.4922 31.1531 17.487 31.1131 17.4839C31.0708 17.4795 31.0284 17.4772 30.9859 17.4768ZM24.7116 17.5112C24.7058 17.5113 24.7 17.5127 24.6948 17.5154C24.6896 17.518 24.6851 17.5218 24.6816 17.5265C24.678 17.5312 24.6757 17.5366 24.6746 17.5423C24.6735 17.5481 24.6737 17.554 24.6752 17.5596L25.2177 19.4332C25.2201 19.4411 25.2249 19.4479 25.2314 19.4529C25.238 19.4578 25.2459 19.4605 25.2541 19.4605H25.5899C25.5978 19.4605 25.6056 19.4581 25.612 19.4534C25.6185 19.4488 25.6234 19.4423 25.626 19.4348L25.9921 18.3498C26.0087 18.3035 26.024 18.2566 26.0378 18.2093C26.0509 18.1626 26.0629 18.1179 26.0736 18.0756L26.0739 18.0748C26.0821 18.0463 26.0881 18.0214 26.0947 17.996C26.1012 18.0214 26.1081 18.0461 26.1152 18.0748L26.1157 18.0759L26.1534 18.2057L26.1537 18.2068L26.1986 18.3438L26.5486 19.4343C26.5511 19.4419 26.556 19.4486 26.5625 19.4533C26.569 19.458 26.5769 19.4606 26.5849 19.4605H26.9314C26.9396 19.4605 26.9476 19.4579 26.9542 19.4529C26.9608 19.448 26.9657 19.4411 26.968 19.4332L27.5122 17.5596C27.5137 17.554 27.5139 17.5481 27.5128 17.5423C27.5118 17.5366 27.5094 17.5312 27.5058 17.5265C27.5023 17.5218 27.4978 17.518 27.4926 17.5154C27.4874 17.5127 27.4816 17.5113 27.4758 17.5112H27.1723C27.164 17.5112 27.156 17.5139 27.1494 17.5189C27.1428 17.5239 27.1379 17.5309 27.1356 17.5388L26.8485 18.5732H26.8483L26.7925 18.7821V18.7827C26.7761 18.8489 26.7615 18.9098 26.7487 18.9654C26.7339 18.9077 26.7178 18.8504 26.7006 18.7934L26.7003 18.7928C26.684 18.7352 26.6665 18.678 26.6478 18.6211L26.2978 17.5375C26.2953 17.5299 26.2905 17.5232 26.284 17.5185C26.2775 17.5138 26.2697 17.5113 26.2617 17.5112H25.9402C25.9322 17.5112 25.9244 17.5138 25.918 17.5184C25.9115 17.5231 25.9066 17.5296 25.9041 17.5372L25.5415 18.6227C25.5278 18.6628 25.5145 18.706 25.5016 18.7521C25.4883 18.7969 25.4755 18.8423 25.4633 18.8882V18.8888L25.4422 18.9763L25.4403 18.9664C25.4281 18.9067 25.4131 18.8437 25.3952 18.7775L25.3949 18.7767C25.3779 18.7086 25.36 18.6408 25.3411 18.5732L25.0572 17.5391C25.055 17.5311 25.0502 17.5241 25.0436 17.519C25.037 17.514 25.0289 17.5113 25.0206 17.5112H24.7116ZM23.555 17.7502C23.6622 17.7502 23.7464 17.7729 23.8104 17.8158H23.8106C23.8763 17.8585 23.9241 17.9175 23.9561 17.9966L23.9564 17.9974C23.9856 18.066 24.0007 18.1478 24.0056 18.2383H23.0529C23.0748 18.0895 23.1221 17.9703 23.2017 17.8872C23.2889 17.7956 23.4035 17.7502 23.555 17.7502ZM28.6918 17.7573C28.8252 17.7573 28.9302 17.7857 29.0098 17.8396C29.0904 17.8943 29.15 17.9717 29.1894 18.0748C29.2295 18.1776 29.2497 18.3019 29.2499 18.4477C29.2497 18.5945 29.2296 18.7204 29.1897 18.8256C29.1557 18.9223 29.0921 19.0057 29.0079 19.0641C28.9277 19.1193 28.8244 19.148 28.6934 19.148C28.5613 19.148 28.4572 19.1193 28.3773 19.0641C28.2941 19.0051 28.2312 18.9218 28.1974 18.8256C28.1573 18.7204 28.1371 18.5945 28.137 18.4477C28.137 18.2252 28.1832 18.0554 28.2712 17.9353L28.2715 17.935C28.3595 17.8169 28.4949 17.7573 28.6918 17.7573ZM18.3692 18.5041V18.6372C18.3692 18.8144 18.3175 18.9391 18.2158 19.0233C18.1119 19.1095 17.979 19.1532 17.8109 19.1532C17.7042 19.1532 17.6227 19.1291 17.5626 19.084C17.5043 19.0403 17.4751 18.9757 17.4751 18.8768C17.4751 18.7638 17.5175 18.684 17.6091 18.6225C17.6988 18.5629 17.8664 18.5237 18.1086 18.5147L18.3692 18.5041Z" fill="#212121"/>
</svg>
