<svg width="16" height="16" viewBox="0 0 16 16" fill="none" xmlns="http://www.w3.org/2000/svg">
<path d="M14.25 0H1.75C0.783502 0 0 0.783502 0 1.75V14.25C0 15.2165 0.783502 16 1.75 16H14.25C15.2165 16 16 15.2165 16 14.25V1.75C16 0.783502 15.2165 0 14.25 0Z" fill="#092E20"/>
<path d="M11.6486 5.88738V10.0265C11.6486 11.4528 11.5442 12.1368 11.2312 12.7281C10.9413 13.2963 10.5587 13.6557 9.77028 14.0499L8.11216 13.2615C8.90066 12.8905 9.28328 12.5659 9.52672 12.0671C9.78185 11.5571 9.8631 10.9657 9.8631 9.41207V5.88738H11.6486ZM8.80803 3.12988V11.3948C7.8921 11.5687 7.2196 11.6383 6.48916 11.6383C4.30935 11.6383 3.1731 10.6528 3.1731 8.76282C3.1731 6.94245 4.37897 5.75988 6.2456 5.75988C6.53547 5.75988 6.75578 5.78301 7.02247 5.85257V3.13001L8.80803 3.12988ZM6.4196 7.19751C5.51522 7.19751 4.99341 7.75407 4.99341 8.72795C4.99341 9.67882 5.49203 10.2005 6.40803 10.2005C6.60503 10.2005 6.76741 10.1889 7.02247 10.1543V7.2902C6.81378 7.2207 6.63991 7.19751 6.4196 7.19751ZM11.6486 3.13938V4.97138H9.8631V3.13945L11.6486 3.13938Z" fill="#FFFFFD"/>
</svg>
