<svg width="22" height="21" viewBox="0 0 22 21" fill="none" xmlns="http://www.w3.org/2000/svg">
<path d="M1.25216 15.4916C1.36081 15.2689 1.53789 15.0864 1.75768 14.9707L11.9591 9.60146L16.8016 6.6818L17.9765 5.95929C18.1396 5.85902 18.3274 5.80591 18.519 5.80591C18.8692 5.80591 19.1954 5.9826 19.3858 6.27529L19.471 6.40623C19.588 6.58609 19.6502 6.79583 19.6502 7.01015C19.6502 7.17835 19.6119 7.34432 19.538 7.49557L19.5092 7.55478C19.4146 7.74875 19.2761 7.91825 19.1048 8.04994L18.2259 8.72554L16.2319 9.89343L11.6743 12.5211L2.83563 17.0507C2.65372 17.1439 2.45209 17.1925 2.24752 17.1925H2.12119C1.85464 17.1925 1.59943 17.0851 1.41365 16.8947C1.23467 16.7112 1.13454 16.4655 1.13454 16.2097V16.0008C1.13454 15.8244 1.17475 15.6503 1.25216 15.4916Z" fill="#E74343"/>
<path d="M17.049 11.2266C17.5953 10.9623 18.2058 10.8662 18.8028 10.9505L19.1142 10.9944C19.3088 11.0219 19.5003 11.067 19.6865 11.129L19.7984 11.1663C19.9673 11.2227 20.1312 11.2928 20.2883 11.3761L20.5652 11.5228C20.6673 11.5769 20.7652 11.6399 20.8569 11.7101C21.0407 11.8512 21.2006 12.0232 21.3276 12.2173L21.431 12.3753C21.4719 12.4379 21.5037 12.5062 21.5251 12.5781C21.5828 12.7718 21.5632 12.9812 21.4704 13.1625L21.4273 13.2465C21.4053 13.2894 21.3803 13.3309 21.3524 13.3704L21.1996 13.5875L20.9488 13.8694C20.6576 14.1968 20.305 14.4635 19.9114 14.6539L19.877 14.6705C19.4276 14.8879 18.936 15.0005 18.4394 14.9999L18.3858 14.9998C18.1425 14.9994 17.9003 14.9719 17.6636 14.9176L17.6408 14.9124C17.4792 14.8754 17.3208 14.826 17.167 14.7647L17.1169 14.7448C16.7015 14.5794 16.3268 14.3273 16.0175 14.0051L15.7541 13.6795C15.7009 13.6137 15.6582 13.5401 15.6272 13.4612C15.567 13.3075 15.5537 13.1388 15.5892 12.9765L15.6224 12.8241C15.6565 12.6681 15.7177 12.5192 15.8031 12.384L15.9156 12.206C16.0153 12.0483 16.1321 11.9017 16.2636 11.7691C16.4685 11.5624 16.7072 11.392 16.9687 11.2655L17.049 11.2266Z" fill="#E74343"/>
<path d="M4.52958 11.7003C4.8856 11.2016 5.09198 10.6082 5.12442 9.98996L5.14193 9.65651C5.15205 9.46365 5.14539 9.26994 5.12203 9.07773L5.1055 8.94172C5.08402 8.76502 5.04849 8.59015 4.99926 8.41882L4.90905 8.10486C4.87726 7.99424 4.83651 7.88636 4.78722 7.78227L4.7821 7.77148C4.68391 7.5641 4.55172 7.37477 4.39124 7.21161L4.25745 7.07554C4.20526 7.02248 4.14563 6.97754 4.08055 6.94221C3.90669 6.84781 3.70376 6.8272 3.51692 6.8849L3.42019 6.9148C3.37615 6.9284 3.33316 6.94515 3.29154 6.96497L3.05235 7.07874L2.7133 7.29116C2.35843 7.5134 2.05033 7.80373 1.80596 8.14608L1.73669 8.2431C1.4611 8.62914 1.27281 9.07269 1.18497 9.54268L1.16273 9.66168C1.11927 9.89418 1.10078 10.1312 1.10759 10.3684L1.109 10.4177C1.11371 10.5817 1.13049 10.7453 1.1592 10.9072L1.17217 10.9802C1.25049 11.4217 1.4203 11.8425 1.67036 12.2149L1.93319 12.5426C1.98553 12.6079 2.0476 12.6645 2.1171 12.7104C2.25291 12.8002 2.41212 12.8457 2.57307 12.8408L2.73111 12.8361C2.8841 12.8314 3.03466 12.7991 3.17568 12.7407L3.37837 12.6567C3.54586 12.5872 3.70514 12.4994 3.85338 12.3948L3.86205 12.3887C4.09711 12.2228 4.30276 12.0181 4.4706 11.7829L4.52958 11.7003Z" fill="#E74343"/>
<path d="M9.6471 8.47292C10.0429 8.0066 10.2974 7.43292 10.3806 6.8198L10.4253 6.4901C10.4514 6.29805 10.4607 6.10381 10.4532 5.90967L10.448 5.77417C10.4411 5.59586 10.42 5.41823 10.385 5.24302L10.321 4.92309C10.2984 4.80989 10.2666 4.69868 10.226 4.59059L10.2221 4.5802C10.1411 4.3647 10.0249 4.16436 9.87826 3.98777L9.75631 3.84087C9.70863 3.78348 9.65294 3.73356 9.59102 3.69273C9.42546 3.58361 9.22483 3.54558 9.03353 3.58706L8.93542 3.60832C8.8903 3.61811 8.84597 3.63114 8.80269 3.64732L8.55524 3.73997L8.20193 3.92128C7.82872 4.11279 7.49648 4.37657 7.22362 4.69804L7.15118 4.78341C6.84312 5.14635 6.61773 5.57451 6.49085 6.03782L6.46044 6.14889C6.39772 6.37791 6.35964 6.61347 6.34687 6.85147L6.34435 6.89844C6.33553 7.06278 6.3388 7.22777 6.35415 7.39191L6.3609 7.46413C6.40272 7.91148 6.53737 8.3458 6.7559 8.73846L6.99081 9.08761C7.03764 9.15728 7.0949 9.2191 7.16038 9.27085C7.2883 9.37199 7.44322 9.43107 7.60412 9.44016L7.76147 9.44899C7.91455 9.45763 8.06756 9.43839 8.21336 9.39221L8.42121 9.32633C8.59405 9.2715 8.76027 9.19764 8.9169 9.10599L8.9253 9.10108C9.17328 8.95598 9.39531 8.76953 9.58215 8.54939L9.6471 8.47292Z" fill="#E74343"/>
<path d="M15.1106 5.76823C15.536 5.3301 15.8277 4.77494 15.9507 4.16908L16.0167 3.84405C16.0553 3.6536 16.0774 3.45986 16.0827 3.26509L16.0863 3.13082C16.0911 2.95212 16.0816 2.77318 16.0581 2.59574L16.0153 2.27276C16.0001 2.15807 15.9757 2.04476 15.9422 1.934L15.9392 1.9241C15.8724 1.70316 15.7693 1.49504 15.6345 1.30865L15.5226 1.15389C15.4788 1.09336 15.4265 1.03973 15.3674 0.99476C15.2093 0.874471 15.0115 0.822783 14.8175 0.851077L14.7189 0.865456C14.6732 0.872136 14.6279 0.882119 14.5836 0.895341L14.3308 0.970725L13.9682 1.12658C13.5822 1.29252 13.2323 1.53381 12.9378 1.837L12.8642 1.9128C12.5315 2.25543 12.2773 2.66924 12.1196 3.12498L12.0837 3.22895C12.0058 3.45408 11.9522 3.6874 11.9238 3.92485L11.9185 3.96955C11.8989 4.13338 11.8913 4.29859 11.8959 4.46382L11.8979 4.53483C11.9104 4.98466 12.0163 5.42762 12.2088 5.8344L12.4202 6.19882C12.4624 6.27156 12.5155 6.33722 12.5775 6.39339C12.6985 6.50307 12.8492 6.57268 13.0092 6.59276L13.1652 6.61239C13.3176 6.63149 13.4719 6.62279 13.6207 6.58662L13.8315 6.53537C14.0078 6.49253 14.1787 6.43013 14.3413 6.3493L14.3493 6.34533C14.6064 6.21752 14.8403 6.04654 15.0414 5.83947L15.1106 5.76823Z" fill="#E74343"/>
<path d="M12.0092 14.1038C12.5986 13.9675 13.2153 14.0096 13.78 14.2248L14.0738 14.3368C14.2585 14.4072 14.4364 14.494 14.6054 14.5964L14.7057 14.6571C14.8589 14.7498 15.0041 14.855 15.14 14.9713L15.3787 15.1759C15.467 15.2515 15.5493 15.3348 15.6239 15.4239C15.7737 15.6027 15.8931 15.806 15.9759 16.0239L16.0432 16.2009C16.07 16.2712 16.0865 16.3449 16.0921 16.4199C16.1074 16.6218 16.0438 16.822 15.9145 16.9785L15.8551 17.0504C15.8244 17.0876 15.7911 17.1225 15.7555 17.155L15.5604 17.3327L15.2574 17.5509C14.9027 17.8063 14.5006 17.9887 14.0744 18.0873L14.0434 18.0945C13.5563 18.207 13.0501 18.2075 12.5632 18.0956L12.5158 18.0848C12.2774 18.03 12.0459 17.9489 11.8258 17.8429L11.8062 17.8335C11.6561 17.7611 11.5116 17.6775 11.3741 17.5833L11.3307 17.5535C10.9597 17.2991 10.6472 16.9694 10.4135 16.586L10.2294 16.23C10.1863 16.1468 10.1574 16.0571 10.1439 15.9644C10.1203 15.8032 10.144 15.6386 10.2119 15.4904L10.2767 15.349C10.3441 15.2019 10.437 15.0678 10.5512 14.9528L10.6956 14.8073C10.8264 14.6755 10.9714 14.5584 11.1279 14.4583C11.372 14.3022 11.6411 14.1889 11.9235 14.1236L12.0092 14.1038Z" fill="#E74343"/>
<path d="M6.68984 16.7289C7.27924 16.5926 7.8959 16.6348 8.46061 16.8499L8.75442 16.9619C8.93909 17.0323 9.11699 17.1192 9.28597 17.2215L9.38631 17.2822C9.53946 17.375 9.68473 17.4801 9.8206 17.5965L10.0593 17.801C10.1476 17.8766 10.2299 17.9599 10.3045 18.049C10.4543 18.2279 10.5737 18.4312 10.6565 18.6491L10.7238 18.8261C10.7506 18.8964 10.7671 18.9701 10.7727 19.0451C10.788 19.247 10.7244 19.4471 10.5951 19.6036L10.5357 19.6756C10.505 19.7127 10.4717 19.7477 10.4361 19.7801L10.241 19.9578L9.93802 20.1761C9.58333 20.4315 9.18116 20.6138 8.75501 20.7124L8.72395 20.7196C8.23693 20.8322 7.73067 20.8327 7.24378 20.7208L7.19643 20.7099C6.95804 20.6552 6.72655 20.5741 6.50634 20.468L6.48687 20.4587C6.33663 20.3863 6.19216 20.3027 6.05472 20.2084L6.01124 20.1786C5.64034 19.9243 5.32779 19.5946 5.09414 19.2112L4.90998 18.8552C4.86694 18.772 4.83805 18.6822 4.82451 18.5896C4.80094 18.4284 4.82454 18.2638 4.89249 18.1156L4.95728 17.9741C5.02469 17.8271 5.11761 17.6929 5.23177 17.5779L5.37621 17.4324C5.50701 17.3006 5.65198 17.1836 5.8085 17.0834C6.05255 16.9273 6.32169 16.8141 6.60413 16.7487L6.68984 16.7289Z" fill="#E74343"/>
</svg>
