<svg width="17" height="17" viewBox="0 0 17 17" fill="none" xmlns="http://www.w3.org/2000/svg">
<path d="M10.0097 0C9.88683 0 9.77267 0.0264667 9.66729 0.0617333C9.89121 0.211533 10.0141 0.409867 10.0756 0.634667C10.08 0.665533 10.0888 0.6876 10.0932 0.7184C10.0975 0.744867 10.1019 0.771333 10.1019 0.797733C10.1195 1.1856 10.001 1.23407 9.91751 1.46327C9.79021 1.7586 9.82534 2.07593 9.979 2.33153C9.99215 2.3624 10.0097 2.39767 10.0317 2.42853C9.86485 1.3134 10.7912 1.14593 10.9624 0.797733C10.9756 0.493667 10.7253 0.290867 10.5278 0.149867C10.339 0.0352 10.1678 0 10.0097 0ZM11.4058 0.2512C11.3883 0.3526 11.4014 0.326133 11.397 0.379067C11.3927 0.414333 11.3927 0.4584 11.3883 0.493667C11.3795 0.528867 11.3707 0.564133 11.3575 0.5994C11.3488 0.634733 11.3356 0.669933 11.3225 0.7052C11.3049 0.740467 11.2917 0.771333 11.2741 0.806533C11.261 0.8242 11.2522 0.841867 11.239 0.859467L11.2127 0.899133C11.1908 0.93 11.1688 0.960867 11.1468 0.987267C11.1205 1.01373 11.0985 1.0446 11.0678 1.0666V1.071C11.0414 1.09307 11.0151 1.11953 10.9844 1.14153C10.8922 1.21207 10.7868 1.26493 10.6902 1.33107C10.6595 1.35307 10.6288 1.37073 10.6024 1.3972C10.5717 1.4192 10.5453 1.4412 10.519 1.46773C10.4883 1.49413 10.4664 1.5206 10.44 1.55147C10.4181 1.57787 10.3917 1.6088 10.3741 1.6396C10.3522 1.67047 10.3303 1.70127 10.3127 1.73213C10.2951 1.76747 10.2819 1.79827 10.2643 1.83347C10.2512 1.8688 10.2381 1.89967 10.2293 1.93487C10.2161 1.97453 10.2073 2.0098 10.1985 2.04507C10.1942 2.06273 10.1942 2.08473 10.1898 2.1024C10.1853 2.12 10.1853 2.13767 10.181 2.15527C10.181 2.19053 10.1766 2.2302 10.1766 2.26547C10.1766 2.29193 10.1766 2.31833 10.181 2.3448C10.181 2.38007 10.1854 2.41533 10.1942 2.455C10.1985 2.49027 10.2073 2.52547 10.2161 2.56073C10.2293 2.59607 10.2381 2.63127 10.2513 2.66653C10.26 2.68853 10.2732 2.7106 10.2819 2.72827L9.27224 2.336C9.10357 2.28778 8.93377 2.24367 8.76297 2.20373L8.48639 2.13767C8.22295 2.08473 7.95514 2.04507 7.68739 2.01867C7.67862 2.01867 7.67417 2.0142 7.66547 2.0142C7.40433 1.98777 7.14202 1.97453 6.87955 1.97453C6.68638 1.97453 6.4932 1.98333 6.30448 1.99653C6.03659 2.0142 5.76884 2.04947 5.50096 2.09353C5.43515 2.1024 5.36928 2.1156 5.30347 2.12887C5.16734 2.15527 5.03565 2.18613 4.90835 2.217L4.71073 2.26987C4.64492 2.29633 4.58343 2.3272 4.522 2.3536L4.3771 2.41973C4.36834 2.42413 4.3595 2.42413 4.35519 2.42853C4.31123 2.45053 4.27171 2.4682 4.2322 2.4902C4.2216 2.49375 4.21132 2.49819 4.20146 2.50347C4.15318 2.52547 4.1049 2.55193 4.06539 2.574C4.03464 2.5872 4.0039 2.6048 3.9776 2.618C3.96486 2.6261 3.95167 2.63347 3.93809 2.64007C3.89858 2.66207 3.85907 2.68413 3.82387 2.7062C3.78443 2.7282 3.74932 2.75024 3.71855 2.77233C3.6878 2.79433 3.65712 2.812 3.63076 2.834C3.62638 2.8384 3.622 2.8384 3.61755 2.8428C3.59125 2.86047 3.5605 2.88247 3.53414 2.90453L3.52538 2.91333L3.45957 2.9662C3.45073 2.97067 3.44197 2.97947 3.4332 2.98387C3.41129 3.00147 3.38931 3.02353 3.36733 3.0412C3.36295 3.04993 3.35418 3.0544 3.3498 3.0588C3.32343 3.08527 3.29707 3.10727 3.27077 3.13373C3.26632 3.13373 3.26632 3.13813 3.26201 3.14253C3.23564 3.16453 3.20928 3.191 3.18298 3.21747C3.17854 3.22187 3.17854 3.22627 3.17415 3.22627C3.15224 3.24827 3.13032 3.27033 3.10834 3.2968C3.09958 3.3056 3.08643 3.3144 3.0776 3.3232C3.05568 3.34967 3.02932 3.37613 3.00296 3.40253C2.99857 3.4114 2.98981 3.4158 2.98536 3.4246C2.9503 3.45987 2.91955 3.49513 2.88442 3.5304L2.87127 3.5436C2.80102 3.61853 2.72638 3.69347 2.64735 3.7596C2.56946 3.82929 2.48733 3.89405 2.40145 3.95353C2.31632 4.01346 2.22843 4.06935 2.13808 4.121C2.0485 4.17037 1.95615 4.21451 1.8615 4.2532C1.76809 4.29301 1.67285 4.32831 1.57609 4.359C1.39174 4.39867 1.20288 4.4736 1.04052 4.4868C1.00532 4.4868 0.965879 4.4956 0.93075 4.5C0.89405 4.50836 0.857457 4.51718 0.82098 4.52647L0.715594 4.56613C0.680465 4.57933 0.645402 4.597 0.610273 4.6146C0.579527 4.6366 0.544398 4.65427 0.513652 4.67633C0.482906 4.69833 0.452227 4.7248 0.425863 4.75127C0.395117 4.77327 0.364371 4.80413 0.338074 4.8306C0.311711 4.86147 0.285348 4.88793 0.263434 4.91873C0.24152 4.954 0.215156 4.98487 0.197559 5.02007C0.175645 5.051 0.153664 5.0862 0.136066 5.12147C0.118535 5.16113 0.101004 5.1964 0.0877891 5.23613C0.0739416 5.27407 0.060769 5.31226 0.0482773 5.35067C0.0395117 5.38593 0.0307461 5.4212 0.0263633 5.45647C0.0263633 5.46087 0.0219141 5.46527 0.0219141 5.46967C0.0131484 5.50933 0.0131484 5.56227 0.00876562 5.58867C0.00438281 5.61953 0 5.646 0 5.6768C0 5.69447 0 5.71647 0.00438281 5.73413C0.00876562 5.765 0.0131484 5.79147 0.0219805 5.81787C0.0307461 5.84433 0.0395117 5.87073 0.0527266 5.8972V5.9016C0.065875 5.92807 0.0834062 5.95453 0.101004 5.98093C0.118535 6.0074 0.136133 6.03387 0.158113 6.06027C0.180027 6.08227 0.206324 6.1088 0.232688 6.1308C0.259051 6.15727 0.285414 6.17927 0.316094 6.20133C0.42148 6.29387 0.447844 6.32473 0.58391 6.39527C0.605824 6.40847 0.627805 6.41727 0.654168 6.43053C0.658551 6.43053 0.662934 6.43493 0.667316 6.43493C0.667316 6.44373 0.667316 6.44813 0.671766 6.45693C0.676148 6.49227 0.684914 6.52747 0.69368 6.56273C0.702445 6.6024 0.715594 6.63767 0.728809 6.66853C0.741957 6.695 0.750723 6.7214 0.763937 6.74787C0.76832 6.75667 0.772703 6.76553 0.777086 6.76987C0.794684 6.8052 0.812281 6.836 0.829812 6.86687L0.895621 6.9594C0.917535 6.98587 0.943898 7.01673 0.970262 7.0432C0.996625 7.06967 1.02299 7.09167 1.05367 7.11807C1.05367 7.11807 1.05812 7.12253 1.06243 7.12253C1.0888 7.14453 1.11516 7.16653 1.14146 7.1842C1.1722 7.2062 1.20295 7.22387 1.23808 7.24153C1.26882 7.25913 1.30395 7.2768 1.33902 7.29C1.36538 7.3032 1.39613 7.312 1.42687 7.32087C1.43125 7.32527 1.43564 7.32527 1.4444 7.32967C1.462 7.33407 1.48391 7.33847 1.50151 7.34287C1.4883 7.58087 1.48391 7.80567 1.51904 7.885C1.55855 7.97313 1.75173 7.70433 1.94491 7.3958C1.91861 7.69987 1.90108 8.05687 1.94491 8.16267C1.99318 8.27287 2.25662 7.92907 2.48492 7.55C5.59765 6.8272 8.43811 8.98687 8.73667 12.0369C8.67956 11.5609 8.09572 11.2964 7.8279 11.3625C7.69615 11.6887 7.4723 12.1074 7.11231 12.3674C7.14299 12.0765 7.12984 11.7768 7.06835 11.4859C6.97179 11.8914 6.783 12.2705 6.52395 12.5966C6.10692 12.6275 5.68989 12.4247 5.47028 12.1206C5.45275 12.1074 5.44837 12.0809 5.43522 12.0633C5.422 12.0325 5.40886 12.0016 5.40002 11.9707C5.38725 11.9412 5.3784 11.9101 5.37373 11.8782C5.36934 11.8473 5.36934 11.8165 5.36934 11.7812V11.7151C5.37373 11.6843 5.38249 11.6534 5.39126 11.6225C5.40002 11.5917 5.40886 11.5609 5.422 11.53C5.4396 11.4991 5.45275 11.4683 5.47466 11.4375C5.5493 11.2259 5.5493 11.054 5.41324 10.9526C5.38688 10.9353 5.35896 10.9206 5.32983 10.9086C5.31223 10.9041 5.29032 10.8953 5.27272 10.8909C5.25957 10.8865 5.25081 10.8821 5.23759 10.8777C5.20691 10.8689 5.17617 10.8601 5.14542 10.8557C5.11547 10.8469 5.08444 10.8425 5.05325 10.8424C5.0225 10.838 4.98737 10.8336 4.95663 10.8336C4.93471 10.8336 4.9128 10.838 4.89075 10.838C4.85569 10.838 4.82495 10.8425 4.7942 10.8513C4.76345 10.8557 4.73271 10.8601 4.70203 10.8689C4.67128 10.8777 4.64054 10.8865 4.60979 10.8997C4.57904 10.9129 4.55268 10.9262 4.522 10.9394C4.49564 10.9526 4.46934 10.9703 4.43859 10.9835C3.41567 11.6535 4.02588 13.2225 4.72394 13.6765C4.46051 13.7249 4.19269 13.7823 4.11812 13.8395L4.10935 13.8483C4.29808 13.963 4.49564 14.0599 4.70203 14.1437C4.98299 14.2362 5.28155 14.3199 5.41324 14.3552V14.3596C5.77698 14.4344 6.14892 14.4611 6.51957 14.4389C8.46447 14.3023 10.0582 12.817 10.3479 10.8601C10.3567 10.8997 10.3655 10.935 10.3742 10.9747C10.3874 11.054 10.405 11.1377 10.4138 11.2215V11.2259C10.4225 11.2656 10.4269 11.3053 10.4314 11.3405V11.3581C10.4357 11.3978 10.4401 11.4375 10.4401 11.4727C10.4445 11.5212 10.4489 11.5697 10.4489 11.6182V11.6887C10.4489 11.7107 10.4533 11.7372 10.4533 11.7592C10.4533 11.7857 10.4489 11.8121 10.4489 11.8385V11.9003C10.4489 11.9311 10.4445 11.9576 10.4445 11.9884C10.4445 12.0061 10.4445 12.0237 10.4401 12.0457C10.4401 12.0765 10.4357 12.1074 10.4357 12.1427C10.4313 12.1559 10.4313 12.1691 10.4313 12.1823C10.4269 12.2176 10.4225 12.2485 10.4181 12.2837C10.4181 12.2969 10.4181 12.3101 10.4137 12.3234C10.4093 12.3674 10.4005 12.4071 10.3962 12.4512V12.46C10.3874 12.4997 10.3786 12.5438 10.3698 12.5835V12.5967L10.3434 12.7157C10.3434 12.7201 10.3391 12.7289 10.3391 12.7333C10.3303 12.7729 10.3215 12.8126 10.3083 12.8523V12.8655C10.2952 12.9096 10.282 12.9493 10.2732 12.9889C10.2688 12.9933 10.2688 12.9977 10.2688 12.9977L10.2293 13.1299C10.2118 13.1741 10.1986 13.2137 10.181 13.2578C10.1635 13.3018 10.1503 13.3459 10.1327 13.3856C10.1151 13.4297 10.0975 13.4693 10.0801 13.5134H10.0756C10.0581 13.5531 10.0405 13.5971 10.0185 13.6368C10.015 13.6474 10.0106 13.6578 10.0054 13.6677C10.001 13.6721 10.001 13.6765 9.9966 13.6809C9.71125 14.2583 9.28977 14.7651 8.76297 15.1618C8.72777 15.1838 8.69271 15.2103 8.65758 15.2367C8.64882 15.2455 8.63567 15.25 8.62684 15.2587C8.59609 15.2808 8.56541 15.3029 8.53028 15.3249L8.54343 15.3513H8.54781L8.73222 15.3249H8.7366C8.85082 15.3073 8.96491 15.2852 9.07906 15.2632C9.10981 15.2588 9.14494 15.25 9.17562 15.2412C9.1976 15.2367 9.21513 15.2323 9.23711 15.2279C9.26785 15.2235 9.2986 15.2147 9.32928 15.2103C9.35564 15.2015 9.38201 15.1971 9.4083 15.1883C9.84738 15.0825 10.2732 14.937 10.6815 14.7651C9.98345 15.7215 9.04832 16.4929 7.95514 16.9997C8.46002 16.9645 8.96491 16.8807 9.45227 16.7397C11.2215 16.2152 12.7098 15.0208 13.6011 13.4121C13.4202 14.4326 13.0169 15.4003 12.42 16.2461C12.8455 15.9643 13.2387 15.6362 13.5922 15.2676C14.5757 14.2363 15.221 12.9272 15.4406 11.5212C15.5903 12.2187 15.6332 12.9351 15.5679 13.6457C18.7377 9.20727 15.8313 4.60587 14.6152 3.3938C14.6108 3.385 14.6065 3.3806 14.6065 3.3718C14.602 3.3762 14.602 3.3762 14.602 3.3806C14.602 3.37613 14.602 3.37613 14.5976 3.3718C14.5976 3.42467 14.5932 3.47753 14.5889 3.53047C14.5757 3.6318 14.5625 3.7288 14.545 3.8258C14.523 3.92273 14.4967 4.01967 14.4703 4.11667C14.4391 4.21208 14.4039 4.30616 14.3649 4.39867C14.3246 4.49001 14.2806 4.57973 14.2332 4.6676C14.185 4.75133 14.1323 4.83947 14.0752 4.9188C14.0187 5.00074 13.9587 5.08015 13.8952 5.1568C13.8293 5.23613 13.7591 5.30667 13.6889 5.3772C13.6475 5.41516 13.6051 5.45188 13.5616 5.48733C13.5264 5.5182 13.4957 5.54467 13.4605 5.57553C13.3815 5.6372 13.3025 5.69453 13.2147 5.7474C13.1313 5.80027 13.0434 5.8532 12.9557 5.89727C12.8634 5.94133 12.7712 5.981 12.6791 6.02067C12.5855 6.05608 12.4903 6.08696 12.3937 6.1132C12.2967 6.13945 12.1985 6.16152 12.0995 6.17933C11.9986 6.197 11.8977 6.2058 11.8011 6.2146C11.7308 6.219 11.6605 6.2234 11.5903 6.2234C11.4893 6.2234 11.3883 6.2146 11.2918 6.2058C11.1908 6.19693 11.0898 6.18373 10.9932 6.16167C10.8923 6.14407 10.7957 6.11767 10.699 6.0868H10.6947C10.7913 6.07793 10.8879 6.06913 10.9845 6.05147C11.0835 6.03411 11.1817 6.01207 11.2786 5.9854C11.3752 5.95916 11.4704 5.92828 11.5639 5.89287C11.6605 5.85753 11.7527 5.81353 11.8406 5.7694C11.9327 5.7254 12.0161 5.67687 12.1039 5.624C12.1873 5.56667 12.2708 5.50933 12.3498 5.44767C12.4285 5.3863 12.5033 5.32006 12.5737 5.24933C12.6483 5.1832 12.7142 5.10833 12.7801 5.03333C12.8443 4.95617 12.9057 4.87679 12.9644 4.79533C12.9732 4.78213 12.982 4.76453 12.9908 4.75133C13.0347 4.6808 13.0786 4.61027 13.1181 4.53973C13.1663 4.45232 13.2103 4.36259 13.2498 4.27087C13.2895 4.17866 13.3247 4.08454 13.3552 3.98887C13.3859 3.8962 13.4079 3.79927 13.4298 3.70233C13.4474 3.601 13.465 3.504 13.4737 3.407C13.4825 3.30567 13.4913 3.20433 13.4913 3.10733C13.4913 3.0368 13.4869 2.96627 13.4825 2.89573C13.4738 2.7944 13.4606 2.6974 13.4473 2.6004C13.4301 2.50099 13.4081 2.40246 13.3816 2.30513C13.3508 2.2126 13.3201 2.1156 13.285 2.02307C13.2498 1.93053 13.2059 1.83793 13.162 1.7498C13.1137 1.66167 13.0654 1.57347 13.0128 1.4898C12.9567 1.40719 12.8981 1.32633 12.8371 1.24733C12.771 1.17131 12.7037 1.09637 12.6352 1.02253C12.5982 0.984719 12.5601 0.947992 12.521 0.9124C12.3243 0.75906 12.1207 0.614907 11.9108 0.4804C11.8824 0.463937 11.8531 0.449242 11.823 0.4364C11.6781 0.3438 11.5421 0.295333 11.4059 0.251267" fill="#E0234E"/>
</svg>
