<svg width="24" height="15" viewBox="0 0 24 15" fill="none" xmlns="http://www.w3.org/2000/svg">
<path d="M21.4337 5.7356C21.424 5.73559 21.4145 5.73846 21.4065 5.74385L20.9666 6.00072C20.9583 6.00585 20.9515 6.01303 20.9469 6.02158C20.9422 6.03013 20.9398 6.03974 20.94 6.04947V6.56322C20.94 6.58497 20.9503 6.60147 20.9666 6.61235L21.4065 6.86885C21.4145 6.87425 21.424 6.87713 21.4337 6.87713C21.4434 6.87713 21.4528 6.87425 21.4609 6.86885L21.9 6.61235C21.9083 6.6071 21.9152 6.59983 21.92 6.5912C21.9247 6.58258 21.9272 6.57288 21.9272 6.56303V6.04985C21.9273 6.04006 21.9248 6.03041 21.9201 6.02186C21.9153 6.01331 21.9084 6.00615 21.9 6.0011L21.4607 5.74403C21.4527 5.73868 21.4433 5.73562 21.4337 5.7356ZM11.8538 8.8076C11.7737 8.8076 11.694 8.8271 11.6261 8.86535L9.46069 10.1267C9.3913 10.1674 9.33379 10.2256 9.29386 10.2955C9.25393 10.3653 9.23297 10.4444 9.23306 10.5249V13.0417C9.23306 13.2056 9.31969 13.3586 9.46069 13.4407L10.0307 13.7681C10.3074 13.9046 10.4051 13.9042 10.5298 13.9042C10.9367 13.9042 11.1701 13.6532 11.1701 13.2217V10.7383C11.1699 10.721 11.163 10.7045 11.1508 10.6922C11.1386 10.6799 11.1222 10.6729 11.1049 10.6725H10.8285C10.8112 10.6728 10.7946 10.6798 10.7824 10.6921C10.7701 10.7044 10.7631 10.7209 10.7629 10.7383V13.2223C10.7629 13.4133 10.5624 13.6048 10.2424 13.4411L9.65081 13.097C9.62906 13.0862 9.618 13.0584 9.618 13.0367V10.5193C9.618 10.4975 9.62906 10.4705 9.65081 10.4595L11.8155 9.20378C11.8318 9.19291 11.8592 9.19291 11.8809 9.20378L14.0462 10.4595C14.0678 10.4705 14.0784 10.4921 14.0784 10.5195V13.0365C14.0784 13.0637 14.0678 13.086 14.0462 13.0968L11.8809 14.3582C11.8646 14.369 11.8373 14.369 11.8155 14.3582L11.2622 14.0246C11.2459 14.0137 11.2241 14.0083 11.2078 14.0192C11.0559 14.1065 11.0293 14.118 10.8827 14.1671C10.8501 14.178 10.7959 14.1995 10.9043 14.2595L11.6261 14.6912C11.6966 14.7292 11.7724 14.751 11.8538 14.751C11.9351 14.751 12.0163 14.7294 12.0814 14.7022L14.2468 13.4409C14.3163 13.4001 14.3739 13.3418 14.4138 13.2718C14.4538 13.2018 14.4747 13.1225 14.4744 13.0419V10.5249C14.4744 10.361 14.3878 10.2086 14.2468 10.1267L12.0814 8.86535C12.0116 8.82709 11.9333 8.80722 11.8538 8.8076ZM15.2344 9.95697C15.1232 9.95742 15.0168 10.002 14.9385 10.0808C14.8602 10.1597 14.8165 10.2664 14.8168 10.3775C14.8165 10.4886 14.8603 10.5953 14.9386 10.6741C15.0169 10.7529 15.1233 10.7975 15.2344 10.7979C15.4626 10.7979 15.6521 10.6068 15.6521 10.3775C15.6515 10.2667 15.6074 10.1605 15.5293 10.0819C15.4511 10.0032 15.3452 9.95825 15.2344 9.95697ZM15.2288 10.028C15.275 10.0275 15.3208 10.0361 15.3637 10.0534C15.4066 10.0707 15.4456 10.0964 15.4784 10.1289C15.5113 10.1614 15.5373 10.2002 15.5551 10.2428C15.5728 10.2855 15.5819 10.3313 15.5818 10.3775C15.5818 10.5688 15.4243 10.7327 15.2289 10.7327C15.0392 10.7327 14.8817 10.574 14.8817 10.3775C14.8817 10.181 15.0444 10.028 15.2288 10.028ZM15.0771 10.1426V10.623H15.1697V10.4325H15.2511C15.2837 10.4325 15.2944 10.4433 15.2998 10.4705C15.2998 10.4762 15.3159 10.5962 15.3159 10.6179H15.4134C15.4026 10.5962 15.3971 10.5305 15.3917 10.4923C15.3864 10.4323 15.3812 10.3886 15.3159 10.3832C15.3486 10.3721 15.4028 10.3558 15.4028 10.2684C15.4028 10.1428 15.294 10.1428 15.24 10.1428L15.0771 10.1426ZM15.1586 10.2191H15.2344C15.2618 10.2191 15.3049 10.2191 15.3049 10.2845C15.3049 10.3063 15.2944 10.3503 15.2344 10.3503H15.1584L15.1586 10.2191ZM12.4455 10.596C11.8268 10.596 11.4578 10.8581 11.4578 11.3004C11.4578 11.7755 11.8268 11.906 12.4183 11.9662C13.1289 12.0373 13.1833 12.1412 13.1833 12.2831C13.1833 12.5287 12.9876 12.6326 12.5318 12.6326C11.9565 12.6326 11.8318 12.4905 11.7883 12.2012C11.7883 12.1683 11.7617 12.1468 11.7291 12.1468H11.4469C11.4296 12.147 11.4132 12.154 11.401 12.1662C11.3889 12.1784 11.382 12.195 11.382 12.2122C11.382 12.5835 11.5772 13.0203 12.5271 13.0203C13.2105 13.0203 13.6067 12.747 13.6067 12.2666C13.6067 11.7969 13.2917 11.6715 12.6246 11.5841C11.9514 11.4967 11.8811 11.4476 11.8811 11.2893C11.8811 11.1583 11.9408 10.9837 12.4399 10.9837C12.8848 10.9837 13.0528 11.0822 13.1181 11.3823C13.1213 11.3959 13.129 11.408 13.1398 11.4168C13.1506 11.4256 13.1639 11.4306 13.1779 11.4311H13.4653C13.4818 11.4311 13.4981 11.4204 13.5092 11.4095C13.519 11.3949 13.5246 11.3778 13.5251 11.3602C13.4818 10.8362 13.1402 10.596 12.4455 10.596Z" fill="#5FA04E"/>
<path d="M16.1385 1.41625e-05C16.1154 -0.000324953 16.0927 0.00543131 16.0725 0.0167018C16.0516 0.0289977 16.0341 0.0464417 16.0218 0.067378C16.0095 0.0883143 16.0028 0.112048 16.0022 0.136327V3.68551C16.0022 3.71814 15.9853 3.75114 15.9529 3.77289C15.9379 3.78093 15.9211 3.78514 15.9041 3.78514C15.8871 3.78514 15.8704 3.78093 15.8554 3.77289L15.2805 3.44008C15.2383 3.41597 15.1905 3.40329 15.1419 3.40329C15.0933 3.40329 15.0456 3.41597 15.0034 3.44008L12.7031 4.77789C12.6606 4.80189 12.6251 4.83671 12.6003 4.87882C12.5755 4.92093 12.5623 4.96884 12.5619 5.0177V7.6877C12.5619 7.78595 12.6163 7.87895 12.7031 7.92808L15.0038 9.26589C15.0459 9.28996 15.0937 9.30262 15.1422 9.30262C15.1908 9.30262 15.2385 9.28996 15.2807 9.26589L17.5811 7.92808C17.6679 7.87895 17.7223 7.78595 17.7223 7.6877V1.03201C17.7223 0.928327 17.6679 0.835139 17.5811 0.786202L16.2086 0.0167018C16.1869 0.00582129 16.1628 0.000109851 16.1385 1.41625e-05ZM2.56632 3.33114C2.52301 3.33114 2.4797 3.34689 2.44182 3.36864L0.141198 4.70158C0.0979597 4.72618 0.062076 4.76189 0.0372551 4.805C0.0124342 4.84812 -0.000423545 4.89708 1.06431e-05 4.94683L0.00563564 8.52845C0.00563564 8.57776 0.0324481 8.62689 0.0759481 8.64883C0.0961141 8.66205 0.119706 8.6691 0.143823 8.6691C0.16794 8.6691 0.191532 8.66205 0.211698 8.64883L1.57932 7.86264C1.66614 7.81351 1.71995 7.72051 1.71995 7.62226V5.94601C1.71995 5.84776 1.77432 5.75476 1.86132 5.70564L2.44182 5.3672C2.48514 5.33983 2.53426 5.32895 2.58301 5.32895C2.63176 5.32895 2.6807 5.33983 2.71876 5.3672L3.29926 5.70564C3.38607 5.75476 3.44045 5.84776 3.44045 5.94601V7.62226C3.44045 7.72051 3.49445 7.81351 3.58107 7.86264L4.93782 8.64883C4.95891 8.66228 4.9834 8.66943 5.00842 8.66943C5.03343 8.66943 5.05792 8.66228 5.07901 8.64883C5.10061 8.63708 5.11859 8.61966 5.13101 8.59845C5.14344 8.57724 5.14983 8.55303 5.14951 8.52845V4.94683C5.14951 4.84858 5.09514 4.75558 5.00814 4.70626L2.71314 3.36864C2.67447 3.34812 2.63219 3.33532 2.58864 3.33095L2.56632 3.33114ZM21.4414 3.37051C21.3939 3.37051 21.3469 3.38289 21.3034 3.40764L19.0024 4.7447C18.9156 4.79383 18.8618 4.88683 18.8618 4.98526V7.65526C18.8618 7.75351 18.9156 7.84651 19.0024 7.89564L21.2869 9.2057C21.328 9.22983 21.3749 9.24255 21.4225 9.24255C21.4702 9.24255 21.5171 9.22983 21.5582 9.2057L22.9419 8.43076C22.9635 8.419 22.9815 8.40157 22.9938 8.38035C23.0062 8.35914 23.0126 8.33495 23.0123 8.31039C23.0125 8.28589 23.0061 8.26178 22.9937 8.24064C22.9814 8.2195 22.9635 8.20213 22.9419 8.19039L20.6306 6.85239C20.6096 6.84004 20.5921 6.82251 20.5798 6.80147C20.5675 6.78043 20.5608 6.75658 20.5603 6.7322V5.8967C20.56 5.8722 20.5664 5.84809 20.5788 5.82695C20.5912 5.80581 20.6091 5.78844 20.6306 5.7767L21.3525 5.36158C21.3736 5.34812 21.3981 5.34098 21.4231 5.34098C21.4481 5.34098 21.4726 5.34812 21.4937 5.36158L22.2148 5.77651C22.2359 5.78879 22.2536 5.80629 22.266 5.82734C22.2784 5.84839 22.2852 5.87227 22.2857 5.8967V6.55201C22.2857 6.60133 22.3127 6.65045 22.356 6.6722C22.3771 6.68569 22.4016 6.69286 22.4267 6.69286C22.4517 6.69286 22.4763 6.68569 22.4974 6.6722L23.8644 5.8697C23.9064 5.84524 23.941 5.81007 23.9649 5.7678C23.9887 5.72553 24.0009 5.67767 24.0002 5.62914V4.97945C24.0002 4.8812 23.9458 4.78876 23.8644 4.73945L21.5799 3.40745C21.5378 3.38334 21.4901 3.37055 21.4416 3.37033L21.4414 3.37051ZM15.1419 5.36439C15.1541 5.36439 15.1665 5.3672 15.1776 5.37283L15.9639 5.83145C15.9857 5.84233 15.9968 5.86933 15.9968 5.89126V6.80851C15.9968 6.83589 15.9857 6.85801 15.9639 6.86889L15.1774 7.32751C15.1664 7.33291 15.1542 7.33572 15.1419 7.33572C15.1297 7.33572 15.1175 7.33291 15.1065 7.32751L14.3199 6.86889C14.2982 6.85801 14.2871 6.83045 14.2871 6.80851V5.89126C14.2871 5.86389 14.2984 5.84233 14.3199 5.83126L15.1065 5.37283C15.1175 5.36711 15.1296 5.36422 15.1419 5.36439Z" fill="#333333"/>
<path d="M8.99662 3.41794C8.95452 3.39373 8.90681 3.38098 8.85824 3.38098C8.80968 3.38098 8.76196 3.39373 8.71987 3.41794L6.43537 4.74488C6.3935 4.76931 6.35887 4.80442 6.33502 4.84662C6.31117 4.88882 6.29895 4.9366 6.29962 4.98507V7.64401C6.29962 7.74244 6.35399 7.83526 6.43537 7.88438L8.71987 9.21113C8.76196 9.23535 8.80968 9.24809 8.85824 9.24809C8.90681 9.24809 8.95452 9.23535 8.99662 9.21113L11.2809 7.88438C11.3677 7.83526 11.4167 7.74244 11.4167 7.64401V4.98507C11.4167 4.88682 11.3623 4.79382 11.2809 4.74488L8.99662 3.41794Z" fill="url(#paint0_linear_934_92)"/>
<path d="M11.2864 4.74487L8.9912 3.41793C8.96867 3.40652 8.94505 3.39741 8.9207 3.39075L6.34857 7.81875C6.37032 7.84612 6.39732 7.86787 6.42451 7.88437L8.71988 9.21112C8.78495 9.24937 8.86088 9.26025 8.93138 9.23831L11.3462 4.794C11.3303 4.77321 11.3099 4.75639 11.2864 4.74487Z" fill="url(#paint1_linear_934_92)"/>
<path d="M11.2864 7.88413C11.3516 7.84588 11.4004 7.78045 11.4221 7.70938L8.90961 3.38507C8.84474 3.3742 8.77405 3.37963 8.71443 3.41788L6.43536 4.7392L8.89349 9.24913C8.92593 9.24369 8.96399 9.23282 8.99661 9.21632L11.2864 7.88413Z" fill="url(#paint2_linear_934_92)"/>
<defs>
<linearGradient id="paint0_linear_934_92" x1="9.7885" y1="4.40601" x2="7.70221" y2="8.63561" gradientUnits="userSpaceOnUse">
<stop stop-color="#3F873F"/>
<stop offset="0.33" stop-color="#3F8B3D"/>
<stop offset="0.637" stop-color="#3E9638"/>
<stop offset="0.934" stop-color="#3DA92E"/>
<stop offset="1" stop-color="#3DAE2B"/>
</linearGradient>
<linearGradient id="paint1_linear_934_92" x1="8.51111" y1="6.62503" x2="14.3321" y2="2.35062" gradientUnits="userSpaceOnUse">
<stop offset="0.138" stop-color="#3F873F"/>
<stop offset="0.402" stop-color="#52A044"/>
<stop offset="0.713" stop-color="#64B749"/>
<stop offset="0.908" stop-color="#6ABF4B"/>
</linearGradient>
<linearGradient id="paint2_linear_934_92" x1="6.21605" y1="6.31357" x2="11.5021" y2="6.31357" gradientUnits="userSpaceOnUse">
<stop offset="0.092" stop-color="#6ABF4B"/>
<stop offset="0.287" stop-color="#64B749"/>
<stop offset="0.598" stop-color="#52A044"/>
<stop offset="0.862" stop-color="#3F873F"/>
</linearGradient>
</defs>
</svg>
