<svg width="16" height="9" viewBox="0 0 16 9" fill="none" xmlns="http://www.w3.org/2000/svg">
<path d="M8 0C3.58175 0 0 1.88437 0 4.2085C0 6.53262 3.58175 8.417 8 8.417C12.4181 8.417 16 6.53262 16 4.2085C16 1.88437 12.4183 0 8 0ZM7.25225 1.22625H8.16387V1.22662L7.94575 2.34762H8.75775C9.26875 2.34762 9.62117 2.43675 9.815 2.615C10.009 2.79333 10.0672 3.08208 9.98975 3.48125L9.60812 5.44375H8.68213L9.04488 3.57762C9.08613 3.36546 9.07092 3.22075 8.99925 3.1435C8.92758 3.06642 8.77517 3.02787 8.542 3.02787H7.8135L7.344 5.4435H6.43262L7.25225 1.22625ZM3.34125 2.34775H5.10787C5.63946 2.34775 6.02717 2.48725 6.271 2.76625C6.51475 3.04517 6.588 3.43458 6.49075 3.9345C6.45067 4.1405 6.38296 4.32883 6.28762 4.4995C6.19229 4.67017 6.06771 4.82621 5.91388 4.96762C5.73038 5.13929 5.52658 5.26163 5.3025 5.33463C5.07825 5.40763 4.7925 5.44408 4.44525 5.444H3.6585L3.44038 6.56525H2.52163L3.34125 2.34775ZM10.512 2.34775H12.2782C12.8097 2.34775 13.1974 2.48725 13.4411 2.76625H13.4414C13.6852 3.04517 13.7585 3.43458 13.6614 3.9345C13.6214 4.1405 13.5537 4.32883 13.4585 4.4995C13.3632 4.67017 13.2386 4.82621 13.0845 4.96762C12.9012 5.13929 12.6973 5.26163 12.4729 5.33463C12.2487 5.40763 11.9631 5.44408 11.616 5.444H10.8291L10.6111 6.56525H9.69238L10.512 2.34775ZM4.13062 3.01337L3.78787 4.77837H4.34637C4.71687 4.77846 4.99279 4.70875 5.17413 4.56925C5.35529 4.42967 5.47767 4.19667 5.54125 3.87025C5.60192 3.55675 5.57417 3.33554 5.458 3.20662C5.34183 3.07771 5.10917 3.01325 4.76 3.01325L4.13062 3.01337ZM11.301 3.01337L10.958 4.77837H11.5168C11.8873 4.77846 12.1632 4.70875 12.3445 4.56925C12.5256 4.42967 12.6479 4.19667 12.7114 3.87025C12.7722 3.55675 12.7445 3.33554 12.6284 3.20662C12.5122 3.07771 12.2795 3.01325 11.9304 3.01325L11.301 3.01337Z" fill="#6280B6"/>
</svg>
