<svg width="19" height="19" viewBox="0 0 19 19" fill="none" xmlns="http://www.w3.org/2000/svg">
<path d="M9.40879 0C4.59704 0 4.89747 2.09484 4.89747 2.09484L4.90282 4.26516H9.49458V4.91675H3.07904C3.07904 4.91675 0 4.56618 0 9.44024C0 14.3145 2.68746 14.1416 2.68746 14.1416H4.29133V11.8798C4.29133 11.8798 4.20486 9.18177 6.93589 9.18177H11.4901C11.4901 9.18177 14.0488 9.22327 14.0488 6.69918V2.52573C14.0488 2.52573 14.4374 0 9.40879 0ZM6.87689 1.4595C6.98539 1.4594 7.09285 1.48078 7.19312 1.52242C7.29339 1.56407 7.38449 1.62515 7.46121 1.70217C7.53794 1.7792 7.59878 1.87066 7.64026 1.97132C7.68174 2.07198 7.70304 2.17986 7.70294 2.28879C7.70304 2.39772 7.68174 2.50561 7.64026 2.60627C7.59878 2.70692 7.53794 2.79838 7.46121 2.87541C7.38449 2.95244 7.29339 3.01352 7.19312 3.05516C7.09285 3.0968 6.98539 3.11818 6.87689 3.11809C6.76838 3.11818 6.66092 3.0968 6.56065 3.05516C6.46039 3.01352 6.36929 2.95244 6.29256 2.87541C6.21583 2.79838 6.15499 2.70692 6.11351 2.60627C6.07203 2.50561 6.05073 2.39772 6.05083 2.28879C6.05073 2.17986 6.07203 2.07198 6.11351 1.97132C6.15499 1.87066 6.21583 1.7792 6.29256 1.70217C6.36929 1.62515 6.46039 1.56407 6.56065 1.52242C6.66092 1.48078 6.76838 1.4594 6.87689 1.4595Z" fill="url(#paint0_linear_934_89)"/>
<path d="M9.54542 18.9295C14.3572 18.9295 14.0567 16.8346 14.0567 16.8346L14.0514 14.6644H9.45955V14.0128H15.8751C15.8751 14.0128 18.9541 14.3633 18.9541 9.48914C18.9541 4.615 16.2667 4.78787 16.2667 4.78787H14.6628V7.04961C14.6628 7.04961 14.7493 9.74761 12.0182 9.74761H7.46403C7.46403 9.74761 4.90534 9.70611 4.90534 12.2303V16.4038C4.90534 16.4038 4.5168 18.9295 9.54534 18.9295M12.0772 17.4701C11.9687 17.4702 11.8613 17.4488 11.761 17.4072C11.6607 17.3655 11.5696 17.3045 11.4929 17.2274C11.4162 17.1504 11.3553 17.0589 11.3139 16.9583C11.2724 16.8576 11.2511 16.7497 11.2512 16.6408C11.2511 16.5319 11.2724 16.424 11.3138 16.3233C11.3553 16.2226 11.4162 16.1312 11.4929 16.0541C11.5696 15.9771 11.6607 15.916 11.761 15.8744C11.8613 15.8327 11.9687 15.8113 12.0772 15.8114C12.1857 15.8113 12.2932 15.8327 12.3935 15.8744C12.4937 15.916 12.5848 15.9771 12.6616 16.0541C12.7383 16.1311 12.7991 16.2226 12.8406 16.3233C12.8821 16.4239 12.9034 16.5318 12.9033 16.6407C12.9034 16.7497 12.8821 16.8576 12.8406 16.9582C12.7991 17.0589 12.7383 17.1503 12.6616 17.2274C12.5848 17.3044 12.4937 17.3655 12.3935 17.4071C12.2932 17.4487 12.1857 17.4702 12.0772 17.4701Z" fill="url(#paint1_linear_934_89)"/>
<defs>
<linearGradient id="paint0_linear_934_89" x1="182.149" y1="170.26" x2="1125.1" y2="1100.15" gradientUnits="userSpaceOnUse">
<stop stop-color="#387EB8"/>
<stop offset="1" stop-color="#366994"/>
</linearGradient>
<linearGradient id="paint1_linear_934_89" x1="273.757" y1="295.822" x2="1286.19" y2="1249.17" gradientUnits="userSpaceOnUse">
<stop stop-color="#FFE052"/>
<stop offset="1" stop-color="#FFC331"/>
</linearGradient>
</defs>
</svg>
