<svg width="16" height="14" viewBox="0 0 16 14" fill="none" xmlns="http://www.w3.org/2000/svg">
<path d="M7.82499 8.4125C8.612 8.4125 9.24999 7.77451 9.24999 6.9875C9.24999 6.20049 8.612 5.5625 7.82499 5.5625C7.03799 5.5625 6.39999 6.20049 6.39999 6.9875C6.39999 7.77451 7.03799 8.4125 7.82499 8.4125Z" fill="#61DAFB"/>
<path d="M13.2375 4.6375C12.9625 4.5375 12.675 4.4375 12.375 4.35C12.45 4.05 12.5125 3.75 12.5625 3.4625C12.825 1.8125 12.5375 0.65 11.7375 0.2C11.5 0.0624999 11.2375 0 10.9375 0C10.0625 0 8.95 0.65 7.825 1.7375C6.7 0.65 5.5875 0 4.7125 0C4.4125 0 4.15 0.0624999 3.9125 0.2C3.1125 0.6625 2.825 1.825 3.0875 3.4625C3.1375 3.75 3.2 4.05 3.275 4.35C2.975 4.4375 2.6875 4.525 2.4125 4.6375C0.85 5.2375 0 6.0625 0 6.9875C0 7.9125 0.8625 8.7375 2.4125 9.3375C2.6875 9.4375 2.975 9.5375 3.275 9.625C3.2 9.925 3.1375 10.225 3.0875 10.5125C2.825 12.1625 3.1125 13.325 3.9125 13.775C4.15 13.9125 4.4125 13.975 4.7125 13.975C5.6 13.975 6.7125 13.325 7.825 12.2375C8.95 13.325 10.0625 13.975 10.9375 13.975C11.2375 13.975 11.5 13.9125 11.7375 13.775C12.5375 13.3125 12.825 12.15 12.5625 10.5125C12.5125 10.225 12.45 9.925 12.375 9.625C12.675 9.5375 12.9625 9.45 13.2375 9.3375C14.8 8.7375 15.65 7.9125 15.65 6.9875C15.65 6.0625 14.8 5.2375 13.2375 4.6375ZM11.3875 0.825C11.9 1.125 12.075 2.05 11.8625 3.3625C11.825 3.625 11.7625 3.9 11.6875 4.1875C11.0375 4.0375 10.35 3.9375 9.625 3.875C9.2 3.275 8.7625 2.7375 8.325 2.25C9.25 1.3375 10.1875 0.7125 10.95 0.7125C11.1125 0.7125 11.2625 0.75 11.3875 0.825ZM9.9875 8.2375C9.7625 8.6375 9.5 9.0375 9.225 9.4375C8.7625 9.475 8.3 9.4875 7.825 9.4875C7.3375 9.4875 6.875 9.475 6.425 9.4375C6.15 9.0375 5.9 8.6375 5.675 8.2375C5.4375 7.825 5.2125 7.4 5.0125 6.9875C5.2125 6.575 5.4375 6.15 5.675 5.7375C5.9 5.3375 6.1625 4.9375 6.4375 4.5375C6.9 4.5 7.3625 4.4875 7.8375 4.4875C8.325 4.4875 8.7875 4.5 9.2375 4.5375C9.5125 4.9375 9.7625 5.3375 9.9875 5.7375C10.225 6.15 10.45 6.575 10.65 6.9875C10.4375 7.4 10.225 7.8125 9.9875 8.2375ZM11.025 7.825C11.2125 8.2625 11.3625 8.6875 11.5 9.1125C11.075 9.2125 10.625 9.2875 10.15 9.35C10.3 9.1125 10.4625 8.8625 10.6 8.6C10.75 8.3375 10.8875 8.075 11.025 7.825ZM7.825 11.2125C7.525 10.8875 7.2375 10.5375 6.9625 10.175C7.25 10.1875 7.5375 10.2 7.825 10.2C8.1125 10.2 8.4 10.1875 8.6875 10.175C8.4125 10.5375 8.125 10.8875 7.825 11.2125ZM5.5 9.3375C5.025 9.275 4.575 9.2 4.15 9.1C4.2875 8.6875 4.4375 8.25 4.625 7.8125C4.7625 8.0625 4.9 8.325 5.05 8.575C5.2 8.85 5.35 9.0875 5.5 9.3375ZM4.625 6.15C4.4375 5.7125 4.2875 5.2875 4.15 4.8625C4.575 4.7625 5.025 4.6875 5.5 4.625C5.35 4.8625 5.1875 5.1125 5.05 5.375C4.9 5.6375 4.7625 5.9 4.625 6.15ZM7.825 2.7625C8.125 3.0875 8.4125 3.4375 8.6875 3.8C8.4 3.7875 8.1125 3.775 7.825 3.775C7.5375 3.775 7.25 3.7875 6.9625 3.8C7.2375 3.4375 7.525 3.0875 7.825 2.7625ZM10.6 5.3875L10.15 4.6375C10.625 4.7 11.075 4.775 11.5 4.875C11.3625 5.2875 11.2125 5.725 11.025 6.1625C10.8875 5.9 10.75 5.6375 10.6 5.3875ZM3.7875 3.3625C3.575 2.05 3.75 1.125 4.2625 0.825C4.3875 0.75 4.5375 0.7125 4.7 0.7125C5.45 0.7125 6.3875 1.325 7.325 2.25C6.8875 2.725 6.45 3.275 6.025 3.875C5.3 3.9375 4.6125 4.05 3.9625 4.1875C3.8875 3.9 3.8375 3.625 3.7875 3.3625ZM0.7 6.9875C0.7 6.4 1.4125 5.775 2.6625 5.3125C2.9125 5.2125 3.1875 5.125 3.4625 5.05C3.6625 5.675 3.9125 6.3375 4.2125 7C3.9125 7.6625 3.65 8.3125 3.4625 8.9375C1.7375 8.4375 0.7 7.6875 0.7 6.9875ZM4.2625 13.15C3.75 12.85 3.575 11.925 3.7875 10.6125C3.825 10.35 3.8875 10.075 3.9625 9.7875C4.6125 9.9375 5.3 10.0375 6.025 10.1C6.45 10.7 6.8875 11.2375 7.325 11.725C6.4 12.6375 5.4625 13.2625 4.7 13.2625C4.5375 13.2625 4.3875 13.225 4.2625 13.15ZM11.8625 10.6125C12.075 11.925 11.9 12.85 11.3875 13.15C11.2625 13.225 11.1125 13.2625 10.95 13.2625C10.2 13.2625 9.2625 12.65 8.325 11.725C8.7625 11.25 9.2 10.7 9.625 10.1C10.35 10.0375 11.0375 9.925 11.6875 9.7875C11.7625 10.075 11.8125 10.35 11.8625 10.6125ZM12.9875 8.6625C12.7375 8.7625 12.4625 8.85 12.1875 8.925C11.9875 8.3 11.7375 7.6375 11.4375 6.975C11.7375 6.3125 12 5.6625 12.1875 5.0375C13.9125 5.5375 14.95 6.2875 14.95 6.9875C14.95 7.575 14.225 8.2 12.9875 8.6625Z" fill="#61DAFB"/>
</svg>
