<svg width="22" height="20" viewBox="0 0 22 20" fill="none" xmlns="http://www.w3.org/2000/svg">
<path d="M13.5765 12.3904L13.1545 13.1319C13.092 13.2416 13.0021 13.3327 12.8937 13.3961C12.7854 13.4594 12.6624 13.4928 12.5373 13.4928H9.30451C9.17936 13.4928 9.05643 13.4594 8.94808 13.3961C8.83973 13.3327 8.74978 13.2416 8.6873 13.1319L8.26526 12.3904H13.5765ZM14.7578 10.3147L14.0138 11.622H7.82801L7.08397 10.3147H14.7578ZM14.0411 8.28499L14.759 9.54638H7.08276L7.80069 8.28499H14.0411ZM12.5372 6.36621C12.6624 6.36621 12.7853 6.39957 12.8937 6.46294C13.0021 6.5263 13.092 6.61744 13.1545 6.72717L13.6038 7.51665H8.23802L8.68739 6.72717C8.74987 6.61745 8.83981 6.52632 8.94816 6.46296C9.05651 6.39959 9.17945 6.36622 9.30459 6.36621H12.5372Z" fill="#00435B"/>
<path d="M4.59964 6.02193C4.24154 4.26489 4.16462 2.91724 4.39614 1.93872C4.53381 1.35672 4.78543 0.881934 5.1682 0.539326C5.57228 0.177674 6.08309 0.000195271 6.65715 0.000195271C7.60401 0.000195271 8.59951 0.437152 9.66325 1.26715C10.0972 1.60576 10.5475 2.01385 11.0152 2.49167C11.0525 2.44324 11.0945 2.3975 11.1415 2.35515C12.4637 1.16298 13.5769 0.422108 14.5291 0.136543C15.0953 -0.0333699 15.6268 -0.0495439 16.1108 0.115326C16.6218 0.289239 17.0289 0.648978 17.3162 1.15272C17.7902 1.98411 17.9151 3.07654 17.7384 4.4255C17.6664 4.97533 17.5433 5.5742 17.3693 6.22315C17.4349 6.23115 17.5007 6.24593 17.5659 6.26776C19.2435 6.83037 20.4315 7.43524 21.1507 8.12663C21.5787 8.53793 21.858 8.99585 21.9591 9.5028C22.0657 10.0378 21.9617 10.5745 21.6748 11.0778C21.2016 11.9081 20.3316 12.5628 19.0922 13.0814C18.5946 13.2897 18.0315 13.4783 17.4023 13.6479C17.4311 13.7135 17.4534 13.7832 17.4683 13.8562C17.8264 15.6132 17.9032 16.9609 17.6718 17.9394C17.5341 18.5214 17.2824 18.9962 16.8996 19.3388C16.4956 19.7005 15.9847 19.8779 15.4107 19.8779C14.4638 19.8779 13.4684 19.441 12.4047 18.611C11.966 18.2687 11.5107 17.8556 11.0376 17.3712C10.9879 17.4499 10.9276 17.5214 10.8586 17.5835C9.53632 18.7758 8.42308 19.5165 7.47089 19.8022C6.90474 19.9721 6.37321 19.9883 5.88921 19.8234C5.37823 19.6495 4.97114 19.2898 4.68386 18.786C4.20982 17.9546 4.08487 16.8622 4.26156 15.5132C4.33624 14.9436 4.46575 14.3212 4.64982 13.645C4.57645 13.6375 4.50411 13.6218 4.43412 13.5983C2.75654 13.0357 1.56854 12.4308 0.849324 11.7394C0.421356 11.3281 0.141973 10.8702 0.0409103 10.3632C-0.0656522 9.8282 0.0383321 9.2915 0.325192 8.78811C0.798363 7.95793 1.66839 7.30315 2.90779 6.78463C3.42023 6.57011 4.00211 6.37654 4.65404 6.20298C4.63052 6.14442 4.61231 6.08382 4.59964 6.02193Z" fill="#002B3B"/>
<path d="M16.2978 14.0292C16.3779 14.0149 16.4604 14.0322 16.5281 14.0777C16.5959 14.1232 16.6437 14.1933 16.6618 14.2736L16.6638 14.2833L16.6815 14.3768C17.2582 17.4443 16.852 18.9781 15.463 18.9781C14.104 18.9781 12.374 17.6693 10.273 15.0518C10.2357 15.0052 10.212 14.949 10.2047 14.8896C10.1973 14.8301 10.2066 14.7698 10.2315 14.7154C10.2563 14.661 10.2957 14.6147 10.3453 14.5819C10.3948 14.5491 10.4525 14.5309 10.5117 14.5296H10.5215L10.6321 14.5304C11.5163 14.5352 12.3758 14.504 13.2106 14.4368C14.196 14.3574 15.2251 14.2215 16.2978 14.0292ZM6.75869 11.7104L6.76402 11.7196L6.81953 11.8176C7.2644 12.6002 7.72789 13.343 8.21 14.046C8.77788 14.8738 9.41639 15.7119 10.1255 16.5603C10.1782 16.6232 10.2048 16.7043 10.1999 16.7866C10.1949 16.8689 10.1588 16.9461 10.099 17.0022L10.091 17.0094L10.0197 17.0716C7.67301 19.1061 6.14779 19.5123 5.44402 18.29C4.75509 17.0937 5.00485 14.9184 6.19331 11.7642C6.21435 11.7083 6.25043 11.6595 6.29747 11.6233C6.34451 11.5871 6.40063 11.5649 6.45948 11.5593C6.51832 11.5538 6.57753 11.5649 6.63041 11.5916C6.68329 11.6184 6.72773 11.6595 6.75869 11.7104ZM17.4886 7.18401L17.4982 7.18723L17.5866 7.21801C20.4831 8.23761 21.5835 9.35804 20.8879 10.5793C20.2076 11.7738 18.2299 12.6435 14.9547 13.1884C14.8954 13.1982 14.8344 13.1908 14.7791 13.1669C14.7238 13.143 14.6763 13.1037 14.6423 13.0535C14.6083 13.0033 14.5891 12.9443 14.587 12.8835C14.5849 12.8227 14.6 12.7625 14.6305 12.71C15.0996 11.9026 15.5221 11.0992 15.898 10.2998C16.3242 9.39329 16.7243 8.42024 17.0981 7.38071C17.1252 7.30515 17.1795 7.24269 17.25 7.20572C17.3206 7.16875 17.4023 7.15998 17.479 7.18114L17.4886 7.18401ZM7.25713 6.67071C7.29297 6.69201 7.32432 6.72025 7.34938 6.75382C7.37444 6.78738 7.39272 6.82561 7.40317 6.86633C7.41363 6.90704 7.41605 6.94944 7.41031 6.9911C7.40457 7.03277 7.39077 7.07288 7.3697 7.10914C6.90049 7.91651 6.47796 8.7199 6.10213 9.51932C5.67588 10.4258 5.27584 11.3989 4.90201 12.4384C4.87425 12.5156 4.81825 12.5791 4.74558 12.6157C4.67291 12.6523 4.58911 12.6593 4.51151 12.6351L4.50188 12.6319L4.41354 12.6011C1.51705 11.5815 0.416588 10.4611 1.11217 9.23984C1.79245 8.04535 3.77018 7.17564 7.04538 6.63071C7.11842 6.61853 7.19336 6.63271 7.25713 6.67071ZM16.5561 1.64906C17.245 2.8454 16.9952 5.02071 15.8068 8.17497C15.7857 8.23085 15.7497 8.27966 15.7026 8.31586C15.6556 8.35206 15.5995 8.37422 15.5406 8.37981C15.4818 8.3854 15.4226 8.37421 15.3697 8.34751C15.3168 8.3208 15.2724 8.27965 15.2414 8.22871L15.2361 8.21958L15.1806 8.12158C14.7357 7.33897 14.2722 6.59616 13.7901 5.89314C13.2222 5.06532 12.5837 4.22723 11.8745 3.37888C11.8219 3.31592 11.7953 3.23485 11.8002 3.15254C11.8052 3.07022 11.8413 2.99301 11.9011 2.93697L11.9091 2.92975L11.9804 2.86758C14.3271 0.833084 15.8523 0.426911 16.5561 1.64906ZM6.65591 0.921143C8.01492 0.921143 9.7449 2.2299 11.8458 4.8474C11.8832 4.89393 11.9069 4.95011 11.9142 5.00957C11.9215 5.06903 11.9123 5.12938 11.8874 5.18377C11.8625 5.23816 11.8231 5.28441 11.7736 5.31725C11.724 5.3501 11.6664 5.36823 11.6072 5.36958H11.5974L11.4867 5.36888C10.6026 5.36401 9.74318 5.3952 8.90833 5.46245C7.9228 5.54187 6.8937 5.67772 5.82103 5.87001C5.74097 5.88435 5.65853 5.86697 5.5908 5.82148C5.52306 5.77599 5.47521 5.70588 5.45717 5.62566L5.4551 5.61584L5.43731 5.52245C4.86062 2.45491 5.26681 0.921143 6.65591 0.921143Z" fill="#FF4154"/>
<path d="M9.56446 6.40637H12.278C12.473 6.40636 12.6645 6.45842 12.8332 6.55728C13.0019 6.65614 13.1419 6.79831 13.2389 6.96942L14.6014 9.37168C14.6978 9.54149 14.7485 9.73388 14.7485 9.92968C14.7485 10.1255 14.6978 10.3179 14.6014 10.4877L13.2389 12.8899C13.1419 13.061 13.0019 13.2032 12.8332 13.3021C12.6645 13.4009 12.473 13.453 12.278 13.453H9.56446C9.16761 13.453 8.80108 13.2382 8.60351 12.8899L7.24114 10.4877C7.14481 10.3179 7.09412 10.1255 7.09412 9.92968C7.09412 9.73388 7.14481 9.54149 7.24114 9.37168L8.6036 6.96942C8.70063 6.79829 8.84058 6.65612 9.00931 6.55726C9.17804 6.4584 9.36949 6.40635 9.56446 6.40637ZM11.8645 7.13142C12.2615 7.13142 12.6283 7.34646 12.8257 7.69498L13.7758 9.3722C13.872 9.54189 13.9226 9.73408 13.9226 9.92968C13.9226 10.1253 13.872 10.3175 13.7758 10.4872L12.8257 12.1644C12.7287 12.3356 12.5887 12.4779 12.42 12.5768C12.2512 12.6758 12.0596 12.7279 11.8645 12.7279H9.97817C9.58114 12.7279 9.21436 12.5129 9.01696 12.1644L8.06683 10.4872C7.97069 10.3175 7.9201 10.1253 7.9201 9.92968C7.9201 9.73408 7.97069 9.54189 8.06683 9.3722L9.01696 7.69498C9.11395 7.52375 9.25391 7.38148 9.42267 7.28253C9.59144 7.18359 9.78303 7.13149 9.97808 7.1315L11.8645 7.13142ZM11.4187 7.92446H10.4239C10.229 7.92444 10.0376 7.97644 9.86891 8.07522C9.70023 8.174 9.5603 8.31607 9.46323 8.48707L8.96118 9.37115C8.86466 9.54109 8.81386 9.73367 8.81386 9.92968C8.81386 10.1257 8.86466 10.3183 8.96118 10.4882L9.46323 11.3724C9.5603 11.5434 9.70023 11.6854 9.86891 11.7842C10.0376 11.883 10.229 11.935 10.4239 11.935H11.4187C11.8154 11.935 12.1819 11.7204 12.3794 11.3724L12.8815 10.4882C12.978 10.3183 13.0288 10.1257 13.0288 9.92968C13.0288 9.73367 12.978 9.54109 12.8815 9.37115L12.3794 8.48698C12.2824 8.31598 12.1424 8.17392 11.9738 8.07513C11.8051 7.97635 11.6136 7.92444 11.4187 7.92446ZM10.9896 8.68342C11.3859 8.68342 11.7521 8.89768 11.9497 9.24515L12.021 9.37037C12.1178 9.54048 12.1687 9.73331 12.1687 9.92959C12.1687 10.1259 12.1178 10.3187 12.021 10.4888L11.9497 10.614C11.8526 10.7848 11.7127 10.9266 11.5441 11.0252C11.3756 11.1239 11.1843 11.1758 10.9896 11.1758H10.8531C10.6584 11.1758 10.4671 11.1239 10.2985 11.0252C10.13 10.9266 9.99005 10.7848 9.89292 10.614L9.82168 10.4888C9.7249 10.3187 9.67396 10.1259 9.67396 9.92959C9.67396 9.73331 9.7249 9.54048 9.82168 9.37037L9.89292 9.24515C9.99005 9.07439 10.13 8.93255 10.2985 8.83393C10.4671 8.73531 10.6584 8.6834 10.8531 8.68342H10.9896ZM10.9215 9.43115C10.835 9.43113 10.7499 9.45415 10.675 9.4979C10.6 9.54164 10.5377 9.60457 10.4944 9.68037C10.4511 9.75614 10.4284 9.84209 10.4284 9.92959C10.4284 10.0171 10.4511 10.103 10.4944 10.1788C10.5377 10.2546 10.5999 10.3176 10.6749 10.3614C10.7498 10.4051 10.8348 10.4282 10.9214 10.4282C11.0079 10.4282 11.0929 10.4051 11.1679 10.3614C11.2428 10.3176 11.3051 10.2546 11.3484 10.1788C11.3916 10.103 11.4144 10.0171 11.4144 9.92959C11.4144 9.84209 11.3916 9.75614 11.3484 9.68037C11.305 9.60461 11.2428 9.5417 11.1679 9.49796C11.093 9.45422 11.008 9.43118 10.9215 9.43115ZM6.92464 9.92959H7.81151Z" fill="#FFD94C"/>
</svg>
