<svg width="16" height="16" viewBox="0 0 16 16" fill="none" xmlns="http://www.w3.org/2000/svg">
<path d="M11.0859 10.6088C9.96091 12.9088 7.99091 14.4563 5.38466 14.965C4.98505 15.0629 4.57482 15.1108 4.16341 15.1075C2.66341 15.1075 1.28841 14.4825 0.620906 13.4588C-0.275344 12.095 -0.580343 9.20375 2.37466 7.065C2.43466 7.39125 2.55716 7.83875 2.63841 8.10375C2.05832 8.53471 1.5835 9.09159 1.24966 9.7325C0.699656 10.8125 0.760906 11.8913 1.41216 12.8888C1.86216 13.5613 2.57466 13.97 3.49091 14.095C4.63533 14.2399 5.79632 14.0212 6.80966 13.47C8.39841 12.635 9.45716 11.6375 10.1497 10.2738C9.95384 10.0714 9.83794 9.80496 9.82341 9.52375C9.81294 9.22198 9.92262 8.92839 10.1284 8.7074C10.3341 8.48641 10.6192 8.35608 10.9209 8.345H10.9634C11.2569 8.34353 11.5397 8.45494 11.7534 8.65619C11.967 8.85743 12.0951 9.1331 12.1112 9.42616C12.1272 9.71922 12.03 10.0072 11.8396 10.2306C11.6493 10.454 11.3803 10.5956 11.0884 10.6263L11.0859 10.6088ZM14.6697 8.08375C16.1959 9.81375 16.2372 11.85 15.6472 13.0312C15.0972 14.11 13.6472 15.19 11.6972 15.19C10.7869 15.1714 9.89139 14.956 9.07216 14.5588C9.35841 14.355 9.76466 14.0287 9.98841 13.825C10.6201 14.0988 11.3 14.2441 11.9884 14.2525C13.2509 14.2525 14.2072 13.6625 14.7772 12.5838C15.1434 11.8713 15.1647 11.0363 14.8184 10.1813C14.3936 9.10544 13.6376 8.19267 12.6597 7.575C11.3767 6.71018 9.86434 6.24915 8.31716 6.25125H7.95091C7.8655 6.44853 7.72657 6.61796 7.54983 6.74035C7.3731 6.86274 7.16562 6.9332 6.95091 6.94375H6.91216C6.61518 6.9401 6.33132 6.82082 6.12087 6.61124C5.91043 6.40167 5.78997 6.11831 5.78509 5.82134C5.78021 5.52438 5.89128 5.23721 6.09473 5.02083C6.29817 4.80445 6.57796 4.67591 6.87466 4.6625H6.91591C7.12266 4.66265 7.32538 4.71979 7.50179 4.82762C7.6782 4.93545 7.82149 5.08981 7.91591 5.27375H8.24216C10.8422 5.27375 13.1247 6.27125 14.6697 8.08375ZM4.32591 10.9588C4.3044 10.7512 4.35469 10.5425 4.46841 10.3675C3.32841 8.3925 2.71841 5.88875 3.65466 3.2825C4.32591 1.32375 6.01591 0 7.84841 0C9.80341 0 11.8397 1.71125 12.0834 5.00875C11.7784 4.9075 11.3334 4.75875 11.0659 4.70375C10.9997 3.625 10.0884 0.9375 7.92966 0.9775C7.15591 0.99875 6.01591 1.365 5.42966 2.1175C4.70456 3.01582 4.28271 4.12077 4.22466 5.27375C4.08716 6.85473 4.45809 8.4383 5.28341 9.79375C5.32896 9.7771 5.37753 9.77029 5.42591 9.77375H5.46591C5.76825 9.76828 6.06039 9.88314 6.27805 10.0931C6.49571 10.303 6.62106 10.5908 6.62653 10.8931C6.632 11.1955 6.51714 11.4876 6.30722 11.7053C6.09729 11.9229 5.8095 12.0483 5.50716 12.0538H5.46591C5.17094 12.0527 4.88777 11.9379 4.67539 11.7332C4.46301 11.5285 4.33782 11.2497 4.32591 10.955V10.9588Z" fill="#764ABC"/>
</svg>
