<svg width="12" height="14" viewBox="0 0 12 14" fill="none" xmlns="http://www.w3.org/2000/svg">
<path d="M5.96642 8.35155C5.72592 8.46205 5.46242 8.60605 4.93492 8.89555C4.73492 9.00805 4.52592 9.12055 4.33142 9.22655C4.31792 9.21305 4.30392 9.19605 4.29042 9.18205C3.24692 8.06705 1.31692 7.27955 1.39892 5.78205C1.42942 5.23655 1.61692 3.80455 5.10542 2.06555C7.97642 0.65055 10.2609 1.04255 10.6554 1.91205C11.2224 3.15155 9.43092 5.45805 6.46592 5.79255C6.13777 5.85907 5.79886 5.85102 5.47423 5.76897C5.14961 5.68693 4.84757 5.533 4.59042 5.31855C4.43342 5.14805 4.40992 5.13805 4.35192 5.17205C4.25642 5.22205 4.31792 5.37655 4.35192 5.46505C4.46502 5.66982 4.61803 5.84984 4.8019 5.99446C4.98577 6.13909 5.19677 6.24538 5.42242 6.30705C6.58923 6.55925 7.80577 6.43875 8.90042 5.96255C10.6974 5.26705 12.1004 3.33355 11.6894 1.71255C11.2769 0.0690496 8.54892 -0.47295 5.96792 0.44405C4.35156 0.988746 2.85819 1.8462 1.57292 2.96755C0.150923 4.29755 -0.0740764 5.45355 0.0179236 5.93755C0.348924 7.65605 2.71792 8.77455 3.66792 9.60305C3.61859 9.62972 3.57542 9.65355 3.53842 9.67455C3.06442 9.91005 1.25742 10.8545 0.806924 11.8535C0.295424 12.9855 0.888924 13.797 1.28092 13.906C1.87167 14.0477 2.49191 14.0013 3.05497 13.7732C3.61803 13.5451 4.09577 13.1469 4.42142 12.634C4.69806 12.2089 4.86793 11.7232 4.91659 11.2183C4.96526 10.7134 4.89127 10.2042 4.70092 9.73405C4.81318 9.64441 4.93296 9.56462 5.05892 9.49555C5.30092 9.35255 5.53142 9.21155 5.73592 9.10255C6.43625 8.77497 7.20028 8.60612 7.97342 8.60805C9.59642 8.79905 9.91692 9.81155 9.85542 10.238C9.82656 10.3893 9.76567 10.5327 9.67685 10.6585C9.58802 10.7843 9.47332 10.8897 9.34042 10.9675C9.22792 11.039 9.19042 11.063 9.20042 11.114C9.21392 11.189 9.26842 11.1855 9.36392 11.172C9.60777 11.095 9.8226 10.946 9.98019 10.7445C10.1378 10.5431 10.2308 10.2988 10.2469 10.0435C10.2969 9.04355 9.34342 7.94655 7.65542 7.95655C7.15004 7.95802 6.64977 8.0577 6.18242 8.25005C6.10742 8.28105 6.03459 8.31438 5.96392 8.35005L5.96642 8.35155ZM3.55392 12.271C3.01492 12.8575 2.26492 13.0791 1.94092 12.8916C1.59092 12.6916 1.72942 11.824 2.39092 11.2035C2.78238 10.8502 3.20587 10.534 3.65592 10.259C3.73442 10.209 3.85042 10.143 3.98992 10.059L4.02742 10.0385L4.10942 9.98855C4.2273 10.3841 4.23798 10.8039 4.14037 11.2049C4.04277 11.606 3.84039 11.9739 3.55392 12.271Z" fill="#CD6799"/>
</svg>
