<svg width="18" height="11" viewBox="0 0 18 11" fill="none" xmlns="http://www.w3.org/2000/svg">
<path d="M9 0C6.6 0 5.1 1.21905 4.5 3.65714C5.4 2.4381 6.45 1.98095 7.65 2.28571C8.33463 2.45957 8.82401 2.96421 9.3657 3.52271C10.2481 4.43264 11.2693 5.48571 13.5 5.48571C15.9 5.48571 17.4 4.26667 18 1.82857C17.1 3.04762 16.05 3.50476 14.85 3.2C14.1654 3.02614 13.676 2.5215 13.1343 1.963C12.2519 1.05307 11.2307 0 9 0ZM4.5 5.48571C2.1 5.48571 0.6 6.70476 0 9.14286C0.9 7.92381 1.95 7.46667 3.15 7.77143C3.83463 7.94529 4.32401 8.44993 4.8657 9.00843C5.74812 9.91836 6.76934 10.9714 9 10.9714C11.4 10.9714 12.9 9.75238 13.5 7.31429C12.6 8.53333 11.55 8.99048 10.35 8.68571C9.66537 8.51186 9.17599 8.00721 8.6343 7.44871C7.75188 6.53879 6.73066 5.48571 4.5 5.48571Z" fill="url(#paint0_linear_931_28)"/>
<defs>
<linearGradient id="paint0_linear_931_28" x1="-50.004" y1="351.086" x2="1516.71" y2="1240.31" gradientUnits="userSpaceOnUse">
<stop stop-color="#2298BD"/>
<stop offset="1" stop-color="#0ED7B5"/>
</linearGradient>
</defs>
</svg>
