<svg width="14" height="14" viewBox="0 0 14 14" fill="none" xmlns="http://www.w3.org/2000/svg">
<path d="M13.344 0H0.656C0.293701 0 0 0.293701 0 0.656V13.344C0 13.7063 0.293701 14 0.656 14H13.344C13.7063 14 14 13.7063 14 13.344V0.656C14 0.293701 13.7063 0 13.344 0Z" fill="#3178C6"/>
<path fill-rule="evenodd" clip-rule="evenodd" d="M8.12249 10.8796V12.4136C8.40123 12.5511 8.69826 12.6479 9.00449 12.7011C9.35841 12.7663 9.71762 12.7984 10.0775 12.7971C10.4282 12.7986 10.7782 12.7632 11.1215 12.6916C11.4298 12.6294 11.7239 12.5107 11.989 12.3416C12.2352 12.1827 12.4381 11.9652 12.5795 11.7086C12.8327 11.1772 12.8662 10.5674 12.6725 10.0116C12.5908 9.80365 12.469 9.61386 12.314 9.45306C12.1478 9.28182 11.9589 9.13427 11.7525 9.01456C11.515 8.87543 11.2683 8.75281 11.014 8.64756C10.814 8.56456 10.634 8.48389 10.474 8.40556C10.3319 8.33752 10.1959 8.25739 10.0675 8.16606C9.96701 8.09548 9.87969 8.00781 9.80949 7.90706C9.74918 7.81539 9.71766 7.70778 9.71899 7.59806C9.71769 7.49704 9.74583 7.39784 9.79999 7.31256C9.85885 7.22332 9.93735 7.14875 10.0295 7.09456C10.142 7.02793 10.2646 6.98014 10.3925 6.95306C10.5494 6.91815 10.7098 6.90138 10.8705 6.90306C11.0057 6.90361 11.1406 6.9133 11.2745 6.93206C11.4191 6.95111 11.5622 6.98069 11.7025 7.02056C11.8453 7.06016 11.9851 7.1103 12.1205 7.17056C12.2519 7.22925 12.3776 7.29988 12.496 7.38156V5.95006C12.2496 5.85679 11.994 5.78975 11.7335 5.75006C11.4189 5.70424 11.1013 5.68267 10.7835 5.68556C10.4361 5.68384 10.0896 5.72328 9.75149 5.80306C9.44574 5.87249 9.15506 5.99666 8.89349 6.16956C8.6504 6.33162 8.44963 6.54952 8.30799 6.80506C8.15796 7.08888 8.08373 7.40664 8.09249 7.72756C8.08194 8.15187 8.22166 8.56627 8.48699 8.89756C8.81309 9.2646 9.22428 9.546 9.68449 9.71706C9.89449 9.80372 10.0903 9.88856 10.272 9.97156C10.4359 10.0446 10.5934 10.131 10.743 10.2301C10.8634 10.3088 10.9693 10.4078 11.056 10.5226C11.132 10.6269 11.1723 10.753 11.171 10.8821C11.1717 10.9788 11.1468 11.074 11.099 11.1581C11.0453 11.248 10.9707 11.3237 10.8815 11.3786C10.7693 11.4468 10.6467 11.4961 10.5185 11.5246C10.3514 11.5618 10.1806 11.5794 10.0095 11.5771C9.67367 11.5762 9.34055 11.517 9.02499 11.4021C8.69552 11.2829 8.38991 11.1059 8.12249 10.8796ZM5.54549 7.06056H7.54549V5.79706H1.96899V7.06056H3.95999V12.6876H5.54549V7.06056Z" fill="white"/>
</svg>
