<svg width="15" height="15" viewBox="0 0 15 15" fill="none" xmlns="http://www.w3.org/2000/svg">
<path d="M13.9984 2.08139L7.40083 13.8789C7.26456 14.1225 6.91462 14.124 6.77638 13.8816L0.0479669 2.08245C-0.102642 1.81835 0.123201 1.49843 0.422592 1.55194L7.02719 2.73249C7.06933 2.74 7.11248 2.7399 7.15459 2.73221L13.6211 1.55356C13.9194 1.49921 14.1463 1.81667 13.9984 2.08139Z" fill="url(#paint0_linear_931_15)"/>
<path d="M10.1733 0.00351888L5.29096 0.96012C5.25195 0.967768 5.21659 0.988162 5.19043 1.0181C5.16428 1.04803 5.14881 1.08581 5.14647 1.1255L4.84609 6.19791C4.84445 6.22572 4.84931 6.25353 4.86029 6.27913C4.87127 6.30473 4.88807 6.32743 4.90935 6.34541C4.93062 6.36339 4.9558 6.37616 4.98287 6.38272C5.00995 6.38928 5.03818 6.38944 5.06532 6.38318L6.42468 6.06952C6.55187 6.0402 6.66676 6.15221 6.64068 6.2801L6.2368 8.25771C6.20959 8.39082 6.33461 8.50458 6.46454 8.46514L7.30414 8.21004C7.43429 8.17053 7.55938 8.28464 7.53182 8.41789L6.89 11.5242C6.84986 11.7186 7.10832 11.8245 7.21611 11.6579L7.28811 11.5467L11.2665 3.60696C11.3332 3.47407 11.2183 3.32248 11.0723 3.3506L9.67311 3.62068C9.54163 3.64599 9.42976 3.52357 9.46682 3.39497L10.3801 0.229081C10.4172 0.100269 10.3049 -0.0222155 10.1733 0.00351888Z" fill="url(#paint1_linear_931_15)"/>
<defs>
<linearGradient id="paint0_linear_931_15" x1="-0.116283" y1="1.13028" x2="8.09488" y2="12.2817" gradientUnits="userSpaceOnUse">
<stop stop-color="#41D1FF"/>
<stop offset="1" stop-color="#BD34FE"/>
</linearGradient>
<linearGradient id="paint1_linear_931_15" x1="6.64813" y1="0.263183" x2="8.13348" y2="10.4527" gradientUnits="userSpaceOnUse">
<stop stop-color="#FFEA83"/>
<stop offset="0.083" stop-color="#FFDD35"/>
<stop offset="1" stop-color="#FFA800"/>
</linearGradient>
</defs>
</svg>
