<svg width="61" height="61" viewBox="0 0 61 61" fill="none" xmlns="http://www.w3.org/2000/svg">
<g clip-path="url(#clip0_743_944)">
<path d="M30.5 61C47.3447 61 61 47.3447 61 30.5C61 13.6553 47.3447 0 30.5 0C13.6553 0 0 13.6553 0 30.5C0 47.3447 13.6553 61 30.5 61Z" fill="#9E5703"/>
<path fill-rule="evenodd" clip-rule="evenodd" d="M16.5419 53.829C12.6928 51.5311 9.35943 48.2478 6.95877 44.09C4.56001 39.9358 3.38271 35.4113 3.31543 30.9328L3.70839 31.0103C11.7248 32.5889 20.8447 29.7347 28.3411 25.1328C29.3268 24.5275 30.2934 23.8867 31.2339 23.2148C32.3571 24.6173 33.3629 26.0396 34.1733 27.4429C35.1891 29.2023 36.1082 31.2952 36.9294 33.531C35.5229 34.2116 34.1518 34.961 32.8307 35.765C25.2414 40.3823 18.7669 47.1173 16.5431 53.8254L16.5419 53.829ZM42.0803 55.092C34.9994 58.4355 27.0798 58.4564 20.2284 55.6664L20.4135 55.1083C22.2172 49.6674 27.8058 43.5945 34.9501 39.2478C36.0233 38.5947 37.1196 37.988 38.2304 37.4336C38.9159 39.689 39.5099 41.977 40.0111 44.1256C40.6616 46.9129 41.1444 49.4114 41.4643 51.2123C41.6242 52.1123 41.7432 52.8363 41.8218 53.3332C41.8612 53.5819 41.8906 53.7735 41.9099 53.9018L41.9311 54.0459L41.9362 54.0809L41.9376 54.0907L42.0803 55.092Z" fill="#CF7000"/>
<path d="M41.9888 35.7807C47.1196 33.8267 52.3497 33.0757 56.8765 34.0689L57.4329 34.1909C57.1018 36.5942 56.4513 38.9461 55.4994 41.179C53.5302 45.7975 50.2718 49.9066 45.883 52.9114L45.8493 52.6964C45.767 52.1767 45.6438 51.427 45.4791 50.4996C45.1496 48.6457 44.653 46.0739 43.9821 43.1996C43.4412 40.8816 42.7793 38.3297 41.9888 35.7807Z" fill="#CF7000"/>
<path d="M34.4492 20.7087C39.1484 16.7153 42.841 11.9813 44.4314 7.25649L44.4597 7.17188C48.308 9.4696 51.6407 12.7527 54.041 16.9097C56.4407 21.0656 57.618 25.5918 57.6844 30.0719C52.2597 28.8994 46.3049 29.7971 40.6791 31.9175C39.807 29.5702 38.8173 27.3327 37.7039 25.4043C36.79 23.8217 35.6752 22.243 34.4492 20.7087Z" fill="#CF7000"/>
<path d="M20.4937 7.27288C19.8086 6.73113 19.2507 6.30363 18.8621 6.01009L18.8013 5.96423C23.5922 3.67411 28.7729 2.91012 33.7504 3.51339C36.1624 3.80574 38.5268 4.41914 40.776 5.33558L40.5669 5.95649C39.2697 9.81051 36.0814 13.9764 31.7911 17.6187C29.8059 15.4577 27.7117 13.4557 25.804 11.7448C23.7457 9.89885 21.8629 8.35555 20.4937 7.27288Z" fill="#CF7000"/>
<path d="M26.2074 21.6587C19.1762 25.9753 11.1197 28.3147 4.49621 27.0103L3.56494 26.8271C4.56876 19.5063 8.53564 12.6639 14.9563 8.2002L15.8477 8.8482L15.8533 8.85225L15.8787 8.87084L15.9848 8.94907C16.0795 9.01919 16.2212 9.12475 16.4046 9.26334C16.7717 9.54055 17.3056 9.9496 17.9647 10.4708C19.2841 11.5141 21.0999 13.0026 23.0817 14.7799C24.8753 16.3884 26.7723 18.2051 28.5509 20.1198C27.7919 20.6522 27.0096 21.1663 26.2074 21.6587Z" fill="#CF7000"/>
</g>
<defs>
<clipPath id="clip0_743_944">
<rect width="61" height="61" fill="white"/>
</clipPath>
</defs>
</svg>
