<svg width="32" height="32" viewBox="0 0 32 32" fill="none" xmlns="http://www.w3.org/2000/svg">
<path d="M16 32C24.8366 32 32 24.8366 32 16C32 7.16344 24.8366 0 16 0C7.16344 0 0 7.16344 0 16C0 24.8366 7.16344 32 16 32Z" fill="#9E5703"/>
<path fill-rule="evenodd" clip-rule="evenodd" d="M8.67773 28.2381C6.65853 27.0327 4.90988 25.3103 3.65052 23.1291C2.39215 20.9499 1.77455 18.5764 1.73926 16.227L1.9454 16.2677C6.15073 17.0958 10.9349 15.5985 14.8675 13.1844C15.3846 12.8669 15.8916 12.5307 16.385 12.1782C16.9742 12.914 17.5019 13.6601 17.927 14.3962C18.4599 15.3192 18.942 16.4171 19.3728 17.59C18.635 17.947 17.9157 18.3402 17.2227 18.7619C13.2414 21.1841 9.84495 24.7172 8.67836 28.2362L8.67773 28.2381ZM22.0749 28.9007C18.3604 30.6547 14.2058 30.6656 10.6116 29.202L10.7087 28.9092C11.6549 26.055 14.5867 22.8692 18.3345 20.589C18.8975 20.2464 19.4726 19.9281 20.0553 19.6373C20.4149 20.8204 20.7265 22.0207 20.9894 23.1478C21.3307 24.61 21.584 25.9207 21.7518 26.8654C21.8357 27.3376 21.8981 27.7174 21.9393 27.978C21.96 28.1085 21.9754 28.209 21.9855 28.2763L21.9967 28.3519L21.9993 28.3703L22.0001 28.3754L22.0749 28.9007Z" fill="#CF7000"/>
<path d="M22.0269 18.7702C24.7184 17.7452 27.4621 17.3512 29.8368 17.8722L30.1287 17.9362C29.955 19.197 29.6137 20.4308 29.1144 21.6021C28.0814 24.025 26.372 26.1805 24.0697 27.7568L24.052 27.644C24.0089 27.3714 23.9442 26.9781 23.8578 26.4916C23.685 25.5191 23.4245 24.1699 23.0725 22.6621C22.7888 21.4461 22.4415 20.1074 22.0269 18.7702Z" fill="#CF7000"/>
<path d="M18.0715 10.8635C20.5367 8.76859 22.4738 6.28518 23.3081 3.80659L23.3229 3.76221C25.3417 4.96757 27.09 6.68985 28.3492 8.87057C29.6081 11.0507 30.2257 13.4251 30.2605 15.7753C27.4147 15.1602 24.2909 15.6312 21.3397 16.7435C20.8822 15.5121 20.363 14.3384 19.7789 13.3268C19.2995 12.4965 18.7147 11.6684 18.0715 10.8635Z" fill="#CF7000"/>
<path d="M10.7509 3.81518C10.3915 3.53098 10.0988 3.30672 9.89493 3.15273L9.86304 3.12867C12.3763 1.9273 15.094 1.52651 17.7052 1.84298C18.9705 1.99635 20.2108 2.31813 21.3907 2.79889L21.2811 3.12461C20.6006 5.14639 18.928 7.33178 16.6774 9.24249C15.6359 8.10885 14.5373 7.05862 13.5366 6.1611C12.4568 5.19273 11.4691 4.38313 10.7509 3.81518Z" fill="#CF7000"/>
<path d="M13.7481 11.3618C10.0596 13.6263 5.83327 14.8535 2.35865 14.1692L1.87012 14.0731C2.39671 10.2327 4.4777 6.64325 7.84591 4.30164L8.31353 4.64157L8.31647 4.64369L8.3298 4.65345L8.38545 4.69449C8.43513 4.73127 8.50947 4.78665 8.60568 4.85935C8.79825 5.00478 9.07833 5.21935 9.42409 5.49277C10.1162 6.04008 11.0688 6.82093 12.1084 7.75328C13.0493 8.59708 14.0445 9.55011 14.9775 10.5545C14.5793 10.8338 14.169 11.1035 13.7481 11.3618Z" fill="#CF7000"/>
</svg>
