<svg width="27" height="20" viewBox="0 0 27 20" fill="none" xmlns="http://www.w3.org/2000/svg">
<path d="M3 0.0561523C1.34531 0.0561523 0 1.52351 0 3.32833V16.417C0 18.2218 1.34531 19.6892 3 19.6892H24C25.6547 19.6892 27 18.2218 27 16.417V3.32833C27 1.52351 25.6547 0.0561523 24 0.0561523H3ZM12.75 6.6005H23.25C23.6625 6.6005 24 6.96862 24 7.41854C24 7.86847 23.6625 8.23659 23.25 8.23659H12.75C12.3375 8.23659 12 7.86847 12 7.41854C12 6.96862 12.3375 6.6005 12.75 6.6005ZM12 12.3268C12 11.8769 12.3375 11.5088 12.75 11.5088H23.25C23.6625 11.5088 24 11.8769 24 12.3268C24 12.7767 23.6625 13.1448 23.25 13.1448H12.75C12.3375 13.1448 12 12.7767 12 12.3268ZM7.6875 4.55539V5.26606C8.03906 5.32742 8.37188 5.41434 8.67656 5.50637C9.17813 5.64953 9.47344 6.21193 9.34219 6.75899C9.21094 7.30607 8.69531 7.62817 8.19375 7.48501C7.67813 7.33674 7.18125 7.22937 6.73125 7.21915C6.36094 7.21403 5.98125 7.31117 5.72344 7.47478C5.49844 7.61794 5.43281 7.7611 5.43281 7.95027C5.43281 8.0423 5.4375 8.12922 5.68125 8.29282C5.97656 8.48711 6.40781 8.63539 7.00781 8.82967L7.04062 8.8399C7.56562 9.01373 8.24063 9.23357 8.77969 9.60681C9.38438 10.0209 9.91875 10.6958 9.93281 11.7337C9.94687 12.8022 9.44063 13.5794 8.77031 14.0344C8.43281 14.2646 8.05781 14.4077 7.68281 14.4946V15.19C7.68281 15.7523 7.26094 16.2125 6.74531 16.2125C6.22969 16.2125 5.80781 15.7523 5.80781 15.19V14.4435C5.325 14.331 4.87031 14.1623 4.48594 14.014C4.3875 13.9783 4.29375 13.9424 4.2 13.9066C3.70781 13.7277 3.44531 13.15 3.60938 12.6131C3.77344 12.0763 4.30313 11.7899 4.79531 11.9689C4.9125 12.0098 5.025 12.0559 5.13281 12.0916C5.77031 12.3268 6.25781 12.5058 6.77813 12.5262C7.18125 12.5416 7.55156 12.4444 7.78125 12.2859C7.97344 12.1581 8.0625 12.0047 8.05781 11.749C8.05781 11.6008 8.02031 11.4934 7.78125 11.3298C7.48594 11.1253 7.05937 10.977 6.46875 10.7827L6.38906 10.7572C5.87813 10.5885 5.23594 10.3788 4.72031 10.0414C4.125 9.64771 3.56719 8.99328 3.5625 7.9605C3.55781 6.8817 4.11563 6.13524 4.77188 5.71599C5.09531 5.50636 5.45156 5.36832 5.8125 5.2814V4.55539C5.8125 3.99299 6.23438 3.53284 6.75 3.53284C7.26562 3.53284 7.6875 3.99299 7.6875 4.55539Z" fill="#33983D"/>
</svg>
