<svg width="22" height="21" viewBox="0 0 22 21" fill="none" xmlns="http://www.w3.org/2000/svg">
<path d="M7.15062 14.4693C11.1005 14.4693 14.3008 11.4476 14.3008 7.72042C14.3008 3.9932 11.1005 0.971558 7.15062 0.971558C3.2008 0.971558 0.000376218 3.9932 0.000376218 7.72042C0.000376218 9.20056 0.505706 10.5695 1.36168 11.6854C1.24136 12.0458 1.0626 12.3641 0.873532 12.6325C0.708526 12.8703 0.540083 13.0543 0.416328 13.1808C0.354451 13.2422 0.302887 13.2921 0.26851 13.3227C0.251323 13.3381 0.237572 13.3495 0.230696 13.3535L0.223822 13.3611C0.0347524 13.5183 -0.0477504 13.7943 0.0278772 14.0437C0.103505 14.2929 0.3132 14.4693 0.550395 14.4693C1.29979 14.4693 2.05607 14.2545 2.68515 13.9899C3.00142 13.8557 3.29705 13.7062 3.55488 13.5528C4.61022 14.1356 5.83745 14.4693 7.15062 14.4693ZM15.401 7.72042C15.401 12.0266 11.9942 15.2707 7.95846 15.6579C8.7938 18.511 11.5646 20.6046 14.8508 20.6046C16.164 20.6046 17.3913 20.2709 18.4501 19.6882C18.7079 19.8415 19.0001 19.9911 19.3163 20.1252C19.9454 20.3898 20.7017 20.6046 21.4512 20.6046C21.6884 20.6046 21.9014 20.432 21.9736 20.179C22.0458 19.9258 21.9668 19.6498 21.7743 19.4926L21.7673 19.4849C21.7605 19.4772 21.7467 19.4696 21.7295 19.4542C21.6952 19.4236 21.6436 19.3775 21.5817 19.3123C21.458 19.1858 21.2895 19.0018 21.1245 18.764C20.9354 18.4956 20.7567 18.1735 20.6364 17.8168C21.4923 16.7048 21.9977 15.3359 21.9977 13.8519C21.9977 10.2934 19.0791 7.3753 15.3769 7.12222C15.3906 7.31779 15.3975 7.51718 15.3975 7.71658L15.401 7.72042Z" fill="#E74343"/>
</svg>
