<svg width="16" height="14" viewBox="0 0 14 13" fill="none" xmlns="http://www.w3.org/2000/svg">
<path d="M3.38238 10.4238C3.73502 10.1511 4.19155 10.0815 4.6016 10.2381C5.32602 10.5166 6.13793 10.6762 7.00177 10.6762C10.4107 10.6762 12.6878 8.34077 12.6878 6.03437C12.6878 3.72796 10.4107 1.39255 7.00177 1.39255C3.59287 1.39255 1.31571 3.72796 1.31571 6.03437C1.31571 6.96273 1.65469 7.85628 2.29164 8.62218C2.52673 8.90359 2.64155 9.27494 2.61421 9.65209C2.57594 10.1772 2.45839 10.6588 2.30531 11.0852C2.77003 10.8561 3.15548 10.6008 3.38238 10.4267V10.4238ZM0.583085 11.6017C0.632291 11.5233 0.678764 11.445 0.722503 11.3667C0.995871 10.8851 1.25557 10.2526 1.30751 9.54184C0.487406 8.55256 0.00354435 7.34278 0.00354435 6.03437C0.00354435 2.70096 3.13635 0 7.00177 0C10.8672 0 14 2.70096 14 6.03437C14 9.36778 10.8672 12.0687 7.00177 12.0687C5.98758 12.0687 5.02532 11.8831 4.15601 11.5494C3.8307 11.8018 3.30037 12.1471 2.67162 12.4372C2.25883 12.6287 1.78864 12.8027 1.30204 12.9043C1.28017 12.9101 1.2583 12.913 1.23644 12.9188C1.11615 12.942 0.998605 12.9623 0.875589 12.9739C0.870122 12.9739 0.861921 12.9768 0.856453 12.9768C0.717036 12.9913 0.577618 13 0.4382 13C0.260511 13 0.101957 12.8869 0.0336149 12.7128C-0.0347272 12.5387 0.00354435 12.3414 0.12656 12.208C0.238641 12.0861 0.339787 11.9556 0.435466 11.8163C0.481939 11.7496 0.525678 11.6829 0.566683 11.6162C0.569417 11.6104 0.57215 11.6075 0.574884 11.6017H0.583085Z" fill="#E74343"/>
<ellipse cx="7" cy="6" rx="6" ry="5" fill="#E74343"/>
<path d="M2 8.42863L4.96923 8L5.5 10.5L2 11.5L2 8.42863Z" fill="#E74343"/>
</svg>
