<svg width="23" height="21" viewBox="0 0 23 21" fill="none" xmlns="http://www.w3.org/2000/svg">
<path d="M5.175 0.802246C5.9375 0.802246 6.66876 1.12545 7.20793 1.70074C7.7471 2.27604 8.05 3.05632 8.05 3.86991C8.05 4.6835 7.7471 5.46377 7.20793 6.03908C6.66876 6.61437 5.9375 6.93757 5.175 6.93757C4.4125 6.93757 3.68124 6.61437 3.14207 6.03908C2.6029 5.46377 2.3 4.6835 2.3 3.86991C2.3 3.05632 2.6029 2.27604 3.14207 1.70074C3.68124 1.12545 4.4125 0.802246 5.175 0.802246ZM18.4 0.802246C19.1625 0.802246 19.8938 1.12545 20.4329 1.70074C20.9721 2.27604 21.275 3.05632 21.275 3.86991C21.275 4.6835 20.9721 5.46377 20.4329 6.03908C19.8938 6.61437 19.1625 6.93757 18.4 6.93757C17.6375 6.93757 16.9062 6.61437 16.3671 6.03908C15.8279 5.46377 15.525 4.6835 15.525 3.86991C15.525 3.05632 15.8279 2.27604 16.3671 1.70074C16.9062 1.12545 17.6375 0.802246 18.4 0.802246ZM0 12.2562C0 9.99757 1.71781 8.16464 3.83453 8.16464H5.36906C5.94047 8.16464 6.48312 8.29885 6.97187 8.5366C6.92516 8.81268 6.90359 9.10027 6.90359 9.3917C6.90359 10.8565 7.50734 12.1717 8.45969 13.0729C8.4525 13.0729 8.44531 13.0729 8.43453 13.0729H0.765469C0.345 13.0729 0 12.7048 0 12.2562ZM14.5655 13.0729C14.5583 13.0729 14.5511 13.0729 14.5403 13.0729C15.4963 12.1717 16.0964 10.8565 16.0964 9.3917C16.0964 9.10027 16.0712 8.81652 16.0281 8.5366C16.5169 8.29501 17.0595 8.16464 17.6309 8.16464H19.1655C21.2822 8.16464 23 9.99757 23 12.2562C23 12.7086 22.655 13.0729 22.2345 13.0729H14.5655ZM8.05 9.3917C8.05 8.41538 8.41348 7.47906 9.06048 6.7887C9.70748 6.09835 10.585 5.71051 11.5 5.71051C12.415 5.71051 13.2925 6.09835 13.9395 6.7887C14.5865 7.47906 14.95 8.41538 14.95 9.3917C14.95 10.368 14.5865 11.3043 13.9395 11.9947C13.2925 12.685 12.415 13.0729 11.5 13.0729C10.585 13.0729 9.70748 12.685 9.06048 11.9947C8.41348 11.3043 8.05 10.368 8.05 9.3917ZM4.6 19.4114C4.6 16.5892 6.74547 14.3 9.39047 14.3H13.6095C16.2545 14.3 18.4 16.5892 18.4 19.4114C18.4 19.9751 17.9723 20.4353 17.4405 20.4353H5.55953C5.03125 20.4353 4.6 19.9789 4.6 19.4114Z" fill="#E74343"/>
</svg>
