<svg width="18" height="18" viewBox="0 0 18 18" fill="none" xmlns="http://www.w3.org/2000/svg">
<path d="M11.1429 5H1.85714C0.832929 5 0 5.83293 0 6.85714V16.1429C0 17.1671 0.832929 18 1.85714 18H11.1429C12.1671 18 13 17.1671 13 16.1429V6.85714C13 5.83293 12.1671 5 11.1429 5Z" fill="#7D7D7D"/>
<path d="M16.1429 0H6.85714C6.3646 0 5.89223 0.195663 5.54394 0.543944C5.19566 0.892226 5 1.3646 5 1.85714V3.71429H12.4286C12.9211 3.71429 13.3935 3.90995 13.7418 4.25823C14.0901 4.60651 14.2857 5.07888 14.2857 5.57143V13H16.1429C16.6354 13 17.1078 12.8043 17.4561 12.4561C17.8043 12.1078 18 11.6354 18 11.1429V1.85714C18 1.3646 17.8043 0.892226 17.4561 0.543944C17.1078 0.195663 16.6354 0 16.1429 0Z" fill="#7D7D7D"/>
</svg>
