<svg width="9" height="9" viewBox="0 0 9 9" fill="none" xmlns="http://www.w3.org/2000/svg">
<path d="M8.65734 8.69108C8.4422 8.88558 8.1504 8.99484 7.84614 8.99484C7.54189 8.99484 7.25009 8.88558 7.03494 8.69108L4.50048 6.0722L1.96601 8.69022C1.8598 8.78782 1.73326 8.86544 1.5937 8.91861C1.45414 8.97177 1.30432 8.99943 1.15288 8.99999C1.00143 9.00055 0.851366 8.97399 0.711331 8.92186C0.571296 8.86972 0.444065 8.79303 0.336978 8.69622C0.22989 8.5994 0.145064 8.48438 0.0873936 8.35778C0.0297231 8.23118 0.000348819 8.09551 0.000965484 7.95859C0.00158215 7.82168 0.0321774 7.68623 0.0909864 7.56006C0.149795 7.43389 0.235655 7.31949 0.343611 7.22347L2.98037 4.50087L0.342655 1.77653C0.234699 1.68051 0.148839 1.56611 0.0900304 1.43994C0.0312214 1.31377 0.000626177 1.17832 9.51161e-06 1.04141C-0.000607153 0.904492 0.0287671 0.768822 0.0864377 0.642222C0.144108 0.515622 0.228934 0.400598 0.336022 0.303784C0.443109 0.20697 0.57034 0.130283 0.710375 0.0781449C0.85041 0.0260072 1.00048 -0.000548903 1.15192 8.59907e-06C1.30336 0.000566102 1.45319 0.028226 1.59275 0.081393C1.73231 0.13456 1.85884 0.212182 1.96506 0.309781L4.50048 2.92953L7.03494 0.309781C7.14116 0.212182 7.26769 0.13456 7.40725 0.081393C7.54681 0.028226 7.69664 0.000566102 7.84808 8.59907e-06C7.99952 -0.000548903 8.14959 0.0260072 8.28963 0.0781449C8.42966 0.130283 8.55689 0.20697 8.66398 0.303784C8.77107 0.400598 8.85589 0.515622 8.91356 0.642222C8.97123 0.768822 9.00061 0.904492 8.99999 1.04141C8.99937 1.17832 8.96878 1.31377 8.90997 1.43994C8.85116 1.56611 8.7653 1.68051 8.65734 1.77653L6.02058 4.50087L8.65734 7.22347C8.76401 7.3198 8.84863 7.43419 8.90637 7.5601C8.9641 7.68601 8.99382 7.82098 8.99382 7.95728C8.99382 8.09358 8.9641 8.22854 8.90637 8.35446C8.84863 8.48037 8.76401 8.59476 8.65734 8.69108Z" fill="#303030"/>
</svg>
