<svg width="20" height="15" viewBox="0 0 20 15" fill="none" xmlns="http://www.w3.org/2000/svg">
<path d="M1.72681 1.16444L5.68268 4.42697L9.20711 0.359526C9.3058 0.245815 9.43058 0.154438 9.57217 0.0921995C9.71377 0.0299611 9.86852 -0.0015347 10.0249 5.7495e-05C10.1813 0.00164969 10.3353 0.0362889 10.4754 0.101396C10.6155 0.166502 10.7381 0.260398 10.8342 0.376092L14.1974 4.426L18.2812 1.11669C18.4416 0.986998 18.6404 0.906312 18.851 0.885431C19.0616 0.86455 19.2741 0.904471 19.4598 0.99985C19.6456 1.09523 19.7958 1.24152 19.8905 1.41913C19.9851 1.59675 20.0196 1.79722 19.9893 1.99372L18.4299 12.0766H1.59477L0.0113832 2.03952C-0.0200692 1.84193 0.0140288 1.64005 0.109059 1.46123C0.204089 1.28242 0.355459 1.13529 0.542667 1.03979C0.729875 0.944295 0.943874 0.905035 1.15568 0.92733C1.36749 0.949625 1.56686 1.0324 1.72681 1.16444ZM1.67587 13.0511H18.3103V14.0255C18.3103 14.284 18.2008 14.5318 18.0058 14.7146C17.8108 14.8973 17.5464 15 17.2706 15H2.71552C2.43979 15 2.17535 14.8973 1.98037 14.7146C1.7854 14.5318 1.67587 14.284 1.67587 14.0255V13.0511Z" fill="#747474"/>
</svg>
