<svg width="19" height="20" viewBox="0 0 20 21" fill="none" xmlns="http://www.w3.org/2000/svg">
<path d="M19.1333 4.95438V5.00748C19.1333 5.63763 19.1333 5.9527 18.9441 6.21049C18.7549 6.46826 18.4114 6.62127 17.7244 6.92729L17 7.25C17.4991 5.89696 17.6657 4.44323 17.7273 3.2C17.7298 3.14669 17.7329 3.09273 17.7359 3.0382L17.738 3C18.3327 3.16558 18.6665 3.28903 18.8748 3.52074C19.1334 3.80833 19.1334 4.19035 19.1333 4.95438Z" fill="#E74343"/>
<path d="M5.58106e-07 5.14186V5.19496C2.79459e-05 5.82507 3.71635e-05 6.14013 0.189187 6.3979C0.378336 6.65566 0.721788 6.80866 1.40869 7.11466L2.13334 7.4375C1.6342 6.08452 1.46769 4.6308 1.40614 3.38758C1.4035 3.33428 1.40052 3.28032 1.39752 3.22579L1.39541 3.1875C0.800647 3.35312 0.466744 3.47656 0.25845 3.7083C-3.60608e-05 3.99588 -2.68297e-05 4.37788 5.58106e-07 5.14186Z" fill="#E74343"/>
<path fill-rule="evenodd" clip-rule="evenodd" d="M13.7154 0.350917C12.6556 0.158982 11.27 0 9.5883 0C7.90649 0 6.52097 0.158982 5.46106 0.350917C4.38731 0.545363 3.85042 0.64259 3.40186 1.23554C2.95329 1.82849 2.977 2.46938 3.02441 3.75113C3.18718 8.15145 4.0719 13.6475 8.88091 14.134V17.7108H7.53233C7.08284 17.7108 6.69586 18.0514 6.6077 18.5245L6.42929 19.4819H3.93051C3.53993 19.4819 3.2233 19.8218 3.2233 20.2409C3.2233 20.6602 3.53993 21 3.93051 21H15.2457C15.6363 21 15.9529 20.6602 15.9529 20.2409C15.9529 19.8218 15.6363 19.4819 15.2457 19.4819H12.747L12.5685 18.5245C12.4804 18.0514 12.0934 17.7108 11.6439 17.7108H10.2953V14.134C15.1045 13.6478 15.9894 8.15154 16.152 3.75113C16.1995 2.46938 16.2233 1.82849 15.7747 1.23554C15.326 0.64259 14.7893 0.545363 13.7154 0.350917Z" fill="#E74343"/>
</svg>
