<svg width="29" height="29" viewBox="0 0 29 29" fill="none" xmlns="http://www.w3.org/2000/svg">
<path d="M22.2031 0H6.79688C3.04306 0 0 3.04306 0 6.79688V22.2031C0 25.9569 3.04306 29 6.79688 29H22.2031C25.9569 29 29 25.9569 29 22.2031V6.79688C29 3.04306 25.9569 0 22.2031 0Z" fill="#5865F2"/>
<mask id="mask0_743_1106" style="mask-type:luminance" maskUnits="userSpaceOnUse" x="3" y="5" width="23" height="19">
<path d="M3.17188 5.77734H25.8281V23.328H3.17188V5.77734Z" fill="white"/>
</mask>
<g mask="url(#mask0_743_1106)">
<path d="M22.3512 7.34026C20.8824 6.66599 19.3323 6.18518 17.7397 5.90986C17.7252 5.90718 17.7102 5.90913 17.6969 5.91544C17.6836 5.92174 17.6727 5.93208 17.6656 5.94498C17.4664 6.29909 17.2458 6.76128 17.0914 7.12446C15.3499 6.86369 13.6175 6.86369 11.9118 7.12446C11.7573 6.75313 11.5287 6.29909 11.3286 5.94498C11.3212 5.93234 11.3102 5.92223 11.2969 5.91597C11.2837 5.90971 11.2689 5.90758 11.2544 5.90986C9.6617 6.18462 8.1115 6.66546 6.64286 7.34026C6.63029 7.3456 6.61968 7.3547 6.6125 7.36632C3.67534 11.7544 2.87082 16.0346 3.26549 20.2618C3.26659 20.2722 3.26976 20.2822 3.27482 20.2913C3.27988 20.3004 3.28673 20.3084 3.29494 20.3148C5.23273 21.738 7.10992 22.602 8.95221 23.1746C8.96654 23.1789 8.98183 23.1787 8.99605 23.174C9.01026 23.1694 9.02271 23.1605 9.03173 23.1485C9.46752 22.5534 9.85597 21.9259 10.1891 21.266C10.1937 21.257 10.1963 21.2471 10.1968 21.237C10.1973 21.2268 10.1956 21.2167 10.1919 21.2073C10.1882 21.1979 10.1825 21.1893 10.1753 21.1823C10.168 21.1752 10.1593 21.1697 10.1498 21.1662C9.53357 20.9324 8.94688 20.6475 8.38252 20.3239C8.37224 20.3178 8.36361 20.3093 8.35738 20.2992C8.35116 20.289 8.34754 20.2774 8.34683 20.2655C8.34613 20.2536 8.34836 20.2417 8.35334 20.2309C8.35832 20.22 8.36589 20.2106 8.37538 20.2033C8.49444 20.1143 8.61145 20.0226 8.72633 19.9283C8.73638 19.92 8.74856 19.9146 8.76149 19.9129C8.77442 19.9111 8.78759 19.913 8.79951 19.9183C12.5074 21.6112 16.5215 21.6112 20.1856 19.9183C20.1976 19.9127 20.2109 19.9105 20.224 19.9121C20.2372 19.9137 20.2496 19.919 20.2598 19.9274C20.3748 20.0223 20.4921 20.1143 20.6117 20.2033C20.6212 20.2105 20.6288 20.2199 20.6339 20.2307C20.639 20.2415 20.6413 20.2534 20.6407 20.2653C20.64 20.2772 20.6365 20.2888 20.6304 20.299C20.6242 20.3092 20.6157 20.3177 20.6055 20.3239C20.0408 20.6536 19.4493 20.9351 18.8372 21.1653C18.8277 21.169 18.8191 21.1746 18.8119 21.1818C18.8047 21.189 18.7991 21.1976 18.7955 21.2071C18.7919 21.2166 18.7903 21.2268 18.7909 21.2369C18.7915 21.2471 18.7942 21.257 18.7988 21.266C19.1378 21.9207 19.5243 22.5496 19.9552 23.1476C19.964 23.1599 19.9764 23.1691 19.9906 23.1739C20.0049 23.1787 20.0203 23.179 20.0347 23.1746C21.886 22.602 23.7632 21.738 25.7011 20.3148C25.7094 20.3087 25.7163 20.3009 25.7214 20.2919C25.7264 20.2829 25.7296 20.273 25.7305 20.2627C26.2029 15.3756 24.9393 11.1304 22.3807 7.36722C22.3744 7.355 22.364 7.34543 22.3512 7.34026ZM10.7428 17.6879C9.62646 17.6879 8.70661 16.6631 8.70661 15.4044C8.70661 14.1457 9.60867 13.1209 10.7428 13.1209C11.8859 13.1209 12.7967 14.1548 12.7788 15.4044C12.7788 16.6631 11.8769 17.6879 10.7428 17.6879ZM18.2711 17.6879C17.1547 17.6879 16.2349 16.6631 16.2349 15.4044C16.2349 14.1457 17.1369 13.1209 18.2711 13.1209C19.4141 13.1209 20.325 14.1548 20.3072 15.4044C20.3072 16.6631 19.4141 17.6879 18.2711 17.6879Z" fill="white"/>
</g>
</svg>
