<svg width="23" height="20" viewBox="0 0 23 20" fill="none" xmlns="http://www.w3.org/2000/svg">
<path d="M12.7778 1.23755C12.7778 0.854125 12.5981 0.493946 12.2866 0.261571C11.9751 0.0291957 11.5719 -0.0560087 11.1885 0.0369415L4.00504 1.77976C3.15451 1.98502 2.55555 2.72862 2.55555 3.58066V17.3489H1.27778C0.571007 17.3489 0 17.9027 0 18.5883C0 19.2738 0.571007 19.8276 1.27778 19.8276H3.83333H11.5H12.7778V18.5883V1.23755ZM10.2222 9.91292C10.2222 10.5984 9.79499 11.1522 9.26392 11.1522C8.73278 11.1522 8.30554 10.5984 8.30554 9.91292C8.30554 9.22736 8.73278 8.67354 9.26392 8.67354C9.79499 8.67354 10.2222 9.22736 10.2222 9.91292ZM14.0555 4.95556H17.8889V18.5883C17.8889 19.2738 18.4599 19.8276 19.1667 19.8276H21.7222C22.429 19.8276 23 19.2738 23 18.5883C23 17.9027 22.429 17.3489 21.7222 17.3489H20.4445V4.95556C20.4445 3.58841 19.2984 2.47689 17.8889 2.47689H14.0555V4.95556Z" fill="#E74343"/>
</svg>
