<svg width="30" height="30" viewBox="0 0 30 30" fill="none" xmlns="http://www.w3.org/2000/svg">
<path d="M29.9999 2.85681V1.42909C29.9999 1.035 29.6809 0.714543 29.2854 0.714543H26.4286C26.1463 0.714543 25.9186 0.733636 25.7141 0.785457V0.714543C25.7141 0.320455 25.395 0 24.9996 0H20.7137C19.4755 0 19.0269 0.702272 18.765 1.42909H18.1855C18.0192 1.20682 17.8583 0.919092 17.8583 0.714543C17.8569 0.320455 17.5378 0 17.1424 0H12.142C11.7765 0 11.4711 0.280909 11.4315 0.642272C11.4152 0.792272 11.1111 1.42773 10.6393 1.42773H8.68251C8.63615 1.37318 8.5693 1.27091 8.51066 1.14C8.39615 0.880907 8.13979 0.713179 7.85615 0.713179H0.714871C0.319421 0.714543 0.000333992 1.035 0.000333992 1.42909V7.14272C0.000333992 9.15957 0.589415 11.7123 0.713507 12.2264L0.708051 13.3091L0.223967 13.7673C0.0807877 13.9009 0.000333992 14.0891 0.000333992 14.2854V17.1423C0.000333992 17.3318 0.0753328 17.5132 0.208967 17.6468L0.713507 18.1514V21.3109L0.0371516 23.3454C-0.00648418 23.475 -0.0119389 23.6127 0.0221516 23.745L0.686236 26.4014L0.0385151 28.3473C-0.0351202 28.5654 0.00169747 28.8054 0.136696 28.9909C0.27033 29.1764 0.485782 29.2868 0.714871 29.2868H10.7143C10.9038 29.2868 11.0852 29.2118 11.2188 29.0782L11.2829 29.0141C11.6634 29.5309 12.1911 30 12.8579 30H15.0001C15.5265 30 15.986 29.7709 16.391 29.5677C16.6678 29.4286 16.9542 29.2854 17.1437 29.2854H20.715C20.9046 29.2854 21.086 29.2104 21.2196 29.0768L21.3928 28.9036C21.4378 28.9609 21.48 29.0168 21.5223 29.0714C21.8741 29.5282 22.2355 30 22.8573 30H26.4286C26.8241 30 27.1431 29.6809 27.1431 29.2854V28.7727L29.1136 29.2636C29.3276 29.3182 29.554 29.2691 29.7272 29.1327C29.9004 28.9964 30.0013 28.7877 29.9999 28.5668C29.9986 28.4973 29.9549 21.4882 29.9999 17.8664C30.0026 17.6741 29.9263 17.4886 29.7913 17.3523L29.2867 16.8477V13.5723C29.2867 13.3827 29.2117 13.2014 29.0781 13.0677L28.7276 12.7173L29.1599 11.8527L29.7926 11.22C29.9249 11.0864 29.9999 10.9036 29.9999 10.7141L29.989 7.13592C29.989 7.07864 29.9822 7.02136 29.9686 6.96408L29.329 4.37046L29.9249 3.17727C29.974 3.07773 29.9999 2.96727 29.9999 2.85681ZM21.4923 5.715L23.6659 7.14407L22.9405 11.43L17.1424 7.14407L21.4923 5.715ZM7.85751 24.2864L5.00072 22.1441L6.42979 17.1436L12.1434 22.8573L7.85751 24.2864ZM23.0005 23.5718H19.6664L5.00072 6.37636L7.66658 5.715L24.9996 18.9423L23.0005 23.5718Z" fill="#B41414"/>
</svg>
