<svg width="25" height="25" viewBox="0 0 25 25" fill="none" xmlns="http://www.w3.org/2000/svg">
<path d="M24.9999 2.38068V1.19091C24.9999 0.8625 24.734 0.595453 24.4045 0.595453H22.0239C21.7886 0.595453 21.5989 0.611363 21.4284 0.654547V0.595453C21.4284 0.267046 21.1625 0 20.833 0H17.2614C16.2296 0 15.8557 0.585226 15.6375 1.19091H15.1546C15.016 1.00568 14.8819 0.76591 14.8819 0.595453C14.8807 0.267046 14.6149 0 14.2853 0H10.1183C9.81377 0 9.55924 0.234091 9.52627 0.535226C9.51264 0.660226 9.25924 1.18977 8.86608 1.18977H7.23542C7.19679 1.14432 7.14108 1.05909 7.09221 0.95C6.99679 0.73409 6.78316 0.594316 6.54679 0.594316H0.595726C0.266184 0.595453 0.000278326 0.8625 0.000278326 1.19091V5.95226C0.000278326 7.63297 0.491179 9.76024 0.594589 10.1886L0.590042 11.0909L0.18664 11.4727C0.0673231 11.5841 0.000278326 11.7409 0.000278326 11.9045V14.2852C0.000278326 14.4432 0.0627773 14.5943 0.17414 14.7057L0.594589 15.1261V17.7591L0.0309597 19.4545C-0.00540348 19.5625 -0.00994905 19.6773 0.0184597 19.7875L0.571863 22.0011L0.0320959 23.6227C-0.0292669 23.8045 0.00141456 24.0045 0.113913 24.1591C0.225275 24.3136 0.404818 24.4057 0.595726 24.4057H8.92858C9.0865 24.4057 9.23764 24.3432 9.34901 24.2318L9.4024 24.1784C9.71948 24.6091 10.1592 25 10.7149 25H12.5001C12.9387 25 13.3217 24.8091 13.6592 24.6398C13.8899 24.5239 14.1285 24.4045 14.2865 24.4045H17.2625C17.4205 24.4045 17.5716 24.342 17.683 24.2307L17.8273 24.0864C17.8648 24.1341 17.9 24.1807 17.9353 24.2261C18.2284 24.6068 18.5296 25 19.0477 25H22.0239C22.3534 25 22.6193 24.7341 22.6193 24.4045V23.9773L24.2613 24.3864C24.4397 24.4318 24.6283 24.3909 24.7727 24.2773C24.917 24.1636 25.0011 23.9898 24.9999 23.8057C24.9988 23.7477 24.9624 17.9068 24.9999 14.8886C25.0022 14.7284 24.9386 14.5739 24.8261 14.4602L24.4056 14.0398V11.3102C24.4056 11.1523 24.3431 11.0011 24.2317 10.8898L23.9397 10.5977L24.2999 9.87726L24.8272 9.35C24.9374 9.23863 24.9999 9.08637 24.9999 8.9284L24.9908 5.9466C24.9908 5.89887 24.9852 5.85113 24.9738 5.8034L24.4408 3.64205L24.9374 2.64773C24.9783 2.56477 24.9999 2.47273 24.9999 2.38068ZM17.9103 4.7625L19.7216 5.9534L19.1171 9.525L14.2853 5.9534L17.9103 4.7625ZM6.54792 20.2386L4.16727 18.4534L5.35816 14.2864L10.1195 19.0477L6.54792 20.2386ZM19.1671 19.6432H16.3887L4.16727 5.31363L6.38882 4.7625L20.833 15.7852L19.1671 19.6432Z" fill="#B41414"/>
</svg>
