<svg width="22" height="21" viewBox="0 0 22 21" fill="none" xmlns="http://www.w3.org/2000/svg">
<path d="M12.1007 5.49182L10.3167 4.99333C10.0933 4.93197 9.92832 4.72107 9.90426 4.46416C9.8802 4.20724 10.0005 3.96183 10.2033 3.84679L11.6057 3.06453L10.1208 1.82213C9.93176 1.66491 9.8527 1.38882 9.92832 1.13574C10.0039 0.88266 10.2136 0.717773 10.4508 0.717773H14.3005H15.4004H15.9504C16.9885 0.717773 17.9681 1.26228 18.5902 2.19025L20.5701 5.13521C20.7832 5.45348 20.9001 5.84078 20.9001 6.23957C20.9001 7.25573 20.1611 8.08016 19.2502 8.08016H18.5112C17.9268 8.08016 17.3666 7.82324 16.9541 7.3631L16.5004 6.8531H15.4004V7.67753C15.4004 8.6285 15.8404 9.51429 16.5622 10.0205L20.2264 12.5743C21.3297 13.3451 22 14.6909 22 16.1443C22 18.468 20.3123 20.3508 18.2259 20.3508H17.0503H14.8505H1.11173C0.998301 20.3508 0.884871 20.3354 0.781753 20.2971C0.465525 20.1897 0.20773 19.929 0.0839882 19.5877C0.0358665 19.4574 0.00836833 19.3231 0.0014938 19.1774C-0.00538074 19.0355 0.0118056 18.8975 0.0461783 18.7671C0.142422 18.4143 0.376156 18.1267 0.68551 17.9849C0.788628 17.9389 0.89862 17.9081 1.01205 17.9005L14.8952 16.5163C15.1805 16.4894 15.4004 16.221 15.4004 15.8989C15.4004 15.734 15.342 15.5767 15.2389 15.4618L13.7127 13.7591C12.6816 12.6089 12.1007 11.0481 12.1007 9.42227V7.67753V5.49182ZM17.6003 3.49018C17.6003 3.48634 17.6003 3.48251 17.6003 3.47867C17.6003 3.47483 17.6003 3.471 17.6003 3.46716V3.49018ZM17.5556 3.77393L15.9607 3.32912C15.9538 3.37897 15.9504 3.42882 15.9504 3.47867C15.9504 3.98867 16.3182 4.39897 16.7754 4.39897C17.1397 4.39897 17.4456 4.13822 17.5556 3.77393ZM4.50088 5.18505C5.06115 4.62905 5.88953 4.56385 6.51168 5.02784L11.0007 8.36393V9.42227C11.0007 10.68 11.2895 11.9071 11.8257 12.9884H3.85123C3.62094 12.9884 3.4147 12.8273 3.33564 12.5897C3.25659 12.3519 3.31846 12.0796 3.49376 11.9109L5.87922 9.6255L0.633951 10.5266C0.393342 10.5688 0.156171 10.4269 0.0530528 10.1815C-0.0500652 9.9361 0.0014938 9.64084 0.183669 9.46061L4.50088 5.18505Z" fill="#E74343"/>
</svg>
