<svg width="32" height="24" viewBox="0 0 32 24" fill="none" xmlns="http://www.w3.org/2000/svg">
<path d="M18.6531 7.76435L20.4886 7.61532C20.7183 7.59763 20.9136 7.43493 20.9771 7.20683C21.0406 6.97874 20.9601 6.73664 20.778 6.59843L19.517 5.65459L21.173 4.7828C21.3837 4.67268 21.5043 4.43655 21.469 4.19508C21.4337 3.95361 21.2526 3.76918 21.0188 3.72911L17.2244 3.07862L16.1403 2.89277L15.5983 2.79984C14.5751 2.62444 13.5253 2.95096 12.7683 3.68438L10.3607 6.01102C10.1013 6.26262 9.92615 6.59284 9.86437 6.95321C9.70695 7.87145 10.3076 8.74132 11.2054 8.89523L11.9338 9.0201C12.5097 9.11883 13.1017 8.98134 13.5796 8.63522L14.1058 8.25103L15.1899 8.43689L15.0622 9.18188C14.9148 10.0412 14.344 10.7673 13.5541 11.1027L9.54705 12.7913C8.34015 13.3014 7.47102 14.4044 7.24588 15.7176C6.88589 17.8175 8.25766 19.804 10.3141 20.1565L11.4727 20.3552L13.6409 20.7269L27.1821 23.0483C27.2939 23.0675 27.4081 23.0728 27.5157 23.0555C27.844 23.012 28.1385 22.8199 28.3133 22.5324C28.381 22.4227 28.4288 22.3061 28.4582 22.1756C28.487 22.0485 28.4914 21.9209 28.4777 21.7973C28.4375 21.4622 28.2517 21.1628 27.9688 20.9824C27.8743 20.9234 27.7706 20.8771 27.66 20.851L14.1909 17.2543C13.9139 17.1818 13.7387 16.9021 13.7886 16.611C13.8141 16.462 13.896 16.3298 14.0155 16.2433L15.7835 14.9627C16.978 14.0974 17.7923 12.7852 18.0442 11.316L18.3145 9.73944L18.6531 7.76435ZM13.5426 5.02631C13.5432 5.02285 13.5438 5.01938 13.5444 5.01591C13.545 5.01245 13.5456 5.00898 13.5462 5.00552L13.5426 5.02631ZM13.5427 5.29028L15.1836 5.15781C15.1826 5.20402 15.1783 5.24965 15.1706 5.29469C15.0916 5.75555 14.6655 6.06417 14.2149 5.98692C13.8558 5.92536 13.5947 5.63804 13.5427 5.29028ZM26.1911 8.77127C25.725 8.17416 24.9187 7.97529 24.2336 8.28944L19.2923 10.5455L19.1283 11.5019C18.9335 12.6384 18.4588 13.6985 17.7628 14.585L25.6226 15.9325C25.8496 15.9714 26.0778 15.8607 26.1925 15.6592C26.3073 15.4577 26.2885 15.2013 26.1418 15.0192L24.1447 12.5509L29.175 14.2515C29.4056 14.3303 29.6613 14.2421 29.801 14.0378C29.9406 13.8335 29.9356 13.5579 29.7839 13.3643L26.1911 8.77127Z" fill="#E74343"/>
<path d="M5.34309 6.42124C5.25858 6.48542 5.18492 6.56408 5.11136 6.63703C4.94124 6.82537 4.81788 7.04027 4.63959 7.21989C4.22637 7.63811 3.55531 7.72022 3.04641 7.43957C3.10537 7.71207 3.2455 7.95175 3.40013 8.1574C3.96442 8.90762 4.97844 9.21743 5.85964 8.88484C5.88762 8.87392 5.91561 8.863 5.95171 8.86365C6.01281 8.86476 6.06759 8.90861 6.08877 8.96614C6.11535 9.03233 6.09745 9.10058 6.05202 9.15404C6.03852 9.17001 6.02227 9.18328 6.00408 9.19317C5.60106 9.50871 5.03076 9.5498 4.5792 9.32447C4.94828 9.8083 5.58237 10.0798 6.18574 10.0536C6.32492 10.039 6.4641 10.0244 6.60385 9.97831C6.77122 9.94135 6.93927 9.86725 7.08802 9.78424C7.5741 9.48449 7.92819 8.95663 8.00803 8.3838C8.0941 7.77395 7.99764 7.11792 7.59508 6.64206C7.14351 6.11103 6.40803 5.91484 5.76992 6.17184L5.69703 6.20766C5.56818 6.26532 5.34309 6.42124 5.34309 6.42124ZM7.07649 7.3555C7.1417 7.43669 7.21153 7.56938 7.23744 7.6727C7.34273 7.99461 7.1814 8.31167 6.99467 8.49686C6.92307 8.15556 6.68233 7.94835 6.43623 7.88389C6.21492 7.8313 6.02996 7.91938 5.81542 7.95263C5.60927 7.98318 5.4344 7.97429 5.24416 7.8937C5.35068 7.84135 5.45726 7.78614 5.54183 7.7191C5.82355 7.50421 5.95203 7.16083 6.3311 7.09342C6.37019 7.0827 6.40918 7.0777 6.45084 7.07845C6.67874 7.07401 6.92684 7.18137 7.07649 7.3555Z" fill="#E74343"/>
</svg>
