<svg width="31" height="24" viewBox="0 0 31 24" fill="none" xmlns="http://www.w3.org/2000/svg">
<path d="M17.6531 7.76438L19.4886 7.61535C19.7183 7.59766 19.9136 7.43496 19.9771 7.20686C20.0406 6.97877 19.9601 6.73667 19.778 6.59846L18.517 5.65462L20.173 4.78283C20.3837 4.67271 20.5043 4.43658 20.469 4.19511C20.4337 3.95364 20.2526 3.76921 20.0188 3.72914L16.2244 3.07865L15.1403 2.8928L14.5983 2.79987C13.5751 2.62447 12.5253 2.95099 11.7683 3.68441L9.36068 6.01105C9.10133 6.26265 8.92615 6.59287 8.86437 6.95324C8.70695 7.87148 9.30762 8.74135 10.2054 8.89526L10.9338 9.02013C11.5097 9.11886 12.1017 8.98137 12.5796 8.63526L13.1058 8.25106L14.1899 8.43692L14.0622 9.18191C13.9148 10.0412 13.344 10.7673 12.5541 11.1028L8.54705 12.7914C7.34015 13.3014 6.47101 14.4044 6.24588 15.7177C5.88589 17.8175 7.25766 19.804 9.31408 20.1566L10.4727 20.3552L12.6409 20.7269L26.1821 23.0483C26.2939 23.0675 26.4081 23.0728 26.5157 23.0556C26.844 23.012 27.1385 22.8199 27.3133 22.5324C27.381 22.4228 27.4288 22.3061 27.4582 22.1756C27.487 22.0486 27.4914 21.9209 27.4777 21.7973C27.4375 21.4623 27.2517 21.1629 26.9688 20.9824C26.8743 20.9234 26.7706 20.8771 26.66 20.851L13.1909 17.2543C12.9139 17.1818 12.7387 16.9021 12.7886 16.611C12.8141 16.462 12.896 16.3298 13.0155 16.2433L14.7835 14.9627C15.978 14.0974 16.7923 12.7853 17.0442 11.3161L17.3145 9.73947L17.6531 7.76438ZM12.5426 5.02634C12.5432 5.02288 12.5438 5.01941 12.5444 5.01595C12.545 5.01248 12.5456 5.00902 12.5462 5.00555L12.5426 5.02634ZM12.5427 5.29031L14.1836 5.15784C14.1826 5.20405 14.1783 5.24968 14.1706 5.29473C14.0916 5.75558 13.6655 6.0642 13.2149 5.98695C12.8558 5.92539 12.5947 5.63807 12.5427 5.29031ZM25.1911 8.7713C24.725 8.17419 23.9187 7.97532 23.2336 8.28947L18.2923 10.5456L18.1283 11.5019C17.9335 12.6385 17.4588 13.6985 16.7628 14.5851L24.6226 15.9325C24.8496 15.9714 25.0778 15.8607 25.1925 15.6592C25.3073 15.4578 25.2885 15.2013 25.1418 15.0192L23.1447 12.551L28.175 14.2515C28.4056 14.3303 28.6613 14.2422 28.801 14.0378C28.9406 13.8335 28.9356 13.558 28.7839 13.3643L25.1911 8.7713Z" fill="#E74343"/>
<path d="M3.84869 7.33239C3.78201 7.38303 3.72389 7.4451 3.66585 7.50265C3.53163 7.65125 3.4343 7.82081 3.29363 7.96253C2.9676 8.2925 2.43814 8.35729 2.03662 8.13586C2.08314 8.35085 2.1937 8.53996 2.3157 8.70222C2.76092 9.29414 3.56098 9.53857 4.25624 9.27616C4.27832 9.26755 4.3004 9.25893 4.32888 9.25945C4.37709 9.26032 4.42031 9.29492 4.43702 9.3403C4.45799 9.39253 4.44387 9.44638 4.40803 9.48856C4.39738 9.50116 4.38455 9.51163 4.3702 9.51943C4.05222 9.76839 3.60226 9.80081 3.24598 9.62303C3.53718 10.0048 4.03748 10.219 4.51353 10.1983C4.62334 10.1868 4.73316 10.1752 4.84342 10.1389C4.97547 10.1097 5.10806 10.0513 5.22542 9.98578C5.60894 9.74928 5.88831 9.33281 5.9513 8.88085C6.01922 8.39967 5.94311 7.88208 5.62549 7.50663C5.2692 7.08764 4.68892 6.93285 4.18545 7.13562L4.12794 7.16388C4.02628 7.20938 3.84869 7.33239 3.84869 7.33239ZM5.21633 8.06953C5.26777 8.13358 5.32287 8.23827 5.34331 8.31979C5.42639 8.57377 5.2991 8.82394 5.15177 8.97005C5.09528 8.70077 4.90534 8.53727 4.71117 8.48642C4.53655 8.44493 4.39062 8.51442 4.22135 8.54065C4.0587 8.56475 3.92073 8.55774 3.77063 8.49416C3.85468 8.45285 3.93876 8.40929 4.00549 8.3564C4.22777 8.18686 4.32913 7.91593 4.62822 7.86274C4.65906 7.85429 4.68982 7.85034 4.72269 7.85093C4.9025 7.84743 5.09825 7.93213 5.21633 8.06953Z" fill="#E74343"/>
</svg>
