<svg width="38" height="37" viewBox="0 0 38 37" fill="none" xmlns="http://www.w3.org/2000/svg">
<g filter="url(#filter0_d_737_26)">
<path d="M4 27C10.5 23.5 29.5 14 32.5 11.5" stroke="#E74343" stroke-width="4" stroke-linecap="round"/>
<path d="M8.10942 19.5356C10.0351 17.5448 10.316 14.4977 8.70828 12.2423C8.47345 11.9129 8.22498 11.6027 7.96481 11.3268C7.44301 10.7735 6.60532 10.7797 6.00923 11.2521C5.35886 11.7676 4.64172 12.4141 3.96055 13.0912C1.99635 15.0439 1.65134 18.0539 3.4262 20.1801C3.71533 20.5265 4.02513 20.8534 4.35346 21.1461C4.90503 21.6377 5.71753 21.6309 6.30083 21.1773C6.91091 20.703 7.53014 20.1345 8.10942 19.5356Z" fill="#E74343"/>
<path d="M19.1096 28.8075C20.714 31.0652 23.6581 31.8995 26.1698 30.7321C26.5367 30.5616 26.8871 30.3741 27.206 30.1689C27.8456 29.7573 27.9929 28.9326 27.6376 28.2601C27.25 27.5263 26.7458 26.7029 26.2049 25.9092C24.645 23.6206 21.7491 22.7301 19.3338 24.0855C18.9403 24.3063 18.5622 24.551 18.2143 24.8201C17.63 25.2723 17.4879 26.0723 17.8269 26.7289C18.1815 27.4155 18.6269 28.1284 19.1096 28.8075Z" fill="#E74343"/>
<path d="M27.4328 24.2951C29.1804 26.444 32.1724 27.0855 34.6031 25.7576C34.9581 25.5636 35.2956 25.3538 35.6005 25.1283C36.2121 24.6761 36.3055 23.8436 35.9074 23.1955C35.473 22.4885 34.9164 21.6995 34.3251 20.9426C32.6201 18.76 29.6725 18.0592 27.3502 19.5685C26.9719 19.8144 26.6104 20.083 26.2808 20.3742C25.727 20.8634 25.6371 21.6709 26.018 22.304C26.4164 22.9662 26.9071 23.6487 27.4328 24.2951Z" fill="#E74343"/>
<path d="M10.0017 33.1131C11.9936 35.0376 15.0409 35.3168 17.2953 33.7077C17.6246 33.4727 17.9346 33.2241 18.2104 32.9637C18.7635 32.4416 18.7567 31.6039 18.284 31.0081C17.7682 30.358 17.1212 29.6413 16.4437 28.9605C14.4899 26.9974 11.4797 26.6542 9.35451 28.4302C9.00831 28.7196 8.68154 29.0296 8.38907 29.3581C7.89775 29.9099 7.90508 30.7224 8.35894 31.3055C8.83364 31.9153 9.40243 32.5342 10.0017 33.1131Z" fill="#E74343"/>
<path d="M17.6877 14.5209C19.4113 12.3528 19.3955 9.29276 17.5767 7.20387C17.311 6.89876 17.0337 6.61416 16.748 6.36477C16.175 5.86459 15.3418 5.95203 14.7944 6.48001C14.197 7.05607 13.5459 7.76905 12.9336 8.50905C11.168 10.6429 11.1164 13.6722 13.089 15.6163C13.4104 15.933 13.7504 16.2284 14.1056 16.4879C14.7022 16.9237 15.5102 16.8381 16.0468 16.3302C16.608 15.7989 17.1692 15.1731 17.6877 14.5209Z" fill="#E74343"/>
<path d="M26.757 9.50526C28.7866 7.62047 29.2304 4.5928 27.7458 2.2545C27.529 1.91296 27.2975 1.58995 27.0525 1.30048C26.5611 0.719942 25.7243 0.681312 25.1037 1.1211C24.4267 1.60094 23.6759 2.20809 22.9594 2.84777C20.8934 4.69236 20.3876 7.67955 22.046 9.89782C22.3161 10.2592 22.608 10.6023 22.9201 10.9121C23.4446 11.4326 24.2563 11.4693 24.863 11.0477C25.4977 10.6067 26.1465 10.0723 26.757 9.50526Z" fill="#E74343"/>
</g>
<defs>
<filter id="filter0_d_737_26" x="0.999619" y="0.823792" width="36.1479" height="35.9319" filterUnits="userSpaceOnUse" color-interpolation-filters="sRGB">
<feFlood flood-opacity="0" result="BackgroundImageFix"/>
<feColorMatrix in="SourceAlpha" type="matrix" values="0 0 0 0 0 0 0 0 0 0 0 0 0 0 0 0 0 0 127 0" result="hardAlpha"/>
<feOffset dy="1"/>
<feGaussianBlur stdDeviation="0.5"/>
<feComposite in2="hardAlpha" operator="out"/>
<feColorMatrix type="matrix" values="0 0 0 0 0.905882 0 0 0 0 0.262745 0 0 0 0 0.262745 0 0 0 0.4 0"/>
<feBlend mode="normal" in2="BackgroundImageFix" result="effect1_dropShadow_737_26"/>
<feBlend mode="normal" in="SourceGraphic" in2="effect1_dropShadow_737_26" result="shape"/>
</filter>
</defs>
</svg>
