<svg width="46" height="46" viewBox="0 0 46 46" fill="none" xmlns="http://www.w3.org/2000/svg">
<g filter="url(#filter0_d_740_18)">
<path d="M4.88286 32.9594C12.8175 28.6869 36.0111 17.0901 39.6732 14.0383" stroke="#E74343" stroke-width="4" stroke-linecap="round"/>
<path d="M10.5527 23.146C12.4029 21.0848 12.624 18.0941 11.1608 15.7424C10.6743 14.9604 10.1263 14.2185 9.53135 13.6305C8.99041 13.0959 8.15448 13.1026 7.55178 13.5665C6.48949 14.3842 5.25379 15.5213 4.16401 16.6655C2.25388 18.6711 1.96594 21.637 3.59406 23.8776C4.1574 24.6528 4.80223 25.388 5.51468 25.9866C6.0804 26.4618 6.88986 26.4555 7.48092 26.0121C8.52741 25.2271 9.60735 24.1992 10.5527 23.146Z" fill="#E74343"/>
<path d="M23.897 35.9366C25.5845 38.1329 28.4841 38.8981 31.064 37.8905C31.9218 37.5554 32.7516 37.1525 33.4386 36.6753C34.0633 36.2415 34.2098 35.4185 33.8641 34.741C33.2548 33.5469 32.3633 32.1238 31.4381 30.8429C29.8163 28.5977 26.9532 27.7714 24.4524 28.9616C23.587 29.3735 22.7462 29.8727 22.0273 30.4635C21.4564 30.9326 21.3144 31.7295 21.642 32.3918C22.222 33.5644 23.0348 34.8143 23.897 35.9366Z" fill="#E74343"/>
<path d="M34.1062 30.3897C35.9325 32.472 38.8757 33.0474 41.3848 31.8745C42.2191 31.4845 43.0209 31.0286 43.6756 30.5079C44.2708 30.0344 44.3636 29.2036 43.9747 28.55C43.2892 27.3979 42.3073 26.0357 41.3008 24.8175C39.5368 22.6823 36.6262 22.0435 34.2078 23.3934C33.371 23.8605 32.5643 24.4133 31.8853 25.0494C31.3461 25.5546 31.256 26.359 31.6259 26.9987C32.2808 28.1311 33.173 29.3257 34.1062 30.3897Z" fill="#E74343"/>
<path d="M12.9108 41.0746C14.973 42.9236 17.9639 43.143 20.3148 41.6785C21.0964 41.1915 21.838 40.643 22.4257 40.0478C22.96 39.5065 22.9529 38.6706 22.4886 38.0681C21.6702 37.0063 20.5325 35.7713 19.3876 34.6822C17.381 32.7732 14.4148 32.487 12.1752 34.1164C11.4003 34.6802 10.6655 35.3254 10.0673 36.0382C9.59239 36.6042 9.59917 37.4137 10.0429 38.0045C10.8285 39.0505 11.8571 40.1299 12.9108 41.0746Z" fill="#E74343"/>
<path d="M22.174 16.9647C23.8156 14.7339 23.7458 11.7358 22.0615 9.53699C21.5015 8.80589 20.8841 8.12063 20.235 7.59306C19.6447 7.11334 18.8134 7.20106 18.2585 7.72125C17.2805 8.63811 16.1608 9.88958 15.1871 11.1341C13.4804 13.3154 13.4814 16.2953 15.3191 18.3674C15.9549 19.0844 16.668 19.7536 17.4351 20.2803C18.0442 20.6985 18.8493 20.6137 19.3946 20.1151C20.36 19.2324 21.3352 18.1046 22.174 16.9647Z" fill="#E74343"/>
<path d="M33.3527 10.9379C35.3107 8.97886 35.6918 6.00428 34.3567 3.57752C33.9128 2.77063 33.4053 2.00044 32.8427 1.38139C32.3312 0.818491 31.4962 0.780395 30.8695 1.21138C29.7649 1.97101 28.47 3.04018 27.3205 4.12436C25.3056 6.0247 24.8592 8.97096 26.3649 11.2956C26.8859 12.0999 27.4904 12.8686 28.1697 13.5044C28.7092 14.0093 29.5178 14.0464 30.1318 13.6353C31.2188 12.9075 32.3523 11.9389 33.3527 10.9379Z" fill="#E74343"/>
</g>
<defs>
<filter id="filter0_d_740_18" x="1.53275" y="0.919678" width="43.6761" height="43.7185" filterUnits="userSpaceOnUse" color-interpolation-filters="sRGB">
<feFlood flood-opacity="0" result="BackgroundImageFix"/>
<feColorMatrix in="SourceAlpha" type="matrix" values="0 0 0 0 0 0 0 0 0 0 0 0 0 0 0 0 0 0 127 0" result="hardAlpha"/>
<feOffset dy="1"/>
<feGaussianBlur stdDeviation="0.5"/>
<feComposite in2="hardAlpha" operator="out"/>
<feColorMatrix type="matrix" values="0 0 0 0 0.905882 0 0 0 0 0.262745 0 0 0 0 0.262745 0 0 0 0.4 0"/>
<feBlend mode="normal" in2="BackgroundImageFix" result="effect1_dropShadow_740_18"/>
<feBlend mode="normal" in="SourceGraphic" in2="effect1_dropShadow_740_18" result="shape"/>
</filter>
</defs>
</svg>
