<svg width="342" height="330" viewBox="0 0 342 330" fill="none" xmlns="http://www.w3.org/2000/svg">
<path d="M1.95682 243.621C3.71988 240.095 6.5613 237.223 10.0683 235.422L177.478 149.455L256.876 102.75L276.13 91.1974C278.812 89.5886 281.88 88.7389 285.006 88.7389V88.7389C290.775 88.7389 296.161 91.6217 299.361 96.4211L300.669 98.3831C302.567 101.231 303.58 104.577 303.58 107.999V107.999C303.58 110.69 302.954 113.344 301.75 115.751L301.245 116.762C299.709 119.833 297.48 122.505 294.732 124.565L280.228 135.444L247.535 154.125L172.807 196.16L27.9018 268.612C24.9099 270.108 21.6109 270.887 18.2659 270.887H15.946C11.7168 270.887 7.66092 269.207 4.67047 266.217V266.217C1.68002 263.226 0 259.17 0 254.941V251.91C0 249.033 0.669959 246.195 1.95682 243.621V243.621Z" fill="#E74343"/>
<path d="M12.6491 167.621C10.9204 158.977 11.743 150.018 15.0167 141.833L16.8849 137.163C18.5152 133.087 20.675 129.244 23.3087 125.732L29.7016 117.209C32.1178 113.987 35.0643 111.2 38.415 108.966L44.0817 105.188C46.2217 103.761 48.7362 103 51.3083 103V103C54.7635 103 58.0772 104.373 60.5205 106.816L64.2434 110.539C65.4419 111.737 66.5191 113.051 67.4593 114.462L69.8998 118.122C73.5225 123.556 76.0455 129.647 77.3264 136.052L77.852 138.68C79.3039 145.939 79.1256 153.43 77.3301 160.612L76.7177 163.062C75.8329 166.601 74.5634 170.033 72.9319 173.296L70.7161 177.727L69.9395 179.28C67.3734 184.413 63.7374 188.936 59.2764 192.545L58.8945 192.854C55.9818 195.21 52.7276 197.11 49.2436 198.489L44.6334 200.312C43.3515 200.819 41.9854 201.08 40.6069 201.08V201.08C38.9075 201.08 37.2315 200.684 35.7115 199.924L33.3523 198.745C30.2809 197.209 27.6092 194.979 25.5488 192.232L20.8546 185.973C16.7836 180.545 13.9798 174.274 12.6491 167.621V167.621Z" fill="#E74343"/>
<path d="M99.0914 117.83C97.3627 109.187 98.1853 100.227 101.459 92.0429L103.327 87.3724C104.957 83.2967 107.117 79.4535 109.751 75.9419L116.144 67.4181C118.56 64.1965 121.507 61.4091 124.857 59.1753L130.524 55.3976C132.664 53.9708 135.178 53.2095 137.751 53.2095V53.2095C141.206 53.2095 144.52 54.5821 146.963 57.0253L150.686 60.7483C151.884 61.9468 152.961 63.2608 153.902 64.6711L156.342 68.3318C159.965 73.7658 162.488 79.857 163.769 86.261L164.294 88.8892C165.746 96.1486 165.568 103.64 163.772 110.822L163.16 113.271C162.275 116.81 161.006 120.242 159.374 123.505L157.158 127.937L155.629 130.996C153.554 135.146 150.708 138.863 147.243 141.949V141.949C143.779 145.034 139.76 147.432 135.401 149.015L131.01 150.609C129.77 151.059 128.461 151.289 127.141 151.289V151.289C125.381 151.289 123.646 150.88 122.071 150.092L119.795 148.954C116.723 147.418 114.051 145.189 111.991 142.441L107.297 136.183C103.226 130.754 100.422 124.484 99.0914 117.83V117.83Z" fill="#E74343"/>
<path d="M190.102 64.3769C189.57 55.5784 191.608 46.815 195.969 39.1547L198.458 34.783C200.629 30.9683 203.294 27.4561 206.383 24.337L213.88 16.7663C216.713 13.9048 220.013 11.5461 223.637 9.79082L229.767 6.8224C232.082 5.70134 234.677 5.29058 237.225 5.64187V5.64187C240.647 6.11378 243.743 7.92609 245.829 10.6801L249.009 14.8767C250.032 16.2276 250.92 17.6764 251.659 19.2019L253.577 23.1617C256.423 29.0396 258.091 35.4182 258.485 41.9372L258.646 44.6125C259.093 52.0021 257.894 59.3988 255.134 66.2683L254.193 68.6112C252.833 71.9964 251.107 75.2226 249.045 78.2322L246.244 82.3198L244.592 84.8331C240.909 90.434 235.705 94.8676 229.59 97.6129V97.6129C227.535 98.5355 225.396 99.2588 223.202 99.7728L217.297 101.157C215.973 101.467 214.604 101.531 213.258 101.345V101.345C211.555 101.11 209.93 100.482 208.511 99.5105L206.36 98.0368C203.527 96.096 201.185 93.5222 199.519 90.5194L195.724 83.678C192.432 77.7447 190.511 71.1497 190.102 64.3769V64.3769Z" fill="#E74343"/>
<path d="M91.213 262.261C101.193 259.614 111.747 260.122 121.427 263.714L123.93 264.644C128.046 266.171 131.942 268.233 135.519 270.778L144.201 276.955C147.482 279.289 150.342 282.165 152.66 285.458L156.579 291.028C158.059 293.132 158.883 295.626 158.948 298.197V298.197C159.035 301.652 157.746 304.999 155.365 307.503L151.736 311.318C150.568 312.546 149.282 313.656 147.896 314.631L144.298 317.163C138.956 320.921 132.93 323.597 126.561 325.038L123.946 325.63C116.726 327.263 109.233 327.274 102.008 325.659L99.5436 325.108C95.9833 324.313 92.5207 323.13 89.2178 321.581L84.7317 319.477L83.4433 318.728C77.1387 315.064 71.712 310.064 67.5437 304.081L65.5862 301.271L61.7789 294.112C61.0578 292.756 60.6623 291.251 60.6237 289.716V289.716C60.5851 288.181 60.9045 286.657 61.5565 285.267L62.9327 282.333C64.2961 279.425 66.2379 276.827 68.6395 274.695L71.501 272.155C76.4317 267.779 82.3192 264.62 88.6914 262.93L91.213 262.261Z" fill="#E74343"/>
<path d="M187.052 217.074C196.669 215.815 206.445 217.381 215.188 221.58L218.501 223.171C222.457 225.071 226.147 227.485 229.474 230.348L237.548 237.299C240.6 239.927 243.183 243.054 245.187 246.547L248.576 252.455C249.855 254.686 250.446 257.246 250.273 259.812V259.812C250.041 263.26 248.449 266.474 245.847 268.747L241.882 272.211C240.606 273.327 239.222 274.313 237.752 275.156L233.936 277.345C228.27 280.595 222.024 282.703 215.548 283.55L212.89 283.898C205.55 284.859 198.088 284.178 191.042 281.904L188.562 281.103C185.142 279.999 181.853 278.524 178.754 276.705V276.705C175.866 275.009 173.158 273.023 170.673 270.778L168.91 269.186C165.977 266.535 163.368 263.547 161.139 260.282L158.8 256.857C157.62 255.13 156.619 253.288 155.812 251.359L153.895 246.78C153.303 245.364 153.048 243.828 153.151 242.296V242.296C153.254 240.764 153.712 239.277 154.49 237.952L156.359 234.768C157.839 232.248 159.74 230.001 161.981 228.124L163.849 226.559C166.274 224.527 168.934 222.793 171.772 221.394L171.993 221.285C176.087 219.266 180.486 217.933 185.013 217.341L187.052 217.074Z" fill="#E74343"/>
<path d="M265.79 166.003C274.851 162.544 284.723 161.794 294.203 163.846L297.794 164.624C302.084 165.553 306.233 167.042 310.135 169.055L319.604 173.939C323.183 175.785 326.422 178.226 329.183 181.158L333.851 186.116C335.615 187.989 336.784 190.341 337.212 192.877V192.877C337.788 196.284 336.986 199.78 334.984 202.596L331.933 206.887C330.951 208.269 329.835 209.55 328.601 210.712L325.397 213.728C320.643 218.205 315.057 221.707 308.955 224.036L306.451 224.992C299.535 227.633 292.119 228.705 284.738 228.13L282.221 227.934C278.584 227.651 274.988 226.971 271.499 225.906L270.365 225.559C267.966 224.827 265.624 223.914 263.361 222.83L261.985 222.171C255.604 219.113 249.945 214.737 245.381 209.33L245.228 209.149L240.445 202.602C239.539 201.362 238.934 199.928 238.679 198.414V198.414C238.423 196.899 238.523 195.346 238.972 193.878L240.023 190.435C240.894 187.583 242.265 184.908 244.073 182.537L245.781 180.295C247.588 177.924 249.68 175.732 251.959 173.809V173.809C255.546 170.782 259.667 168.341 264.052 166.667L265.79 166.003Z" fill="#E74343"/>
</svg>
