<svg width="335" height="321" viewBox="0 0 335 321" fill="none" xmlns="http://www.w3.org/2000/svg">
<path d="M19.0669 236.8C20.7214 233.396 23.4177 230.607 26.7646 228.838L182.104 146.765L255.843 102.136L273.733 91.0919C276.216 89.5591 279.076 88.7473 281.994 88.7473V88.7473C287.326 88.7473 292.294 91.4481 295.193 95.9222L296.49 97.9237C298.271 100.673 299.219 103.879 299.219 107.155V107.155C299.219 109.726 298.635 112.263 297.511 114.575L297.072 115.48C295.631 118.445 293.523 121.036 290.914 123.049L277.531 133.376L247.168 151.228L177.767 191.394L43.1788 260.632C40.4088 262.057 37.3386 262.8 34.2235 262.8H32.2998C28.241 262.8 24.3549 261.158 21.526 258.248V258.248C18.8005 255.443 17.2758 251.687 17.2758 247.776V244.584C17.2758 241.887 17.8882 239.226 19.0669 236.8V236.8Z" fill="#E74343"/>
<path d="M259.609 171.606C267.928 167.566 277.225 166.097 286.315 167.385L291.057 168.057C294.02 168.477 296.937 169.166 299.771 170.114L301.476 170.685C304.048 171.546 306.543 172.618 308.936 173.891L313.152 176.133C314.707 176.96 316.198 177.923 317.593 178.997V178.997C320.392 181.153 322.827 183.782 324.761 186.749L326.335 189.164C326.959 190.121 327.442 191.165 327.768 192.265V192.265C328.647 195.225 328.348 198.426 326.935 201.197L326.28 202.481C325.944 203.138 325.563 203.772 325.139 204.376L322.812 207.694L318.993 212.003C314.559 217.008 309.189 221.084 303.196 223.995L302.673 224.249C295.83 227.572 288.344 229.293 280.782 229.283L279.966 229.282C276.26 229.276 272.572 228.855 268.968 228.026L268.621 227.946C266.16 227.38 263.748 226.625 261.406 225.689L260.644 225.384C254.318 222.856 248.612 219.003 243.902 214.077V214.077L239.892 209.101C239.082 208.095 238.431 206.97 237.96 205.763V205.763C237.043 203.414 236.841 200.836 237.381 198.354L237.887 196.025C238.405 193.641 239.337 191.364 240.638 189.297L242.351 186.577C243.87 184.166 245.648 181.925 247.65 179.899V179.899C250.771 176.739 254.405 174.134 258.387 172.2L259.609 171.606Z" fill="#E74343"/>
<path d="M68.9732 178.847C74.3943 171.224 77.537 162.153 78.031 152.703L78.2975 147.606C78.4517 144.658 78.3503 141.697 77.9946 138.759L77.7428 136.68C77.4158 133.979 76.8748 131.306 76.1251 128.687L74.7514 123.888C74.2673 122.197 73.6468 120.548 72.8963 118.957L72.8184 118.792C71.3231 115.622 69.3103 112.728 66.8666 110.234L64.8293 108.154C64.0347 107.343 63.1267 106.656 62.1356 106.116V106.116C59.4882 104.673 56.3982 104.358 53.5531 105.24L52.0801 105.697C51.4095 105.905 50.7549 106.161 50.1212 106.464L46.479 108.203L41.3161 111.45C35.9125 114.847 31.2209 119.285 27.4998 124.518L26.4451 126.001C22.2485 131.902 19.3814 138.682 18.0438 145.866L17.7052 147.685C17.0434 151.239 16.7619 154.862 16.8656 158.488L16.8871 159.241C16.9587 161.748 17.2143 164.249 17.6515 166.723L17.849 167.84C19.0415 174.588 21.6273 181.021 25.435 186.713V186.713L29.4372 191.722C30.2342 192.72 31.1794 193.585 32.2377 194.287V194.287C34.3056 195.659 36.73 196.355 39.1808 196.28L41.5873 196.208C43.917 196.137 46.2096 195.643 48.357 194.75L51.4433 193.466C53.9938 192.404 56.4192 191.062 58.6765 189.463L58.8085 189.369C62.3878 186.834 65.5193 183.705 68.0751 180.11L68.9732 178.847Z" fill="#E74343"/>
<path d="M146.899 129.515C152.926 122.387 156.802 113.618 158.068 104.246L158.749 99.2063C159.146 96.2706 159.288 93.3016 159.173 90.3339L159.094 88.2627C158.989 85.5371 158.668 82.8219 158.135 80.1437L157.161 75.2534C156.817 73.5231 156.333 71.8231 155.714 70.1709L155.655 70.0121C154.422 66.718 152.652 63.6556 150.419 60.9563L148.562 58.7109C147.836 57.8337 146.988 57.0705 146.045 56.4465V56.4465C143.524 54.7785 140.469 54.1972 137.556 54.8312L136.062 55.1562C135.375 55.3058 134.7 55.505 134.041 55.7524L130.273 57.1686L124.893 59.94C119.21 62.8673 114.151 66.8995 109.996 71.8134L108.893 73.1183C104.202 78.666 100.77 85.2108 98.8379 92.2928L98.3748 93.9906C97.4198 97.4914 96.84 101.092 96.6455 104.73L96.6071 105.448C96.4728 107.96 96.5227 110.482 96.7564 112.991L96.8592 114.095C97.496 120.933 99.5463 127.572 102.874 133.574V133.574L106.451 138.911C107.164 139.976 108.036 140.921 109.033 141.712V141.712C110.981 143.258 113.34 144.161 115.79 144.3L118.186 144.435C120.517 144.567 122.847 144.273 125.067 143.567L128.232 142.56C130.864 141.722 133.395 140.593 135.78 139.192L135.908 139.117C139.684 136.899 143.065 134.049 145.91 130.684L146.899 129.515Z" fill="#E74343"/>
<path d="M230.093 88.1724C236.571 81.4752 241.013 72.9893 242.886 63.7282L243.89 58.76C244.479 55.8487 244.815 52.8873 244.895 49.9101L244.95 47.8577C245.023 45.1262 244.879 42.3909 244.521 39.6786L243.87 34.7416C243.638 32.9885 243.266 31.2565 242.756 29.5635L242.71 29.4121C241.693 26.0349 240.124 22.8537 238.071 20.0045L236.367 17.6389C235.7 16.7137 234.903 15.8939 234.003 15.2065V15.2065C231.596 13.3678 228.584 12.5777 225.63 13.0102L224.129 13.23C223.432 13.3321 222.743 13.4847 222.068 13.6868L218.219 14.8391L212.698 17.2215C206.82 19.758 201.491 23.4462 197.007 28.0808L195.886 29.2394C190.82 34.4767 186.95 40.8021 184.549 47.7684L184.002 49.3577C182.816 52.7989 182 56.3655 181.567 59.995L181.486 60.6783C181.187 63.1825 181.072 65.7079 181.142 68.2335L181.172 69.319C181.363 76.195 182.976 82.966 185.906 89.1839V89.1839L189.126 94.7542C189.769 95.8662 190.577 96.8698 191.521 97.7284V97.7284C193.364 99.405 195.658 100.469 198.095 100.776L200.47 101.076C202.791 101.368 205.14 101.235 207.406 100.682L210.616 99.8987C213.3 99.2438 215.903 98.29 218.379 97.0544L218.5 96.9938C222.415 95.0401 225.977 92.4266 229.039 89.2613L230.093 88.1724Z" fill="#E74343"/>
<path d="M182.868 215.587C191.843 213.503 201.233 214.147 209.832 217.437L214.306 219.148C217.118 220.224 219.827 221.552 222.4 223.116L223.928 224.045C226.26 225.462 228.472 227.069 230.541 228.848L234.176 231.974C235.521 233.131 236.773 234.403 237.909 235.765V235.765C240.19 238.499 242.008 241.607 243.27 244.937L244.295 247.643C244.702 248.717 244.953 249.844 245.039 250.99V250.99C245.272 254.077 244.303 257.136 242.335 259.529L241.43 260.628C240.963 261.196 240.456 261.73 239.913 262.226L236.942 264.943L232.329 268.278C226.928 272.183 220.804 274.97 214.315 276.477L213.842 276.587C206.426 278.308 198.717 278.315 191.303 276.605L190.582 276.439C186.952 275.602 183.427 274.362 180.074 272.741L179.777 272.598C177.49 271.492 175.29 270.214 173.197 268.773L172.535 268.318C166.887 264.43 162.128 259.39 158.57 253.529V253.529L155.766 248.088C155.11 246.816 154.67 245.444 154.464 244.028V244.028C154.105 241.564 154.465 239.048 155.499 236.782L156.486 234.621C157.512 232.372 158.927 230.322 160.666 228.564L162.865 226.34C164.857 224.325 167.064 222.536 169.448 221.006V221.006C173.164 218.619 177.262 216.888 181.563 215.89L182.868 215.587Z" fill="#E74343"/>
<path d="M101.868 255.713C110.843 253.629 120.233 254.274 128.832 257.563L133.306 259.275C136.118 260.351 138.827 261.679 141.4 263.242L142.928 264.171C145.26 265.589 147.472 267.196 149.541 268.975L153.176 272.101C154.521 273.257 155.773 274.529 156.909 275.891V275.891C159.19 278.626 161.008 281.734 162.27 285.064L163.295 287.77C163.702 288.844 163.953 289.971 164.039 291.117V291.117C164.272 294.204 163.303 297.263 161.335 299.655L160.43 300.755C159.963 301.323 159.456 301.857 158.913 302.353L155.942 305.069L151.329 308.405C145.928 312.31 139.804 315.097 133.315 316.604L132.842 316.713C125.426 318.435 117.717 318.442 110.303 316.732L109.582 316.566C105.952 315.729 102.427 314.489 99.0738 312.868L98.7774 312.725C96.4896 311.619 94.2898 310.341 92.1969 308.9L91.5348 308.444C85.8871 304.557 81.1278 299.517 77.5699 293.656V293.656L74.7656 288.215C74.1102 286.943 73.6704 285.571 73.4641 284.155V284.155C73.1052 281.691 73.4646 279.175 74.4993 276.909L75.4859 274.747C76.5124 272.499 77.9273 270.448 79.6656 268.69L81.865 266.466C83.8568 264.452 86.0643 262.663 88.4476 261.132V261.132C92.1639 258.745 96.2621 257.015 100.563 256.016L101.868 255.713Z" fill="#E74343"/>
</svg>
