<svg width="16" height="19" viewBox="0 0 17 21" fill="none" xmlns="http://www.w3.org/2000/svg">
<path d="M2.40001 1.3125C2.40001 0.586523 1.86375 0 1.2 0C0.53625 0 0 0.586523 0 1.3125V2.625V15.0937V19.6875C0 20.4135 0.53625 21 1.2 21C1.86375 21 2.40001 20.4135 2.40001 19.6875V14.4375L4.81125 13.7771C6.3525 13.3547 7.98375 13.5516 9.405 14.3268C11.0625 15.2333 12.9862 15.344 14.7188 14.6303L16.0201 14.097C16.4888 13.9043 16.8 13.4162 16.8 12.8666V2.71113C16.8 1.76778 15.8925 1.15254 15.12 1.575L14.7601 1.77188C13.0238 2.72343 10.98 2.72343 9.24375 1.77188C7.9275 1.05 6.41626 0.869532 4.9875 1.25918L2.40001 1.96875V1.3125Z" fill="#E74343"/>
</svg>
