<svg width="29" height="28" viewBox="0 0 29 28" fill="none" xmlns="http://www.w3.org/2000/svg">
<path d="M14.4462 0C-2.09723 0.346558 -5.53961 22.5451 9.93513 27.8696C10.6572 28.0045 10.927 27.5521 10.927 27.1765V24.7404C6.88136 25.6119 6.02584 22.8307 6.02584 22.8307C5.75436 21.9603 5.17696 21.2176 4.40036 20.7398C3.09243 19.8524 4.50476 19.8669 4.50476 19.8669C4.96732 19.9278 5.40935 20.0955 5.79591 20.3567C6.18247 20.618 6.50295 20.9656 6.73201 21.372C7.14218 22.086 7.81624 22.6105 8.60917 22.8326C9.40209 23.0547 10.2505 22.9567 10.9719 22.5596C11.0473 21.8346 11.3707 21.1603 11.8898 20.6499C8.6562 20.2874 5.27183 19.0549 5.27183 13.581C5.2518 12.1548 5.79225 10.7776 6.77696 9.74566C6.32146 8.5026 6.37514 7.12998 6.92631 5.92628C6.92631 5.92628 8.14434 5.54927 10.9284 7.42996C13.3117 6.78322 15.8243 6.78322 18.2076 7.42996C20.9742 5.57972 22.1922 5.92483 22.1922 5.92483C22.7215 7.12546 22.7694 8.48123 22.3271 9.71521C23.3114 10.7473 23.8514 12.1245 23.8308 13.5505C23.8308 19.0404 20.4319 20.2584 17.1983 20.6049C18.7035 21.4025 18.0713 26.5298 18.1612 27.162C18.1612 27.5376 18.4164 27.9885 19.1689 27.8537C34.6002 22.5755 30.9896 0.346558 14.4462 0Z" fill="#3A3A3A"/>
</svg>
