<svg width="22" height="17" viewBox="0 0 22 17" fill="none" xmlns="http://www.w3.org/2000/svg">
<path d="M4.52908 1.82143C4.08992 1.82143 3.71186 2.12121 3.61257 2.54621L2.17671 8.66317C2.95956 8.4279 4.02118 8.19643 5.18209 8.19643C6.41555 8.19643 7.54209 8.45826 8.34404 8.70871C8.74883 8.83393 9.08106 8.96295 9.31401 9.05781C9.43239 9.10714 9.52404 9.14888 9.59278 9.17924C9.62715 9.19442 9.65388 9.2058 9.67297 9.21719L9.69589 9.22857L9.70352 9.23237H9.70734C9.70734 9.23237 9.70734 9.23237 9.46676 9.71429L9.70734 9.23237C9.92883 9.34241 10.1045 9.50938 10.2229 9.71429H11.7733C11.8917 9.51317 12.0673 9.34241 12.2888 9.23237L12.5294 9.71429C12.2888 9.23237 12.2888 9.23237 12.2888 9.23237H12.2927L12.3003 9.22857L12.3232 9.21719C12.3423 9.2096 12.369 9.19442 12.4034 9.17924C12.4721 9.14888 12.5638 9.10714 12.6822 9.05781C12.9151 8.95915 13.2474 8.83393 13.6521 8.70871C14.4541 8.45826 15.5768 8.19643 16.8141 8.19643C17.975 8.19643 19.0366 8.4279 19.8195 8.66317L18.3836 2.54621C18.2843 2.12121 17.9024 1.82143 17.4671 1.82143C17.3487 1.82143 17.2303 1.8442 17.1158 1.88973L15.9205 2.36406C15.4508 2.55 14.9162 2.32232 14.729 1.85558C14.5419 1.38884 14.771 0.857589 15.2408 0.671652L16.436 0.197321C16.7645 0.0683036 17.112 0 17.4671 0C18.7579 0 19.8768 0.884152 20.1708 2.13259L21.8472 9.26652C21.9122 9.54353 21.958 9.82433 21.9809 10.1051C21.9924 10.1772 22 10.2493 22 10.3214V10.5757V12.1429V12.75C22 15.0989 20.0868 17 17.723 17H16.0274C13.7591 17 11.884 15.2393 11.758 12.9853L11.7084 12.1429H10.2878L10.242 12.9853C10.116 15.2393 8.24093 17 5.96876 17H4.27704C1.91321 17 0 15.0989 0 12.75V12.1429V10.5757V10.3214C0 10.2493 0.00763756 10.1772 0.0190939 10.1051C0.0420066 9.82433 0.087832 9.54353 0.152751 9.26652L1.8292 2.13259C2.11942 0.884152 3.23833 0 4.52908 0C4.8804 0 5.23173 0.0683036 5.56015 0.197321L6.75542 0.671652C7.22513 0.857589 7.45426 1.38884 7.26714 1.85558C7.08002 2.32232 6.54539 2.55 6.07568 2.36406L4.8804 1.88973C4.76966 1.8442 4.65128 1.82143 4.52908 1.82143ZM2.44402 11.1335V12.75C2.44402 13.7556 3.26506 14.5714 4.27704 14.5714H5.96876C6.94255 14.5714 7.74449 13.8163 7.79795 12.8525L7.89342 11.1221C7.80559 11.0917 7.7063 11.0576 7.60701 11.0272C6.95018 10.8223 6.08332 10.6288 5.17827 10.6288C4.27322 10.6288 3.41399 10.8223 2.7648 11.0272C2.64642 11.0652 2.53949 11.0993 2.4402 11.1373L2.44402 11.1335ZM19.5522 12.75V11.1335C19.4529 11.0993 19.3421 11.0614 19.2276 11.0234C18.5784 10.8185 17.7191 10.625 16.8141 10.625C15.909 10.625 15.0422 10.8185 14.3854 11.0234C14.2822 11.0538 14.1868 11.0879 14.0989 11.1183L14.1944 12.8487C14.2479 13.8125 15.0536 14.5676 16.0236 14.5676H17.7191C18.7311 14.5676 19.5522 13.7518 19.5522 12.7462V12.75Z" fill="#D2D2D2"/>
</svg>
