<svg width="30" height="18" viewBox="0 0 30 18" fill="none" xmlns="http://www.w3.org/2000/svg">
<path d="M15.1594 0.99375L10.6219 4.66875C9.86719 5.27813 9.72188 6.375 10.2938 7.15781C10.8984 7.99219 12.075 8.15625 12.8859 7.52344L17.5406 3.90469C17.8688 3.65156 18.3375 3.70781 18.5953 4.03594C18.8531 4.36406 18.7922 4.83281 18.4641 5.09063L17.4844 5.85L24 11.85V3H23.9672L23.7844 2.88281L20.3812 0.703125C19.6641 0.24375 18.825 0 17.9719 0C16.95 0 15.9562 0.351562 15.1594 0.99375ZM16.2281 6.825L13.8047 8.70938C12.3281 9.8625 10.1859 9.5625 9.07969 8.04375C8.03906 6.61406 8.30156 4.61719 9.675 3.50625L13.575 0.351563C13.0313 0.121875 12.4453 0.00468743 11.85 0.00468743C10.9688 -7.17118e-08 10.1109 0.2625 9.375 0.75L6 3V13.5H7.32187L11.6063 17.4094C12.525 18.2484 13.9453 18.1828 14.7844 17.2641C15.0422 16.9781 15.2156 16.6453 15.3047 16.2984L16.1016 17.0297C17.0156 17.8688 18.4406 17.8078 19.2797 16.8938C19.4906 16.6641 19.6453 16.3969 19.7438 16.1203C20.6531 16.7297 21.8906 16.6031 22.6547 15.7688C23.4937 14.8547 23.4328 13.4297 22.5187 12.5906L16.2281 6.825ZM0.75 3C0.3375 3 0 3.3375 0 3.75V13.5C0 14.3297 0.670312 15 1.5 15H3C3.82969 15 4.5 14.3297 4.5 13.5V3H0.75ZM2.25 12C2.44891 12 2.63968 12.079 2.78033 12.2197C2.92098 12.3603 3 12.5511 3 12.75C3 12.9489 2.92098 13.1397 2.78033 13.2803C2.63968 13.421 2.44891 13.5 2.25 13.5C2.05109 13.5 1.86032 13.421 1.71967 13.2803C1.57902 13.1397 1.5 12.9489 1.5 12.75C1.5 12.5511 1.57902 12.3603 1.71967 12.2197C1.86032 12.079 2.05109 12 2.25 12ZM25.5 3V13.5C25.5 14.3297 26.1703 15 27 15H28.5C29.3297 15 30 14.3297 30 13.5V3.75C30 3.3375 29.6625 3 29.25 3H25.5ZM27 12.75C27 12.5511 27.079 12.3603 27.2197 12.2197C27.3603 12.079 27.5511 12 27.75 12C27.9489 12 28.1397 12.079 28.2803 12.2197C28.421 12.3603 28.5 12.5511 28.5 12.75C28.5 12.9489 28.421 13.1397 28.2803 13.2803C28.1397 13.421 27.9489 13.5 27.75 13.5C27.5511 13.5 27.3603 13.421 27.2197 13.2803C27.079 13.1397 27 12.9489 27 12.75Z" fill="#E74343"/>
</svg>
