<svg width="16" height="14" viewBox="0 0 14 12" fill="none" xmlns="http://www.w3.org/2000/svg">
<path d="M6.17422 11.6734L6.10586 11.6103L1.31523 7.14543C0.475781 6.36332 0 5.26562 0 4.11578V4.02522C0 2.09327 1.36719 0.435741 3.25937 0.0735002C4.33672 -0.135063 5.43867 0.114664 6.31641 0.734864C6.5625 0.910496 6.79219 1.11357 7 1.34683C7.11484 1.21511 7.23789 1.09436 7.36914 0.981846C7.47031 0.89403 7.57422 0.811703 7.68359 0.734864C8.56133 0.114664 9.66328 -0.135063 10.7406 0.070756C12.6328 0.432997 14 2.09327 14 4.02522V4.11578C14 5.26562 13.5242 6.36332 12.6848 7.14543L7.89414 11.6103L7.82578 11.6734C7.60156 11.882 7.30625 12 7 12C6.69375 12 6.39844 11.8847 6.17422 11.6734ZM6.53789 2.80403C6.52695 2.79579 6.51875 2.78482 6.51055 2.77384L6.02383 2.22499L6.02109 2.22225C5.38945 1.51149 4.43516 1.18766 3.50547 1.36604C2.23125 1.61028 1.3125 2.72444 1.3125 4.02522V4.11578C1.3125 4.89789 1.63789 5.64707 2.20938 6.17945L7 10.6443L11.7906 6.17945C12.3621 5.64707 12.6875 4.89789 12.6875 4.11578V4.02522C12.6875 2.72719 11.7687 1.61028 10.4973 1.36604C9.56758 1.18766 8.61055 1.51423 7.98164 2.22225C7.98164 2.22225 7.98164 2.22225 7.97891 2.22499C7.97617 2.22773 7.97891 2.22499 7.97617 2.22773L7.48945 2.77658C7.48125 2.78756 7.47031 2.79579 7.46211 2.80677C7.33906 2.93026 7.17227 2.99887 7 2.99887C6.82773 2.99887 6.66094 2.93026 6.53789 2.80677V2.80403Z" fill="#E74343"/>
<path d="M13 4.50001C13 6.43301 8.933 11 7 11C5.067 11 1 6.43327 1 4.50027C1 2.56728 3.5 -0.499919 7 2.50027C12 -0.999996 13 2.56702 13 4.50001Z" fill="#E74343"/>
</svg>
