<svg width="21" height="21" viewBox="0 0 24 24" fill="none" xmlns="http://www.w3.org/2000/svg">
<path d="M18.8153 9.40585C18.8153 11.4815 18.1415 13.3988 17.0063 14.9544L22.7323 20.6838C23.2976 21.2491 23.2976 22.1671 22.7323 22.7323C22.1669 23.2976 21.2487 23.2976 20.6833 22.7323L14.9573 17.0029C13.4015 18.1424 11.4838 18.8117 9.40769 18.8117C4.21084 18.8117 0 14.6017 0 9.40585C0 4.21002 4.21084 0 9.40769 0C14.6045 0 18.8153 4.21002 18.8153 9.40585ZM9.40769 15.9176C10.2629 15.9176 11.11 15.7492 11.9002 15.4219C12.6904 15.0947 13.4082 14.615 14.0131 14.0103C14.6179 13.4057 15.0976 12.6878 15.4249 11.8978C15.7522 11.1077 15.9207 10.261 15.9207 9.40585C15.9207 8.55071 15.7522 7.70395 15.4249 6.91391C15.0976 6.12387 14.6179 5.40602 14.0131 4.80135C13.4082 4.19668 12.6904 3.71703 11.9002 3.38978C11.11 3.06254 10.2629 2.89411 9.40769 2.89411C8.55239 2.89411 7.70546 3.06254 6.91526 3.38978C6.12507 3.71703 5.40708 4.19668 4.80229 4.80135C4.1975 5.40602 3.71776 6.12387 3.39045 6.91391C3.06314 7.70395 2.89467 8.55071 2.89467 9.40585C2.89467 10.261 3.06314 11.1077 3.39045 11.8978C3.71776 12.6878 4.1975 13.4057 4.80229 14.0103C5.40708 14.615 6.12507 15.0947 6.91526 15.4219C7.70546 15.7492 8.55239 15.9176 9.40769 15.9176Z" fill="#7D7D7D"/>
</svg>
