<svg width="20" height="15" viewBox="0 0 20 15" fill="none" xmlns="http://www.w3.org/2000/svg">
<path d="M0 1.5C0 0.671573 0.671573 0 1.5 0H18.5C19.3284 0 20 0.671573 20 1.5C20 2.32843 19.3284 3 18.5 3H1.5C0.671573 3 0 2.32843 0 1.5Z" fill="#727272"/>
<path d="M0 1C0 0.447715 0.459195 0 1.02564 0H18.9744C19.5408 0 20 0.447715 20 1V2C20 2.55228 19.5408 3 18.9744 3H1.02564C0.459195 3 0 2.55228 0 2V1Z" fill="#727272"/>
<path d="M0 7.5C0 6.67157 0.671573 6 1.5 6H18.5C19.3284 6 20 6.67157 20 7.5C20 8.32843 19.3284 9 18.5 9H1.5C0.671573 9 0 8.32843 0 7.5Z" fill="#727272"/>
<path d="M0 7C0 6.44772 0.459195 6 1.02564 6H18.9744C19.5408 6 20 6.44772 20 7V8C20 8.55228 19.5408 9 18.9744 9H1.02564C0.459195 9 0 8.55228 0 8V7Z" fill="#727272"/>
<path d="M0 13.5C0 12.6716 0.671573 12 1.5 12H18.5C19.3284 12 20 12.6716 20 13.5C20 14.3284 19.3284 15 18.5 15H1.5C0.671573 15 0 14.3284 0 13.5Z" fill="#727272"/>
<path d="M0 13C0 12.4477 0.459195 12 1.02564 12H18.9744C19.5408 12 20 12.4477 20 13V14C20 14.5523 19.5408 15 18.9744 15H1.02564C0.459195 15 0 14.5523 0 14V13Z" fill="#727272"/>
</svg>
