<svg width="18" height="22" viewBox="0 0 17 21" fill="none" xmlns="http://www.w3.org/2000/svg">
<path d="M16.5717 1.13059C16.8406 1.36064 17 1.72872 17 2.11597V4.87657V14.9988C17 16.6935 15.5723 18.0661 13.8125 18.0661C12.0527 18.0661 10.625 16.6935 10.625 14.9988C10.625 13.3041 12.0527 11.9314 13.8125 11.9314C14.1844 11.9314 14.543 11.9928 14.875 12.1078V6.52527L6.375 9.46992V17.4527C6.375 19.1473 4.94727 20.52 3.1875 20.52C1.42773 20.52 0 19.1473 0 17.4527C0 15.758 1.42773 14.3853 3.1875 14.3853C3.55938 14.3853 3.91797 14.4466 4.25 14.5617V8.55738V5.79677C4.25 5.25615 4.55879 4.77689 5.00703 4.61968L15.632 0.938878C15.9541 0.827687 16.3027 0.896702 16.5717 1.13059Z" fill="#E74343"/>
</svg>
