<svg width="20" height="20" viewBox="0 0 21 21" fill="none" xmlns="http://www.w3.org/2000/svg">
<path d="M3.9375 3.43778C3.9375 1.8908 5.11465 0.633057 6.5625 0.633057H18.375C19.8229 0.633057 21 1.8908 21 3.43778V17.4614C21 19.0084 19.8229 20.2661 18.375 20.2661H3.28125C1.46836 20.2661 0 18.6972 0 16.7602V4.84013C0 4.06445 0.586523 3.43778 1.3125 3.43778C2.03848 3.43778 2.625 4.06445 2.625 4.84013V16.7602C2.625 17.1459 2.92031 17.4614 3.28125 17.4614C3.64219 17.4614 3.9375 17.1459 3.9375 16.7602V3.43778ZM6.5625 4.48954V7.99545C6.5625 8.57831 7.00137 9.04722 7.54688 9.04722H12.1406C12.6861 9.04722 13.125 8.57831 13.125 7.99545V4.48954C13.125 3.90669 12.6861 3.43778 12.1406 3.43778H7.54688C7.00137 3.43778 6.5625 3.90669 6.5625 4.48954ZM15.0938 4.13896C15.0938 4.52461 15.3891 4.84013 15.75 4.84013H17.7188C18.0797 4.84013 18.375 4.52461 18.375 4.13896C18.375 3.7533 18.0797 3.43778 17.7188 3.43778H15.75C15.3891 3.43778 15.0938 3.7533 15.0938 4.13896ZM15.0938 8.34604C15.0938 8.73169 15.3891 9.04722 15.75 9.04722H17.7188C18.0797 9.04722 18.375 8.73169 18.375 8.34604C18.375 7.96039 18.0797 7.64486 17.7188 7.64486H15.75C15.3891 7.64486 15.0938 7.96039 15.0938 8.34604ZM6.5625 12.5531C6.5625 12.9387 6.85781 13.2543 7.21875 13.2543H17.7188C18.0797 13.2543 18.375 12.9387 18.375 12.5531C18.375 12.1675 18.0797 11.8519 17.7188 11.8519H7.21875C6.85781 11.8519 6.5625 12.1675 6.5625 12.5531ZM6.5625 16.7602C6.5625 17.1459 6.85781 17.4614 7.21875 17.4614H17.7188C18.0797 17.4614 18.375 17.1459 18.375 16.7602C18.375 16.3745 18.0797 16.0591 17.7188 16.0591H7.21875C6.85781 16.0591 6.5625 16.3745 6.5625 16.7602Z" fill="#E74343"/>
</svg>
