<svg width="20" height="22" viewBox="0 0 20 22" fill="none" xmlns="http://www.w3.org/2000/svg">
<path fill-rule="evenodd" clip-rule="evenodd" d="M8.95943 19.1088H7.67272C7.63527 19.1087 7.5984 19.1178 7.56577 19.1353C7.53311 19.1528 7.50574 19.1781 7.48637 19.2087C7.46701 19.2393 7.45623 19.2742 7.45517 19.3099C7.45407 19.3457 7.46273 19.3811 7.48024 19.4128C7.85139 20.0716 8.40234 20.6223 9.07463 21.0064C9.58138 21.2958 10.1428 21.4826 10.724 21.5573C9.9971 20.8812 9.3946 20.0493 8.95943 19.1088Z" fill="#747474"/>
<path d="M16.0284 19.7306C18.1472 19.7306 19.8648 18.0129 19.8648 15.8941C19.8648 13.7753 18.1472 12.0576 16.0284 12.0576C13.9095 12.0576 12.1919 13.7753 12.1919 15.8941C12.1919 18.0129 13.9095 19.7306 16.0284 19.7306Z" fill="#E74343"/>
<path fill-rule="evenodd" clip-rule="evenodd" d="M7.73231 0.544167C4.87637 1.8083 3.48709 4.13326 3.48709 7.64118C3.48709 11.6408 2.76545 12.4931 1.56979 13.9038L1.5375 13.9419C1.461 14.032 1.38326 14.1236 1.30427 14.2185C1.07143 14.493 0.923913 14.8269 0.879166 15.1807C0.83442 15.5345 0.894319 15.8935 1.05178 16.2151C1.3868 16.9051 2.10084 17.3334 2.91586 17.3334H8.3255C8.22524 16.8685 8.17259 16.3872 8.17259 15.8941C8.17259 11.9591 11.5261 8.76921 15.6628 8.76921C16.9373 8.76921 18.1375 9.07203 19.1882 9.6061C19.1377 9.04825 19.1117 8.40229 19.1117 7.64278C19.1117 5.57296 18.605 3.87461 17.6065 2.60086C16.9246 1.72941 16.0205 1.05277 14.8486 0.538508C14.5333 0.462864 12.5944 0.00941187 11.3856 0.000148745C10.0791 -0.00986371 7.9633 0.488747 7.73231 0.544167Z" fill="#747474"/>
</svg>
