<svg width="19" height="22" viewBox="0 0 19 22" fill="none" xmlns="http://www.w3.org/2000/svg">
<path d="M9.49977 21.5579C10.2131 21.5573 10.913 21.3545 11.5252 20.9711C12.1375 20.5876 12.6391 20.0378 12.9771 19.38C12.993 19.3485 13.0009 19.3132 12.9999 19.2775C12.999 19.2418 12.9892 19.2071 12.9717 19.1765C12.954 19.146 12.9292 19.1207 12.8996 19.1032C12.8699 19.0857 12.8364 19.0765 12.8023 19.0765H6.19816C6.16407 19.0764 6.13052 19.0855 6.10078 19.103C6.07104 19.1205 6.04616 19.1457 6.02851 19.1763C6.01086 19.2069 6.00107 19.2417 6.00008 19.2774C5.9991 19.3131 6.00699 19.3484 6.02292 19.38C6.36083 20.0378 6.86246 20.5875 7.47459 20.971C8.08668 21.3543 8.78651 21.5572 9.49977 21.5579Z" fill="#747474"/>
<path fill-rule="evenodd" clip-rule="evenodd" d="M6.50685 0.425117C3.73482 1.65763 2.38756 4.014 2.38756 7.62828C2.38756 11.6211 1.73053 12.472 0.641919 13.8803C0.632108 13.893 0.622276 13.9057 0.612418 13.9184C0.542808 14.0084 0.472055 14.0998 0.400169 14.1945C0.188181 14.4685 0.0538694 14.8018 0.0131292 15.1551C-0.0276111 15.5083 0.0269253 15.8667 0.170284 16.1877C0.475314 16.8765 1.12542 17.3041 1.86747 17.3041H17.1382C17.8768 17.3041 18.5225 16.877 18.8285 16.1914C18.9725 15.8703 19.0275 15.5116 18.9871 15.158C18.9467 14.8044 18.8126 14.4705 18.6006 14.1961C18.5578 14.1409 18.5155 14.0857 18.4735 14.031C18.4349 13.9807 18.3967 13.9309 18.3588 13.8819L18.3571 13.8797C17.2705 12.4711 16.6132 11.619 16.6132 7.62985C16.6132 5.56353 16.1519 3.86803 15.2428 2.59645C14.6085 1.70759 13.7631 1.02176 12.6621 0.504398C12.1479 0.375885 10.5856 0.0084702 9.49997 0.000148496C8.53886 -0.00721895 7.21978 0.261265 6.50685 0.425117Z" fill="#747474"/>
</svg>
