<svg width="52" height="59" viewBox="0 0 52 59" fill="none" xmlns="http://www.w3.org/2000/svg">
<g clip-path="url(#clip0_743_1034)">
<path fill-rule="evenodd" clip-rule="evenodd" d="M22.1534 52.2983H18.6318C18.5293 52.298 18.4284 52.323 18.3391 52.3709C18.2497 52.4189 18.1748 52.4881 18.1218 52.5719C18.0688 52.6556 18.0393 52.7511 18.0364 52.8489C18.0334 52.9468 18.0571 53.0437 18.105 53.1303C19.1208 54.9335 20.6287 56.4407 22.4687 57.4919C23.8556 58.2841 25.3921 58.7951 26.9829 58.9996C24.9934 57.1492 23.3444 54.8725 22.1534 52.2983Z" fill="#BBBBBB"/>
<path d="M41.5 54C47.299 54 52 49.299 52 43.5C52 37.701 47.299 33 41.5 33C35.701 33 31 37.701 31 43.5C31 49.299 35.701 54 41.5 54Z" fill="#E74343"/>
<path fill-rule="evenodd" clip-rule="evenodd" d="M18.7948 1.48884C10.9784 4.94863 7.1761 11.3118 7.1761 20.9126C7.1761 31.8591 5.20106 34.1918 1.92865 38.0527L1.84027 38.1569C1.63092 38.4036 1.41814 38.6544 1.20194 38.9141C0.564702 39.6652 0.160957 40.5791 0.0384902 41.5475C-0.0839765 42.5159 0.0799617 43.4984 0.510904 44.3786C1.42783 46.2669 3.38207 47.4391 5.61271 47.4391H20.4183C20.1439 46.1668 19.9998 44.8494 19.9998 43.4999C19.9998 32.7304 29.178 23.9999 40.4998 23.9999C43.988 23.9999 47.2728 24.8287 50.1483 26.2904C50.0102 24.7636 49.9389 22.9957 49.9389 20.917C49.9389 15.2521 48.5523 10.6039 45.8194 7.1178C43.9531 4.73271 41.4788 2.88084 38.2714 1.47335C37.4085 1.26632 32.1019 0.025271 28.7936 -8.11826e-05C25.2176 -0.0274842 19.427 1.33716 18.7948 1.48884Z" fill="#BBBBBB"/>
</g>
<defs>
<clipPath id="clip0_743_1034">
<rect width="52" height="59" fill="white"/>
</clipPath>
</defs>
</svg>
