<svg width="30" height="38" viewBox="0 0 30 38" fill="none" xmlns="http://www.w3.org/2000/svg">
<path d="M7.9242 23.5467C7.58251 23.5467 7.35225 23.5801 7.2334 23.6136V25.8011C7.37453 25.8345 7.55094 25.8438 7.79421 25.8438C8.68371 25.8438 9.23153 25.3944 9.23153 24.6349C9.23153 23.9552 8.75985 23.5467 7.9242 23.5467ZM14.3996 23.569C14.0282 23.569 13.7868 23.6024 13.6438 23.6358V28.4826C13.7868 28.516 14.017 28.516 14.225 28.516C15.7422 28.5272 16.7301 27.6915 16.7301 25.9237C16.7412 24.3824 15.8406 23.569 14.3996 23.569Z" fill="#E74343"/>
<path d="M18.8629 0.292893C18.6754 0.105356 18.421 0 18.1558 0H3.714C2.72899 0 1.78432 0.391295 1.08781 1.08781C0.391295 1.78432 0 2.72899 0 3.714V33.426C0 34.411 0.391295 35.3557 1.08781 36.0522C1.78432 36.7487 2.72899 37.14 3.714 37.14H25.998C26.983 37.14 27.9277 36.7487 28.6242 36.0522C29.3207 35.3557 29.712 34.411 29.712 33.426V11.5562C29.712 11.291 29.6066 11.0366 29.4191 10.8491L18.8629 0.292893ZM10.2098 26.3508C9.63597 26.8894 8.78918 27.1308 7.80311 27.1308C7.61189 27.1344 7.42066 27.1232 7.23116 27.0973V29.7454H5.571V22.4363C6.32025 22.3248 7.07726 22.2739 7.83468 22.284C8.86903 22.284 9.6044 22.4808 10.1002 22.8764C10.5719 23.2515 10.8913 23.8662 10.8913 24.5904C10.8894 25.3183 10.648 25.933 10.2098 26.3508ZM17.2794 28.8671C16.4994 29.5152 15.3128 29.8234 13.8625 29.8234C12.9934 29.8234 12.3788 29.7677 11.9609 29.712V22.4381C12.7105 22.3291 13.4672 22.2776 14.2246 22.284C15.6304 22.284 16.544 22.5366 17.2571 23.0751C18.0278 23.647 18.5106 24.5588 18.5106 25.868C18.5106 27.2849 17.9925 28.2635 17.2794 28.8671ZM24.141 23.7139H21.2961V25.4056H23.9553V26.7687H21.2961V29.7473H19.6136V22.3397H24.141V23.7139ZM18.57 12.999C18.3126 12.999 18.004 12.999 17.7129 12.999C17.1606 12.999 16.713 12.5513 16.713 11.999V4.92111C16.713 4.47565 17.2516 4.25257 17.5666 4.56755L25.1444 12.1454C25.4594 12.4604 25.2379 12.999 24.7925 12.999C23.2479 12.999 20.5356 12.999 18.57 12.999Z" fill="#E74343"/>
</svg>
