<svg width="29" height="38" viewBox="0 0 29 38" fill="none" xmlns="http://www.w3.org/2000/svg">
<path d="M7.6011 23.5467C7.27335 23.5467 7.05248 23.5801 6.93848 23.6136V25.8011C7.07385 25.8345 7.24307 25.8438 7.47641 25.8438C8.32963 25.8438 8.8551 25.3944 8.8551 24.6349C8.8551 23.9552 8.40266 23.5467 7.6011 23.5467ZM13.8123 23.569C13.4561 23.569 13.2245 23.6024 13.0874 23.6358V28.4826C13.2245 28.516 13.4454 28.516 13.6449 28.516C15.1002 28.5272 16.0478 27.6915 16.0478 25.9237C16.0585 24.3824 15.1946 23.569 13.8123 23.569Z" fill="#E74343"/>
<path d="M18.1077 0.307765C17.9191 0.111154 17.6585 0 17.386 0H3.5625C2.61767 0 1.71153 0.391295 1.04343 1.08781C0.375334 1.78432 0 2.72899 0 3.714V33.426C0 34.411 0.375334 35.3557 1.04343 36.0522C1.71153 36.7487 2.61767 37.14 3.5625 37.14H24.9375C25.8823 37.14 26.7885 36.7487 27.4566 36.0522C28.1247 35.3557 28.5 34.411 28.5 33.426V11.5441C28.5 11.2861 28.4003 11.038 28.2217 10.8518L18.1077 0.307765ZM9.79331 26.3508C9.24291 26.8894 8.43066 27.1308 7.48481 27.1308C7.30138 27.1344 7.11796 27.1232 6.93619 27.0973V29.7454H5.34375V22.4363C6.06244 22.3248 6.78857 22.2739 7.51509 22.284C8.50725 22.284 9.21263 22.4808 9.68822 22.8764C10.1407 23.2515 10.447 23.8662 10.447 24.5904C10.4452 25.3183 10.2137 25.933 9.79331 26.3508ZM16.5745 28.8671C15.8264 29.5152 14.6882 29.8234 13.297 29.8234C12.4634 29.8234 11.8738 29.7677 11.473 29.712V22.4381C12.192 22.3291 12.9179 22.2776 13.6444 22.284C14.9928 22.284 15.8692 22.5366 16.5532 23.0751C17.2924 23.647 17.7555 24.5588 17.7555 25.868C17.7555 27.2849 17.2585 28.2635 16.5745 28.8671ZM23.1562 23.7139H20.4274V25.4056H22.9781V26.7687H20.4274V29.7473H18.8136V22.3397H23.1562V23.7139ZM17.8125 12.999C17.5776 12.999 17.2982 12.999 17.0312 12.999C16.4789 12.999 16.0312 12.5513 16.0312 11.999V4.95756C16.0312 4.50707 16.5802 4.28634 16.8921 4.61144L24.1259 12.1529C24.4308 12.4707 24.2072 12.999 23.7667 12.999C22.2827 12.999 19.6918 12.999 17.8125 12.999Z" fill="#E74343"/>
</svg>
