<svg width="21" height="21" viewBox="0 0 21 21" fill="none" xmlns="http://www.w3.org/2000/svg">
<path d="M16.3652 15.7582C15.4588 14.1832 13.7566 13.125 11.8125 13.125H9.1875C7.24336 13.125 5.54122 14.1832 4.63476 15.7582C6.07851 17.366 8.17032 18.375 10.5 18.375C12.8297 18.375 14.9215 17.3619 16.3652 15.7582ZM0 10.5C0 7.71523 1.10624 5.04451 3.07538 3.07538C5.04451 1.10624 7.71523 0 10.5 0C13.2848 0 15.9555 1.10624 17.9246 3.07538C19.8938 5.04451 21 7.71523 21 10.5C21 13.2848 19.8938 15.9555 17.9246 17.9246C15.9555 19.8938 13.2848 21 10.5 21C7.71523 21 5.04451 19.8938 3.07538 17.9246C1.10624 15.9555 0 13.2848 0 10.5ZM10.5 11.1563C11.2832 11.1563 12.0344 10.8451 12.5881 10.2913C13.142 9.73752 13.4531 8.98635 13.4531 8.20313C13.4531 7.4199 13.142 6.66877 12.5881 6.11495C12.0344 5.56113 11.2832 5.25 10.5 5.25C9.71679 5.25 8.96564 5.56113 8.41182 6.11495C7.85801 6.66877 7.54687 7.4199 7.54687 8.20313C7.54687 8.98635 7.85801 9.73752 8.41182 10.2913C8.96564 10.8451 9.71679 11.1563 10.5 11.1563Z" fill="#E74343"/>
</svg>
