<svg width="164" height="99" viewBox="0 0 164 99" fill="none" xmlns="http://www.w3.org/2000/svg">
<path fill-rule="evenodd" clip-rule="evenodd" d="M140.585 2.642L147.235 18.6458L147.875 18.3815C148.386 18.1708 148.971 18.4138 149.182 18.9242L151.563 24.6832C151.774 25.1936 151.531 25.7781 151.02 25.9887L150.393 26.2475L157.933 44.3921C158.568 45.9221 157.843 47.677 156.312 48.3116L143.382 53.674C141.851 54.3087 140.095 53.5828 139.459 52.0528L133.402 37.4746C132.984 37.5836 132.575 37.7368 132.19 37.93L123.146 42.4656C122.537 38.3853 121.277 34.5081 119.47 30.9354L126.235 27.9716C126.605 27.8096 126.962 27.6193 127.302 27.4026L128.817 26.4389L122.112 10.3027C121.476 8.77268 122.202 7.01783 123.732 6.38315L136.663 1.02082C138.193 0.386137 139.949 1.11196 140.585 2.642ZM45.9449 31.9619L37.7291 28.3635C37.4645 28.2477 37.2068 28.1174 36.9567 27.9734C37.1217 27.0747 37.0811 26.1403 36.8246 25.2423L35.4875 20.5607C35.4095 20.2875 35.3122 20.0203 35.1963 19.7609L33.57 16.1211C33.2383 15.3785 32.7589 14.7111 32.1612 14.1595L28.9851 11.2282C28.5674 10.8427 28.0971 10.5185 27.5881 10.2654L25.1178 9.03654C24.8265 8.89163 24.5239 8.77065 24.2129 8.6748L22.0182 7.9983C21.5746 7.86155 21.1165 7.77675 20.6533 7.74561L18.6981 7.61415C18.2482 7.5839 17.7963 7.60446 17.351 7.67545L14.2629 8.16777C13.8637 8.23141 13.4719 8.33523 13.0936 8.47765L11.0948 9.23009C10.3878 9.49621 9.81219 10.027 9.48966 10.71L9.1846 11.356C9.04313 11.6556 9.02928 11.9998 9.14623 12.3098C9.25114 12.5879 9.45374 12.8182 9.71617 12.9578L15.9707 16.2842L18.9468 17.7302C20.1851 18.3319 21.0772 19.4704 21.3651 20.8167C21.5924 21.8792 21.425 22.9881 20.8941 23.9362L18.8778 27.5374C18.3507 28.4787 17.4774 29.1776 16.4434 29.4854C15.4861 29.7705 14.458 29.7003 13.5483 29.2878L3.67489 24.8109C3.48052 24.7227 3.25873 24.7171 3.06016 24.7953C2.88358 24.8649 2.738 24.9958 2.65013 25.164L1.97058 26.4651C1.6861 27.0098 1.61845 27.6419 1.78122 28.2345C1.8429 28.459 1.93651 28.6735 2.05919 28.8714L4.6987 33.1292C5.03797 33.6765 5.46312 34.1656 5.95784 34.5777L10.1254 38.0497C10.6 38.4451 11.1329 38.7648 11.7051 38.9976L14.9677 40.3248C15.5812 40.5743 16.2317 40.7205 16.8929 40.7576L20.9876 40.9869C21.5676 41.0194 22.1492 40.9675 22.7143 40.8329L25.7183 40.1169C26.0504 40.0377 26.3896 39.9928 26.7282 39.9481L26.736 39.947C28.3053 39.7395 29.7561 39.0376 30.886 37.9611C31.1904 38.0584 31.4877 38.1793 31.7723 38.3219L42.5997 43.7503C43.076 39.5898 44.227 35.6256 45.9449 31.9619ZM45.5305 63.3291L9.0022 79.3325C7.93214 79.8012 6.91783 80.3879 5.97818 81.082L3.86944 82.639C1.8427 84.1357 0.500765 86.3813 0.143838 88.8735L0.0761193 89.3465C-0.103647 90.6018 0.0362124 91.8821 0.482758 93.0692L0.531602 93.1989C1.29887 95.2384 2.94333 96.8248 5.01016 97.5197C6.20129 97.9202 7.47618 98.0045 8.70992 97.765L12.5392 97.0212C14.5111 96.6383 16.4213 95.9873 18.2167 95.0871L55.0817 76.5995C51.0136 72.8911 47.7392 68.3802 45.5305 63.3291ZM109.85 77.4666L145.778 95.4791C147.574 96.3793 149.485 97.0303 151.457 97.4131L155.288 98.157C156.522 98.3964 157.797 98.3122 158.988 97.9116C161.056 97.2168 162.701 95.63 163.468 93.5905L163.517 93.4612C163.964 92.2741 164.104 90.9937 163.924 89.7384L163.856 89.2654C163.499 86.7729 162.157 84.5277 160.13 83.0314L158.02 81.474C157.08 80.7799 156.066 80.1932 154.995 79.7245L119.915 64.3599C117.536 69.3894 114.088 73.8486 109.85 77.4666Z" fill="#747474"/>
<path d="M106.519 67.7823C106.244 67.3986 106.034 66.9706 105.911 66.507L104.759 62.0988C104.488 61.054 104.288 59.4578 104.161 58.3471C103.976 56.6815 103.488 55.0963 102.751 53.6627L102.605 53.395H64.1906L64.0658 53.6215C63.307 55.0943 62.8214 56.6815 62.6338 58.3471C62.5091 59.4578 62.309 61.0556 62.0359 62.0988L60.8845 66.507C60.7632 66.9706 60.5506 67.3986 60.2775 67.7823C59.5152 68.8537 58.248 69.5654 56.9216 69.5654H55.838C62.5875 75.5765 72.4984 79.1197 83.1236 79.1197C93.7485 79.1197 103.658 75.5765 110.409 69.5654H109.875C108.549 69.5654 107.282 68.8537 106.519 67.7823Z" fill="#E74343"/>
<path d="M97.8657 43.492C94.0025 39.6408 88.9188 37.5214 83.546 37.5214H83.5099C78.1052 37.531 72.9258 39.6823 69.1077 43.503C65.2896 47.3237 63.1452 52.5019 63.1452 57.9004V67.7639C63.1393 69.3323 63.6066 70.8662 64.4865 72.1654C65.3665 73.4646 66.618 74.4686 68.0779 75.0463L70.4032 75.9692C70.646 76.0656 70.861 76.2208 71.0277 76.4215C71.1949 76.6222 71.309 76.8616 71.3596 77.1175L72.3405 82.0293C72.484 82.739 72.8685 83.3774 73.4291 83.8367C73.9898 84.296 74.692 84.548 75.417 84.55H76.4842C76.6925 84.55 76.8918 84.4673 77.0389 84.3204C77.186 84.1734 77.2688 83.9739 77.2688 83.7662V79.8914C77.2688 79.0477 77.9181 78.3238 78.7628 78.2815C78.9746 78.2713 79.1869 78.3042 79.3858 78.3783C79.5851 78.4524 79.7671 78.566 79.9209 78.7126C80.0747 78.8588 80.1971 79.0347 80.2807 79.2299C80.3642 79.4251 80.4074 79.6351 80.4074 79.8471V83.7662C80.4074 83.9739 80.4902 84.1734 80.6373 84.3204C80.7844 84.4673 80.9841 84.55 81.192 84.55C81.4004 84.55 81.5997 84.4673 81.7468 84.3204C81.8939 84.1734 81.9767 83.9739 81.9767 83.7662V79.8914C81.9767 79.0477 82.626 78.3238 83.4706 78.2815C83.6825 78.2713 83.8947 78.3042 84.0936 78.3783C84.2929 78.4524 84.475 78.566 84.6288 78.7126C84.7826 78.8588 84.905 79.0347 84.9885 79.2299C85.0721 79.4251 85.1153 79.6351 85.1153 79.8471V83.7662C85.1153 83.9739 85.198 84.1734 85.3452 84.3204C85.4923 84.4673 85.692 84.55 85.8999 84.55C86.1082 84.55 86.3075 84.4673 86.4546 84.3204C86.6018 84.1734 86.6845 83.9739 86.6845 83.7662V79.8914C86.6845 79.0477 87.3338 78.3238 88.1785 78.2815C88.3904 78.2713 88.6026 78.3042 88.8015 78.3783C89.0008 78.4524 89.1829 78.566 89.3366 78.7126C89.4904 78.8588 89.6128 79.0347 89.6964 79.2299C89.78 79.4251 89.8231 79.6351 89.8231 79.8471V83.7662C89.8231 83.9739 89.9059 84.1734 90.053 84.3204C90.2001 84.4673 90.3998 84.55 90.6078 84.55H91.6749C92.3999 84.5484 93.1022 84.2968 93.6632 83.8375C94.2238 83.3786 94.6087 82.7398 94.7527 82.0301L95.7335 77.1175C95.7845 76.862 95.8986 76.6229 96.0654 76.4227C96.2325 76.222 96.4467 76.066 96.6888 75.9692L99.0145 75.0463C100.474 74.4686 101.726 73.4646 102.605 72.1654C103.485 70.8662 103.953 69.3323 103.947 67.7639V58.0643C103.947 52.5776 101.789 47.4033 97.8657 43.492ZM75.2738 68.862C74.1593 68.9349 73.049 68.6669 72.0909 68.0931C71.1329 67.5194 70.373 66.6678 69.912 65.6515C69.451 64.6349 69.3113 63.5027 69.511 62.405C69.7111 61.3073 70.2411 60.2966 71.0313 59.5073C71.821 58.7184 72.8328 58.1889 73.9317 57.989C75.0306 57.7891 76.164 57.9291 77.1817 58.3895C78.199 58.85 79.0515 59.6091 79.6259 60.5662C80.2002 61.5232 80.4686 62.6323 80.3956 63.7457C80.3085 65.0739 79.7408 66.3256 78.7989 67.2666C77.8565 68.2079 76.6038 68.775 75.2738 68.862ZM85.998 74.875C85.7281 75.0545 85.4103 75.1486 85.0858 75.1443H82.0061C81.6824 75.1482 81.3654 75.0541 81.0959 74.875C80.8331 74.6967 80.6302 74.4432 80.5145 74.1477C80.3991 73.8518 80.376 73.5281 80.4486 73.2192L82.0092 68.5556C82.2709 67.894 82.688 67.4041 83.3498 67.3191C84.16 67.2211 84.7229 67.6001 85.0772 68.5164L86.6465 73.2192C86.7187 73.5281 86.6955 73.8522 86.5798 74.1477C86.4641 74.4432 86.2612 74.6967 85.998 74.875ZM92.538 68.862C91.4234 68.9349 90.3131 68.6669 89.3551 68.0931C88.397 67.5194 87.6371 66.6678 87.1761 65.6515C86.7152 64.6349 86.5755 63.5027 86.7752 62.405C86.9753 61.3073 87.5053 60.2966 88.2954 59.5073C89.0852 58.7184 90.097 58.1889 91.1959 57.989C92.2948 57.7891 93.4282 57.9291 94.4459 58.3895C95.4632 58.85 96.3157 59.6091 96.89 60.5662C97.4644 61.5232 97.7327 62.6323 97.6598 63.7457C97.5727 65.0743 97.005 66.326 96.0622 67.2674C95.1195 68.2087 93.866 68.7754 92.536 68.862H92.538Z" fill="#747474"/>
<path d="M123.149 31.7788C119.902 29.9848 118.167 29.2038 114.52 27.9359C113.098 27.442 111.337 27.8146 110.671 28.7152C109.238 30.6607 108.102 32.3351 107.128 33.9293L113.26 47.2624C116.094 42.0626 118.542 39.0739 123.887 34.3769C124.704 33.6565 124.419 32.4778 123.149 31.7788ZM118.67 33.9757C117.842 34.8744 116.114 35.1063 114.702 34.5445C113.292 33.9828 112.671 32.7845 113.427 31.8091C114.183 30.8336 116.091 30.5109 117.573 31.1493C119.06 31.7876 119.502 33.0769 118.67 33.9757Z" fill="#E74343"/>
<path d="M103.592 51.6119C103.602 51.6315 103.617 51.6492 103.629 51.6707C103.806 51.9454 103.986 52.2147 104.145 52.5035H105.15H113.696L113.287 51.6119L112.883 50.7184L112.185 49.2009L106.034 35.8232L105.327 34.2896C105.025 33.6316 104.697 33.0021 104.352 32.3905C101.487 36.3118 97.4973 39.2613 92.7455 40.811C89.9945 41.7077 86.6366 42.1984 83.2913 42.1984C82.5702 42.1984 81.8578 42.1752 81.1724 42.1286C74.7975 41.6936 67.9982 38.5159 63.4284 33.7921C63.0443 33.3945 62.6873 32.979 62.3464 32.551C62.0376 33.1127 61.743 33.6905 61.4684 34.2896L60.7182 35.9213L54.5721 49.2828L53.9099 50.7219L53.4995 51.6135L53.0887 52.5051H61.6343H62.641C62.8105 52.1951 63.0051 51.9063 63.1926 51.6135C63.3907 51.3035 63.5995 51.0072 63.8176 50.7219C64.3421 50.0318 64.9098 49.3918 65.5418 48.8408C65.5524 48.8302 65.5634 48.8227 65.5721 48.8141C65.9436 48.4932 66.3292 48.1933 66.7306 47.9261C66.7859 47.8884 66.8467 47.8618 66.902 47.8261C67.2645 47.5941 67.6321 47.3731 68.0158 47.1897C68.141 47.127 68.2767 47.0878 68.4034 47.031C68.7283 46.8899 69.0496 46.7472 69.387 46.6387C69.6189 46.5654 69.8637 46.5277 70.101 46.4674C70.3454 46.4102 70.5867 46.3353 70.8366 46.2961C71.3329 46.2158 71.8378 46.1786 72.3522 46.1786H94.4305C94.9445 46.1786 95.4498 46.2193 95.9476 46.2961C96.1995 46.3334 96.4388 46.4086 96.6832 46.4674C96.9206 46.5262 97.1654 46.5654 97.3957 46.6387C97.7311 46.7472 98.056 46.8899 98.3808 47.031C98.5075 47.0862 98.6417 47.127 98.7684 47.1897C99.1502 47.375 99.5146 47.5941 99.8732 47.8226C99.9321 47.8598 99.9948 47.8884 100.055 47.9261C100.461 48.1953 100.846 48.4967 101.219 48.8192C101.226 48.8267 101.235 48.8337 101.244 48.8408C101.876 49.3918 102.444 50.0318 102.969 50.7219C103.186 51.0057 103.394 51.3015 103.592 51.6119Z" fill="#E74343"/>
<path d="M59.1582 66.0596L60.3097 61.6498V61.6479C60.5576 60.6956 60.7487 59.1248 60.8593 58.1458C60.8628 58.1082 60.8719 58.0745 60.8774 58.0369C60.8934 57.9083 60.9201 57.7837 60.9397 57.6536C61.0056 57.2005 61.088 56.7546 61.1916 56.318C61.2344 56.1361 61.2826 55.9578 61.3324 55.7775C61.4396 55.3852 61.5627 55.002 61.6985 54.6257C61.7397 54.5113 61.7789 54.3957 61.8232 54.2832H61.8111H60.8738H53.0941H52.2714L49.008 61.3767C48.9296 61.548 48.8652 61.7157 48.7883 61.885C49.6381 63.6415 50.7076 65.3196 51.9838 66.8904C52.2266 67.1902 52.464 67.4896 52.7229 67.7824H56.9216C57.9067 67.7824 58.9083 67.0099 59.1582 66.0596Z" fill="#E74343"/>
<path d="M113.705 54.2867L105.927 54.2852H104.988H104.975C105.02 54.3972 105.059 54.5132 105.1 54.6273C105.236 55.0035 105.359 55.3872 105.466 55.7795C105.514 55.9594 105.564 56.1361 105.605 56.318C105.711 56.7549 105.791 57.2025 105.859 57.6571C105.877 57.7853 105.905 57.9103 105.92 58.0388C105.923 58.0761 105.932 58.1117 105.937 58.1493C106.048 59.1283 106.239 60.6991 106.489 61.6534L107.066 63.8555L107.642 66.0596C107.894 67.0119 108.89 67.7839 109.879 67.7839H113.528C113.787 67.4951 114.019 67.1918 114.263 66.8924C115.688 65.1449 116.864 63.2708 117.751 61.2932L114.527 54.2867H113.705Z" fill="#E74343"/>
<path d="M59.6295 34.0203C58.644 32.3993 57.4909 30.6981 56.0272 28.7152C55.363 27.8146 53.601 27.442 52.1785 27.9359C48.533 29.202 46.7978 29.9848 43.549 31.7788C42.2818 32.4778 41.9942 33.6565 42.8137 34.3787C48.1921 39.1007 50.6359 42.1002 53.4939 47.3588L59.6295 34.0203ZM51.9961 34.5445C50.5841 35.1063 48.8579 34.8727 48.0281 33.9757C47.1995 33.0769 47.6389 31.7876 49.1239 31.1493C50.6092 30.5109 52.5159 30.8336 53.2727 31.8091C54.0279 32.7845 53.4084 33.9828 51.9961 34.5445Z" fill="#E74343"/>
<path d="M77.6274 29.1931C77.7577 29.293 77.822 29.3429 77.9523 29.4445C81.196 31.966 82.533 32.6989 83.045 32.9094C83.2988 32.7863 83.5503 32.6651 83.8269 32.5527C88.0346 30.2095 92.1834 27.3992 94.5754 22.7807C91.0963 20.9546 87.2476 20.0416 83.3985 20.0416C79.5412 20.0416 75.685 20.96 72.2024 22.7931C72.2506 22.8948 72.2844 23.0071 72.3346 23.107C73.4967 25.3538 75.2762 27.3992 77.6274 29.1931Z" fill="#E74343"/>
<path d="M59.821 12.388C58.9567 17.8518 59.5672 24.3017 62.3448 29.2324C62.5076 29.5195 62.661 29.8119 62.8376 30.0883C63.0075 30.354 63.184 30.6108 63.368 30.864C63.7909 31.4471 64.2264 32.0195 64.7262 32.5367C68.9178 36.8735 75.2067 39.9299 81.2995 40.3473C81.9437 40.3916 82.6114 40.4132 83.2917 40.4132C86.2655 40.4132 89.4912 39.9907 92.1762 39.1132C96.8319 37.5903 100.67 34.5999 103.321 30.7071C103.497 30.4485 103.692 30.2042 103.858 29.9367C104.033 29.655 104.176 29.3536 104.34 29.063C105.013 27.8593 105.606 26.6003 106.055 25.2647C107.161 21.9711 107.684 18.895 107.135 15.407C106.546 11.6587 106.129 7.81228 108.722 5.36213C109.26 4.85567 109.926 4.40811 110.745 4.0354C110.745 4.0354 109.892 3.57533 108.119 3.42554C107.255 3.43267 106.114 3.43089 104.852 3.9819C103.614 4.48657 102.132 5.48695 101.23 7.1168C98.7221 11.6551 98.8383 17.2562 96.8888 22.0745C96.8461 22.1815 96.8158 22.292 96.7676 22.399C96.6942 22.5738 96.5997 22.7254 96.5192 22.8966C96.398 23.164 96.2623 23.4208 96.1285 23.6776C93.6114 28.4959 89.3574 31.522 84.5946 34.163C84.1627 34.3324 83.8041 34.5286 83.3953 34.714C83.3309 34.7443 83.2525 34.7568 83.1615 34.7568C81.7334 34.7568 77.3774 31.2528 76.5367 30.6108C74.1608 28.799 72.1223 26.5985 70.7456 23.938C70.7064 23.8613 70.6817 23.7721 70.644 23.6937C70.5173 23.4333 70.4157 23.1533 70.305 22.8805C70.1905 22.6023 70.0567 22.3366 69.9567 22.0477C68.2932 17.1992 68.5518 11.0007 65.5619 7.11861C64.6623 5.49051 63.1785 4.48833 61.9399 3.98369C60.6849 3.43624 59.5511 3.43445 58.6872 3.42732C58.6374 3.42732 58.5872 3.42732 58.5373 3.4291C57.7072 3.4505 56.8182 3.71264 56.0488 4.01757C59.5354 5.89351 60.4315 8.52555 59.821 12.388Z" fill="#E74343"/>
</svg>
