<svg width="27" height="18" viewBox="0 0 27 18" fill="none" xmlns="http://www.w3.org/2000/svg">
<path d="M24.5244 0C24.0906 0 23.6746 0.172312 23.3679 0.479028C23.0612 0.785744 22.8889 1.20174 22.8889 1.6355V8.17751C22.8889 8.61127 22.7166 9.02727 22.4098 9.33398C22.1031 9.6407 21.6871 9.81301 21.2534 9.81301H5.5689L7.69506 7.70321C8.00303 7.39524 8.17604 6.97754 8.17604 6.54201C8.17604 6.10647 8.00303 5.68877 7.69506 5.3808C7.38709 5.07283 6.96939 4.89981 6.53385 4.89981C6.09831 4.89981 5.68062 5.07283 5.37264 5.3808L0.46614 10.2873C0.317243 10.4428 0.200525 10.6263 0.122685 10.827C-0.0408949 11.2252 -0.0408949 11.6718 0.122685 12.07C0.200525 12.2708 0.317243 12.4542 0.46614 12.6097L5.37264 17.5162C5.52469 17.6695 5.70557 17.7912 5.90487 17.8742C6.10418 17.9573 6.31794 18 6.53385 18C6.74976 18 6.96353 17.9573 7.16283 17.8742C7.36213 17.7912 7.54302 17.6695 7.69506 17.5162C7.84835 17.3642 7.97002 17.1833 8.05305 16.984C8.13609 16.7847 8.17884 16.5709 8.17884 16.355C8.17884 16.1391 8.13609 15.9253 8.05305 15.726C7.97002 15.5267 7.84835 15.3459 7.69506 15.1938L5.5689 13.084H21.2534C22.5546 13.084 23.8026 12.5671 24.7228 11.6469C25.6429 10.7268 26.1599 9.47879 26.1599 8.17751V1.6355C26.1599 1.20174 25.9876 0.785744 25.6808 0.479028C25.3741 0.172312 24.9581 0 24.5244 0Z" fill="#7D7D7D"/>
</svg>
