<svg width="28" height="28" viewBox="0 0 28 28" fill="none" xmlns="http://www.w3.org/2000/svg">
<rect x="0.5" y="0.888672" width="26.2227" height="26.2227" rx="6.5" fill="#0A5892" stroke="#174669"/>
<path d="M24.02 14C24.02 18.8641 18.9931 23.608 13.2503 23.608C7.50752 23.608 2.85212 20.005 3.22342 14C3.22342 9.1358 7.87888 5.19263 13.6217 5.19263C19.3645 5.19263 24.02 9.1358 24.02 14Z" fill="#EFEFEF"/>
<path d="M13.2334 2.79065C14.758 2.79065 16.2677 3.09094 17.6763 3.67438C19.0848 4.25782 20.3647 5.11298 21.4427 6.19104C22.5208 7.2691 23.3759 8.54894 23.9594 9.95749C24.5428 11.366 24.8431 12.8757 24.8431 14.4003C24.8431 17.4794 23.6199 20.4323 21.4427 22.6096C19.2655 24.7868 16.3125 26.01 13.2334 26.01C7.893 26.01 3.42328 22.4342 2.04173 17.5697L6.48823 19.4041C6.64059 20.1478 7.0449 20.8161 7.63291 21.2962C8.22091 21.7764 8.95658 22.0389 9.71571 22.0395C11.5268 22.0395 13.0012 20.565 13.0012 18.7539V18.603L16.9485 15.7819H17.0414C19.4562 15.7819 21.4183 13.8198 21.4183 11.405C21.4183 8.99021 19.4562 7.02818 17.0414 7.02818C14.6266 7.02818 12.653 8.99021 12.653 11.405V11.4631L9.90147 15.48L9.71571 15.4684C9.03074 15.4684 8.39221 15.6774 7.86978 16.0373L1.62378 13.4715C2.12299 7.49256 7.11515 2.79065 13.2334 2.79065ZM8.91465 20.4025C9.84342 20.7856 10.9115 20.3561 11.2946 19.4273C11.6777 18.4985 11.2366 17.442 10.331 17.0589L8.84499 16.4436C9.41386 16.2346 10.0524 16.223 10.6561 16.4784C11.2714 16.7222 11.7474 17.1982 11.9912 17.8136C12.2466 18.4173 12.2466 19.0906 11.9912 19.6943C11.492 20.9482 10.0176 21.5519 8.76372 21.0294C8.18324 20.7856 7.74207 20.3445 7.49827 19.822L8.91465 20.4025ZM19.967 11.405C19.967 13.0188 18.6552 14.3307 17.0414 14.3307C16.2675 14.3276 15.5263 14.018 14.9802 13.4697C14.434 12.9213 14.1274 12.1789 14.1274 11.405C14.1258 11.0219 14.2002 10.6423 14.3461 10.2881C14.492 9.93382 14.7066 9.61197 14.9775 9.34107C15.2484 9.07017 15.5702 8.85558 15.9244 8.70968C16.2787 8.56378 16.6583 8.48946 17.0414 8.49099C17.8153 8.49099 18.5577 8.79763 19.1061 9.34378C19.6544 9.88994 19.964 10.6311 19.967 11.405ZM14.8588 11.405C14.8588 12.6124 15.834 13.5992 17.053 13.5992C18.2604 13.5992 19.2356 12.6124 19.2356 11.405C19.2356 10.1976 18.2604 9.21079 17.053 9.21079C15.834 9.21079 14.8588 10.1976 14.8588 11.405Z" fill="#0A5892"/>
</svg>
