<svg width="34" height="34" viewBox="0 0 34 34" fill="none" xmlns="http://www.w3.org/2000/svg">
<rect x="0.5" y="0.5" width="33" height="33" rx="11.5" fill="#0A5892" stroke="#174669"/>
<path d="M30 17C30 23.0751 23.7217 29 16.5492 29C9.37662 29 3.56222 24.5 4.02596 17C4.02596 10.9249 9.84044 6 17.013 6C24.1855 6 30 10.9249 30 17Z" fill="#EFEFEF"/>
<path d="M16.5281 3C18.4322 3 20.3178 3.37505 22.077 4.10375C23.8362 4.83244 25.4347 5.9005 26.7811 7.24695C28.1276 8.5934 29.1956 10.1919 29.9243 11.9511C30.653 13.7103 31.0281 15.5958 31.0281 17.5C31.0281 21.3456 29.5004 25.0338 26.7811 27.753C24.0618 30.4723 20.3737 32 16.5281 32C9.85808 32 4.27558 27.534 2.55008 21.4585L8.10358 23.7495C8.29387 24.6783 8.79884 25.513 9.53324 26.1127C10.2676 26.7124 11.1865 27.0403 12.1346 27.041C14.3966 27.041 16.2381 25.1995 16.2381 22.9375V22.749L21.1681 19.2255H21.2841C24.3001 19.2255 26.7506 16.775 26.7506 13.759C26.7506 10.743 24.3001 8.2925 21.2841 8.2925C18.2681 8.2925 15.8031 10.743 15.8031 13.759V13.8315L12.3666 18.8485L12.1346 18.834C11.2791 18.834 10.4816 19.095 9.82908 19.5445L2.02808 16.34C2.65158 8.8725 8.88658 3 16.5281 3ZM11.1341 24.9965C12.2941 25.475 13.6281 24.9385 14.1066 23.7785C14.5851 22.6185 14.0341 21.299 12.9031 20.8205L11.0471 20.052C11.7576 19.791 12.5551 19.7765 13.3091 20.0955C14.0776 20.4 14.6721 20.9945 14.9766 21.763C15.2956 22.517 15.2956 23.358 14.9766 24.112C14.3531 25.678 12.5116 26.432 10.9456 25.7795C10.2206 25.475 9.66958 24.924 9.36508 24.2715L11.1341 24.9965ZM24.9381 13.759C24.9381 15.7745 23.2996 17.413 21.2841 17.413C20.3175 17.4092 19.3918 17.0225 18.7097 16.3377C18.0276 15.6528 17.6446 14.7256 17.6446 13.759C17.6427 13.2805 17.7355 12.8064 17.9177 12.364C18.0999 11.9215 18.3679 11.5196 18.7063 11.1812C19.0446 10.8429 19.4466 10.5749 19.889 10.3926C20.3315 10.2104 20.8056 10.1176 21.2841 10.1195C22.2507 10.1195 23.1779 10.5025 23.8627 11.1846C24.5476 11.8667 24.9342 12.7924 24.9381 13.759ZM18.5581 13.759C18.5581 15.267 19.7761 16.4995 21.2986 16.4995C22.8066 16.4995 24.0246 15.267 24.0246 13.759C24.0246 12.251 22.8066 11.0185 21.2986 11.0185C19.7761 11.0185 18.5581 12.251 18.5581 13.759Z" fill="#0A5892"/>
</svg>
