<svg width="29" height="29" viewBox="0 0 29 29" fill="none" xmlns="http://www.w3.org/2000/svg">
<rect width="29" height="29" rx="7" fill="#0A5892"/>
<path d="M25.5881 14.5C25.5881 19.6818 20.2331 24.7353 14.1153 24.7353C7.99756 24.7353 3.03822 20.8971 3.43376 14.5C3.43376 9.31829 8.39318 5.11767 14.5109 5.11767C20.6287 5.11767 25.5881 9.31829 25.5881 14.5Z" fill="#EFEFEF"/>
<path d="M14.0974 2.55883C15.7215 2.55883 17.3298 2.87873 18.8303 3.50026C20.3308 4.12179 21.6942 5.03278 22.8426 6.18123C23.9911 7.32967 24.9021 8.69307 25.5236 10.1936C26.1451 11.6941 26.465 13.3023 26.465 14.9265C26.465 18.2066 25.162 21.3523 22.8426 23.6717C20.5232 25.9911 17.3775 27.2941 14.0974 27.2941C8.40827 27.2941 3.64672 23.4849 2.17497 18.3028L6.91178 20.2569C7.07409 21.0492 7.5048 21.7611 8.1312 22.2726C8.75759 22.7841 9.54129 23.0638 10.35 23.0644C12.2793 23.0644 13.85 21.4937 13.85 19.5643V19.4036L18.055 16.3982H18.154C20.7264 16.3982 22.8166 14.3081 22.8166 11.7356C22.8166 9.16315 20.7264 7.07302 18.154 7.07302C15.5815 7.07302 13.479 9.16315 13.479 11.7356V11.7975L10.5479 16.0767L10.35 16.0643C9.6203 16.0643 8.94007 16.2869 8.38353 16.6703L1.72974 13.9371C2.26155 7.56772 7.57963 2.55883 14.0974 2.55883ZM9.49662 21.3205C10.486 21.7287 11.6239 21.2711 12.032 20.2817C12.4401 19.2923 11.9701 18.1668 11.0055 17.7587L9.42241 17.1032C10.0284 16.8806 10.7086 16.8682 11.3518 17.1403C12.0073 17.4 12.5143 17.9071 12.774 18.5626C13.0461 19.2057 13.0461 19.923 12.774 20.5661C12.2422 21.9018 10.6715 22.5449 9.33584 21.9884C8.71746 21.7287 8.24749 21.2587 7.98777 20.7022L9.49662 21.3205ZM21.2706 11.7356C21.2706 13.4547 19.8731 14.8523 18.154 14.8523C17.3295 14.849 16.54 14.5192 15.9582 13.9351C15.3763 13.3509 15.0497 12.5601 15.0497 11.7356C15.0481 11.3275 15.1272 10.9231 15.2827 10.5457C15.4381 10.1684 15.6667 9.8255 15.9553 9.53692C16.2439 9.24833 16.5867 9.01973 16.9641 8.86431C17.3414 8.70888 17.7459 8.62971 18.154 8.63134C18.9784 8.63133 19.7693 8.958 20.3534 9.53981C20.9375 10.1216 21.2673 10.9112 21.2706 11.7356ZM15.8289 11.7356C15.8289 13.0219 16.8677 14.0731 18.1663 14.0731C19.4526 14.0731 20.4915 13.0219 20.4915 11.7356C20.4915 10.4494 19.4526 9.39814 18.1663 9.39814C16.8677 9.39814 15.8289 10.4494 15.8289 11.7356Z" fill="#0A5892"/>
</svg>
