<svg width="29" height="29" viewBox="0 0 29 29" fill="none" xmlns="http://www.w3.org/2000/svg">
<ellipse cx="15.5" cy="15" rx="10.5" ry="9" fill="#EFEFEF"/>
<path d="M14.5 0C6.49185 0 0 6.49185 0 14.5C0 22.5082 6.49185 29 14.5 29C22.5082 29 29 22.5082 29 14.5C29 6.49185 22.5082 0 14.5 0ZM21.221 9.86117C21.0028 12.154 20.0586 17.7179 19.578 20.286C19.3748 21.3725 18.9745 21.7369 18.5871 21.7725C17.7452 21.85 17.1057 21.2161 16.2901 20.6814C15.0139 19.8449 14.293 19.3241 13.0542 18.5078C11.6226 17.5644 12.5506 17.0461 13.3665 16.1983C13.58 15.9765 17.2901 12.602 17.3619 12.2958C17.3708 12.2575 17.3794 12.1146 17.2944 12.0395C17.2094 11.9644 17.0845 11.9899 16.9942 12.0103C16.8662 12.0393 14.8275 13.3869 10.878 16.0528C10.2993 16.4502 9.7752 16.6438 9.30555 16.6337C8.78782 16.6225 7.79194 16.341 7.05156 16.1003C6.1435 15.8051 5.42177 15.6491 5.48462 15.1478C5.51737 14.8866 5.87694 14.6196 6.56335 14.3468C10.7904 12.5051 13.6091 11.2909 15.0194 10.7042C19.0462 9.02929 19.8829 8.73835 20.4283 8.72865C20.5483 8.72666 20.8165 8.75636 20.9902 8.89733C21.1058 8.99774 21.1794 9.13787 21.1966 9.29C21.226 9.47888 21.2342 9.67047 21.221 9.86117Z" fill="#0089EC"/>
</svg>
