<svg width="29" height="29" viewBox="0 0 29 29" fill="none" xmlns="http://www.w3.org/2000/svg">
<rect width="29" height="29" rx="7" fill="#0F7BCB"/>
<ellipse cx="14.0736" cy="14.5" rx="8.95588" ry="7.67647" fill="#EFEFEF"/>
<path d="M14.4998 0.85294C6.96276 0.85294 0.852783 6.96292 0.852783 14.5C0.852783 22.0371 6.96276 28.1471 14.4998 28.1471C22.037 28.1471 28.1469 22.0371 28.1469 14.5C28.1469 6.96292 22.037 0.85294 14.4998 0.85294ZM20.8255 10.134C20.6201 12.292 19.7315 17.5286 19.2791 19.9456C19.0879 20.9682 18.7111 21.3112 18.3465 21.3447C17.5541 21.4176 16.9523 20.821 16.1846 20.3178C14.9835 19.5305 14.305 19.0403 13.1391 18.272C11.7917 17.3841 12.6651 16.8963 13.433 16.0984C13.634 15.8896 17.1258 12.7136 17.1934 12.4255C17.2018 12.3894 17.2099 12.2549 17.1299 12.1842C17.0499 12.1136 16.9323 12.1376 16.8473 12.1568C16.7269 12.184 14.8081 13.4524 11.0909 15.9615C10.5462 16.3355 10.053 16.5177 9.61095 16.5082C9.12367 16.4976 8.18637 16.2327 7.48955 16.0062C6.6349 15.7283 5.95563 15.5815 6.01478 15.1097C6.0456 14.8639 6.38402 14.6126 7.03005 14.3558C11.0085 12.6224 13.6613 11.4797 14.9887 10.9275C18.7786 9.35109 19.5661 9.07727 20.0794 9.06814C20.1924 9.06627 20.4448 9.09422 20.6083 9.2269C20.7171 9.3214 20.7863 9.45329 20.8025 9.59647C20.8302 9.77424 20.8379 9.95456 20.8255 10.134Z" fill="#0F7BCB"/>
</svg>
