<svg width="28" height="28" viewBox="0 0 28 28" fill="none" xmlns="http://www.w3.org/2000/svg">
<rect x="0.5" y="0.5" width="26.22" height="26.22" rx="6.5" fill="#106CB0" stroke="#2A5C81"/>
<ellipse cx="13.2096" cy="13.61" rx="8.40618" ry="7.20529" fill="#EFEFEF"/>
<path d="M13.6099 0.800537C6.53549 0.800537 0.800537 6.53549 0.800537 13.6099C0.800537 20.6845 6.53549 26.4194 13.6099 26.4194C20.6845 26.4194 26.4194 20.6845 26.4194 13.6099C26.4194 6.53549 20.6845 0.800537 13.6099 0.800537ZM19.5473 9.51197C19.3546 11.5375 18.5205 16.4527 18.0959 18.7213C17.9164 19.6812 17.5628 20.0031 17.2205 20.0345C16.4768 20.103 15.9118 19.543 15.1913 19.0706C14.0639 18.3317 13.4271 17.8716 12.3327 17.1505C11.068 16.3171 11.8878 15.8592 12.6086 15.1102C12.7972 14.9143 16.0747 11.9332 16.1382 11.6627C16.146 11.6289 16.1536 11.5027 16.0785 11.4363C16.0035 11.37 15.8931 11.3925 15.8133 11.4105C15.7003 11.4361 13.8993 12.6266 10.4102 14.9817C9.89902 15.3328 9.43602 15.5038 9.02113 15.4949C8.56376 15.485 7.684 15.2363 7.02994 15.0237C6.22775 14.7629 5.59017 14.6251 5.64569 14.1822C5.67462 13.9515 5.99227 13.7156 6.59865 13.4746C10.3329 11.8476 12.8229 10.775 14.0688 10.2567C17.6261 8.77708 18.3652 8.52006 18.8471 8.51149C18.9531 8.50974 19.19 8.53597 19.3434 8.66051C19.4456 8.74921 19.5106 8.873 19.5258 9.00739C19.5517 9.17425 19.559 9.3435 19.5473 9.51197Z" fill="#106CB0"/>
</svg>
