<svg width="34" height="34" viewBox="0 0 34 34" fill="none" xmlns="http://www.w3.org/2000/svg">
<rect x="0.5" y="0.5" width="33" height="33" rx="11.5" fill="#106CB0" stroke="#2A5C81"/>
<ellipse cx="16.5" cy="17" rx="10.5" ry="9" fill="#EFEFEF"/>
<path d="M17 1C8.16342 1 1 8.16342 1 17C1 25.8366 8.16342 33 17 33C25.8366 33 33 25.8366 33 17C33 8.16342 25.8366 1 17 1ZM24.4163 11.8813C24.1755 14.4113 23.1336 20.5508 22.6033 23.3846C22.3791 24.5834 21.9374 24.9855 21.5099 25.0248C20.5809 25.1103 19.8753 24.4109 18.9753 23.8209C17.5671 22.8978 16.7716 22.3231 15.4046 21.4224C13.8249 20.3814 14.8489 19.8095 15.7492 18.874C15.9848 18.6292 20.0787 14.9057 20.158 14.5678C20.1678 14.5255 20.1773 14.3678 20.0835 14.285C19.9897 14.2021 19.8519 14.2302 19.7522 14.2527C19.611 14.2847 17.3614 15.7718 13.0033 18.7134C12.3647 19.1519 11.7864 19.3656 11.2682 19.3544C10.6969 19.3421 9.598 19.0314 8.78103 18.7658C7.77903 18.4401 6.98264 18.268 7.05199 17.7148C7.08813 17.4266 7.4849 17.132 8.24232 16.831C12.9066 14.7987 16.0169 13.4589 17.5731 12.8115C22.0165 10.9634 22.9398 10.6423 23.5416 10.6316C23.674 10.6294 23.9699 10.6622 24.1616 10.8177C24.2892 10.9285 24.3704 11.0832 24.3894 11.251C24.4218 11.4595 24.4308 11.6709 24.4163 11.8813Z" fill="#106CB0"/>
</svg>
