<svg width="38" height="29" viewBox="0 0 38 29" fill="none" xmlns="http://www.w3.org/2000/svg">
<path d="M25 18.5L27.3136 20.0919L25.6757 22.6053L23.5 21L25 20L25 18.5Z" fill="#747474"/>
<path d="M13.939 20.6914L11.4442 21.9809L10.0001 19.3514L12.4417 18.1898L12.6162 19.9841L13.939 20.6914Z" fill="#747474"/>
<path fill-rule="evenodd" clip-rule="evenodd" d="M22 28.502H27.1421V28.4342C27.2418 28.44 27.3396 28.4535 27.4368 28.4669C27.5645 28.4845 27.6913 28.502 27.8207 28.502C30.5204 28.502 33.1096 27.4296 35.0186 25.5206C36.9275 23.6116 38 21.0225 38 18.3227C38 13.1001 34.0559 8.84378 28.9879 8.26016C28.543 5.93713 27.3027 3.8417 25.4801 2.33419C23.6575 0.826681 21.3666 0.00130746 19.0014 0C16.6364 0.00144958 14.346 0.826932 12.5238 2.33447C10.7017 3.84201 9.46185 5.93737 9.0175 8.26016C3.94957 8.84378 0 13.1001 0 18.3227C0 21.0225 1.07246 23.6116 2.98145 25.5206C4.89044 27.4296 7.47958 28.502 10.1793 28.502C10.313 28.502 10.4413 28.4842 10.5693 28.4665C10.665 28.4532 10.7604 28.44 10.8579 28.4342V28.502H16V20.3586H12.2152L19.0014 12.2152L25.7876 20.3586H22V28.502Z" fill="#747474"/>
</svg>
