<svg width="40" height="38" viewBox="0 0 40 38" fill="none" xmlns="http://www.w3.org/2000/svg">
<path d="M38.2942 0.857065H11.007C10.7833 0.856501 10.5617 0.900104 10.3548 0.985374C10.148 1.07064 9.96 1.1959 9.80166 1.35397C9.64333 1.51204 9.51775 1.6998 9.43214 1.9065C9.34652 2.1132 9.30255 2.33477 9.30273 2.5585V10.1428L25.1156 14.7857L39.9999 10.1428V2.5585C40.0001 2.33465 39.9561 2.11296 39.8704 1.90617C39.7847 1.69938 39.659 1.51155 39.5005 1.35346C39.342 1.19538 39.1539 1.07015 38.9469 0.984962C38.7398 0.899776 38.518 0.856313 38.2942 0.857065Z" fill="#41A5EE"/>
<path d="M39.9999 10.1428H9.30273V19.4285L25.1156 22.2143L39.9999 19.4285V10.1428Z" fill="#2B7CD3"/>
<path d="M9.30273 19.4285V28.7142L24.1856 30.5713L39.9999 28.7142V19.4285H9.30273Z" fill="#185ABD"/>
<path d="M11.007 38H38.2928C38.5167 38.0009 38.7387 37.9576 38.9459 37.8725C39.153 37.7874 39.3413 37.6622 39.5 37.5041C39.6586 37.346 39.7844 37.1581 39.8702 36.9512C39.956 36.7443 40.0001 36.5225 39.9999 36.2985V28.7142H9.30273V36.2985C9.30255 36.5223 9.34652 36.7438 9.43214 36.9505C9.51775 37.1572 9.64333 37.345 9.80166 37.5031C9.96 37.6611 10.148 37.7864 10.3548 37.8717C10.5617 37.9569 10.7833 38.0005 11.007 38Z" fill="#103F91"/>
<path opacity="0.1" d="M20.6199 8.28552H9.30273V31.4998H20.6199C21.0708 31.4976 21.5028 31.3178 21.822 30.9993C22.1413 30.6808 22.3222 30.2494 22.3256 29.7984V9.98695C22.3222 9.53601 22.1413 9.10455 21.822 8.78608C21.5028 8.46761 21.0708 8.28776 20.6199 8.28552Z" fill="black"/>
<path opacity="0.2" d="M19.6899 9.21423H9.30273V32.4285H19.6899C20.1408 32.4263 20.5728 32.2465 20.892 31.928C21.2113 31.6095 21.3922 31.1781 21.3956 30.7271V10.9157C21.3922 10.4647 21.2113 10.0333 20.892 9.71479C20.5728 9.39632 20.1408 9.21648 19.6899 9.21423Z" fill="black"/>
<path opacity="0.2" d="M19.6899 9.21423H9.30273V30.5714H19.6899C20.1408 30.5692 20.5728 30.3893 20.892 30.0708C21.2113 29.7524 21.3922 29.3209 21.3956 28.87V10.9157C21.3922 10.4647 21.2113 10.0333 20.892 9.71479C20.5728 9.39632 20.1408 9.21648 19.6899 9.21423Z" fill="black"/>
<path opacity="0.2" d="M18.7599 9.21423H9.30273V30.5714H18.7599C19.2108 30.5692 19.6427 30.3893 19.962 30.0708C20.2813 29.7524 20.4622 29.3209 20.4656 28.87V10.9157C20.4622 10.4647 20.2813 10.0333 19.962 9.71479C19.6427 9.39632 19.2108 9.21648 18.7599 9.21423Z" fill="black"/>
<path d="M1.70572 9.21424H18.76C19.2118 9.21386 19.6452 9.39286 19.9651 9.7119C20.2849 10.0309 20.465 10.4639 20.4657 10.9157V27.9414C20.465 28.3932 20.2849 28.8261 19.9651 29.1452C19.6452 29.4642 19.2118 29.6432 18.76 29.6428H1.70572C1.48187 29.6436 1.26008 29.6001 1.05307 29.5149C0.846062 29.4298 0.657916 29.3045 0.499432 29.1464C0.340948 28.9884 0.215245 28.8005 0.129539 28.5937C0.043833 28.3869 -0.000188765 28.1653 6.08395e-07 27.9414V10.9157C-0.000188765 10.6918 0.043833 10.4701 0.129539 10.2633C0.215245 10.0566 0.340948 9.86873 0.499432 9.71064C0.657916 9.55255 0.846062 9.42732 1.05307 9.34214C1.26008 9.25695 1.48187 9.21349 1.70572 9.21424Z" fill="url(#paint0_linear_878_13)"/>
<path d="M6.99985 22.2685C7.03319 22.5313 7.05509 22.7604 7.06557 22.9556H7.10557C7.11985 22.7699 7.1508 22.5461 7.19842 22.2842C7.26985 21.8913 7.28699 21.8013 7.32557 21.6199L9.11843 13.8956H11.4384L13.2956 21.5042C13.4028 21.975 13.4801 22.4522 13.527 22.9328H13.5584C13.5941 22.465 13.6585 21.9998 13.7513 21.5399L15.2356 13.8856H17.3456L14.7399 24.9542H12.2727L10.5056 17.6313C10.4541 17.4199 10.396 17.1447 10.3313 16.8056C10.2665 16.4666 10.2265 16.219 10.2113 16.0628H10.1813C10.1613 16.2428 10.1213 16.5099 10.0613 16.8642C10.0013 17.2185 9.95367 17.4813 9.91843 17.6528L8.257 24.9585H5.74842L3.12842 13.8956H5.27128L6.88699 21.6356C6.93409 21.8448 6.97175 22.0559 6.99985 22.2685Z" fill="white"/>
<defs>
<linearGradient id="paint0_linear_878_13" x1="3.56286" y1="7.8771" x2="16.9029" y2="30.98" gradientUnits="userSpaceOnUse">
<stop stop-color="#2368C4"/>
<stop offset="0.5" stop-color="#1A5DBE"/>
<stop offset="1" stop-color="#1146AC"/>
</linearGradient>
</defs>
</svg>
