<?xml version="1.0" standalone="no"?>
<!DOCTYPE svg PUBLIC "-//W3C//DTD SVG 20010904//EN"
 "http://www.w3.org/TR/2001/REC-SVG-20010904/DTD/svg10.dtd">
<svg version="1.0" xmlns="http://www.w3.org/2000/svg"
 width="670.000000pt" height="670.000000pt" viewBox="0 0 670.000000 670.000000"
 preserveAspectRatio="xMidYMid meet">
<metadata>
Created by potrace 1.14, written by Peter Selinger 2001-2017
</metadata>
<g transform="translate(0.000000,670.000000) scale(0.100000,-0.100000)"
fill="#000000" stroke="none">
<path d="M4399 6189 c-46 -16 -89 -31 -95 -32 -33 -8 -177 -85 -233 -125 -107
-75 -291 -272 -291 -310 0 -5 -7 -15 -15 -22 -8 -7 -15 -21 -15 -31 0 -11 -4
-19 -8 -19 -15 0 -86 -201 -98 -274 -3 -21 -8 -48 -11 -60 -3 -11 -6 -84 -5
-161 0 -116 5 -156 25 -235 14 -52 32 -111 40 -130 8 -19 16 -39 18 -45 2 -5
7 -14 11 -20 5 -5 28 -40 51 -78 65 -102 124 -134 256 -141 123 -6 342 63 452
142 29 22 188 181 212 213 69 94 126 215 153 324 16 64 17 71 36 155 13 60 16
325 4 405 -20 142 -60 249 -122 331 -19 24 -34 46 -34 49 0 3 -8 13 -18 23
-75 75 -178 88 -313 41z"/>
<path d="M2715 5395 c-27 -9 -58 -17 -67 -19 -20 -5 -241 -117 -248 -126 -3
-3 -28 -22 -56 -43 -53 -38 -184 -171 -212 -216 -9 -14 -19 -28 -23 -31 -31
-24 -134 -269 -153 -365 -4 -16 -9 -41 -12 -55 -3 -14 -7 -79 -9 -145 -5 -238
47 -416 173 -595 53 -74 60 -81 122 -111 47 -22 164 -31 240 -17 101 18 259
91 340 157 58 47 180 173 180 186 0 2 13 23 29 47 33 50 98 184 105 219 3 13
10 40 16 59 19 64 41 225 44 325 1 47 -6 141 -17 227 -18 132 -76 289 -131
355 -14 17 -26 33 -26 36 0 18 -108 107 -140 115 -43 11 -110 10 -155 -3z"/>
<path d="M5546 4729 c-29 -10 -122 -60 -208 -112 -85 -52 -162 -97 -169 -100
-8 -4 -42 -25 -76 -46 -35 -22 -72 -42 -83 -46 -11 -3 -20 -11 -20 -16 0 -5
-4 -9 -9 -9 -4 0 -120 -66 -257 -147 -137 -80 -258 -151 -269 -157 -11 -6 -31
-19 -45 -27 -141 -91 -822 -480 -985 -563 -115 -59 -214 -112 -219 -117 -6 -5
-18 -9 -27 -9 -10 0 -19 -3 -21 -7 -1 -5 -88 -51 -193 -103 -104 -52 -192 -97
-195 -100 -3 -3 -79 -43 -170 -89 -91 -46 -232 -119 -315 -161 -82 -43 -253
-130 -380 -195 -126 -65 -288 -148 -360 -185 -71 -37 -218 -112 -325 -166
-107 -55 -197 -101 -200 -104 -3 -3 -90 -48 -195 -100 -104 -52 -191 -98 -193
-102 -2 -5 -12 -8 -22 -8 -10 0 -21 -4 -24 -9 -4 -5 -26 -19 -51 -31 -50 -24
-135 -103 -135 -126 0 -8 -4 -14 -8 -14 -7 0 -36 -72 -37 -90 0 -3 -3 -9 -6
-15 -7 -13 -4 -130 4 -178 18 -102 118 -206 217 -226 35 -7 179 -5 215 3 17 4
166 74 332 157 166 83 305 150 309 149 4 -1 10 2 13 7 3 4 483 246 1066 537
873 436 1307 660 1425 736 8 6 42 24 75 41 33 17 62 35 63 40 2 5 8 9 13 9 5
0 44 20 87 44 93 53 144 81 197 109 22 12 42 24 45 27 3 3 16 11 30 18 14 6
32 16 40 22 8 5 71 40 140 79 69 38 141 78 160 89 19 12 62 35 95 53 33 18 76
42 95 54 19 12 42 25 50 28 8 4 38 21 65 37 28 17 61 36 75 43 14 6 27 14 30
17 10 11 190 110 200 110 5 0 10 3 10 8 0 4 10 12 23 18 28 13 107 57 121 67
6 4 36 26 67 50 31 23 68 51 83 62 48 35 140 106 156 119 81 70 144 215 134
307 -11 90 -67 195 -138 257 -81 71 -198 95 -300 61z"/>
<path d="M1097 4429 c-152 -23 -434 -221 -554 -389 -46 -65 -105 -160 -98
-160 2 0 -6 -21 -19 -47 -13 -27 -33 -79 -44 -118 -19 -62 -24 -89 -38 -185
-7 -44 -6 -203 1 -255 35 -261 200 -548 347 -603 60 -23 161 -21 246 3 124 36
281 132 362 221 54 60 100 121 100 133 0 6 3 11 8 11 4 0 22 28 39 63 36 69
84 187 77 187 -3 0 0 8 5 18 35 66 46 394 18 547 -19 102 -68 263 -97 315 -10
19 -25 46 -32 60 -14 27 -168 189 -168 177 0 -4 -10 -2 -22 4 -37 20 -80 25
-131 18z"/>
<path d="M5548 3225 c-2 -2 -28 -5 -58 -8 -76 -8 -115 -16 -185 -39 -58 -19
-205 -86 -215 -97 -3 -3 -24 -19 -47 -34 -44 -30 -124 -107 -158 -151 -11 -15
-26 -33 -32 -41 -7 -7 -13 -16 -13 -19 0 -2 -14 -27 -31 -54 -17 -27 -32 -56
-33 -63 -2 -8 -6 -21 -9 -29 -15 -36 -25 -107 -22 -152 6 -60 23 -96 91 -179
138 -170 355 -289 602 -332 116 -20 304 -14 407 13 44 11 87 22 96 24 9 2 54
21 100 42 155 71 281 171 411 325 97 115 133 220 102 297 -7 17 -11 32 -8 32
7 0 -58 94 -68 98 -4 2 -8 9 -8 15 0 14 -91 100 -144 136 -118 79 -314 158
-459 186 -108 20 -309 39 -319 30z"/>
<path d="M3846 2303 c-1 -2 -23 -4 -47 -4 -93 -2 -235 -39 -339 -87 -129 -59
-284 -205 -335 -314 -54 -118 -49 -183 23 -311 74 -133 172 -242 287 -320 33
-22 63 -45 67 -51 4 -6 8 -8 8 -3 0 4 17 -3 38 -16 39 -25 180 -82 228 -92
139 -31 197 -37 309 -32 139 6 162 10 270 42 44 13 84 24 89 24 5 -1 12 3 15
8 3 4 40 25 81 46 218 111 360 259 360 376 0 57 -62 231 -82 231 -5 0 -8 5 -8
12 0 14 -74 105 -107 131 -13 10 -29 24 -36 30 -63 60 -172 136 -253 177 -27
14 -52 29 -55 33 -3 5 -8 8 -10 7 -2 -1 -17 4 -34 10 -47 18 -230 81 -230 80
0 -1 -16 1 -35 4 -88 14 -108 17 -153 19 -27 1 -49 1 -51 0z"/>
<path d="M2180 1519 c-179 -15 -295 -52 -423 -136 -78 -50 -203 -171 -227
-218 -8 -17 -19 -37 -25 -45 -19 -24 -42 -122 -38 -160 4 -44 93 -222 136
-274 55 -66 130 -139 187 -183 116 -88 307 -171 455 -199 73 -13 276 -21 292
-11 5 3 31 7 58 11 76 10 148 28 200 50 17 7 51 22 77 32 27 11 48 22 48 27 0
4 5 7 11 7 20 0 178 110 239 167 72 66 109 137 109 208 -1 57 -46 181 -85 232
-14 18 -22 33 -19 33 13 0 -110 122 -170 169 -100 80 -158 117 -248 161 -48
23 -93 43 -100 44 -6 2 -25 8 -42 15 -118 46 -185 61 -335 74 -14 1 -59 -1
-100 -4z"/>
</g>
</svg>
