<?xml version="1.0" standalone="no"?>
<!DOCTYPE svg PUBLIC "-//W3C//DTD SVG 20010904//EN"
 "http://www.w3.org/TR/2001/REC-SVG-20010904/DTD/svg10.dtd">
<svg version="1.0" xmlns="http://www.w3.org/2000/svg"
 width="1758.000000pt" height="614.000000pt" viewBox="0 0 1758.000000 614.000000"
 preserveAspectRatio="xMidYMid meet">

<g transform="translate(0.000000,614.000000) scale(0.100000,-0.100000)"
fill="#8a8a8a" stroke="none">
<path d="M6337 5234 c-4 -4 -7 -27 -7 -51 0 -41 1 -43 30 -43 l30 0 0 -110 0
-110 -90 0 -90 0 0 -40 0 -40 -160 0 c-136 0 -160 2 -160 15 0 12 -17 15 -90
15 -73 0 -90 -3 -90 -15 0 -12 -17 -15 -94 -15 -90 0 -95 1 -98 23 -3 21 -6
22 -145 25 -138 2 -143 2 -143 -18 0 -35 -28 -22 -121 55 l-91 75 -138 0 -139
0 -3 28 -3 27 -227 3 -228 2 0 -30 0 -30 -65 0 -65 0 0 -340 0 -340 65 0 65 0
0 -30 0 -30 230 0 230 0 0 30 0 30 141 0 141 0 91 75 c51 41 98 75 104 75 7 0
13 -9 13 -20 0 -19 7 -20 145 -20 l145 0 0 25 c0 25 0 25 95 25 l95 0 0 -170
0 -170 -190 0 -190 0 0 -50 0 -50 -170 0 -170 0 0 -189 0 -189 -46 -26 -47
-26 -739 2 -740 3 -61 133 -62 132 -764 0 -764 0 -132 -130 c-72 -71 -136
-130 -143 -130 -8 0 -12 19 -12 55 l0 55 -310 0 -310 0 0 -985 0 -985 308 2
307 3 3 87 3 88 319 0 320 0 0 195 0 195 388 0 387 0 277 -239 c168 -145 289
-242 305 -245 74 -15 1236 -206 1239 -203 2 1 35 185 74 407 39 223 75 429 81
458 l10 52 83 0 82 0 59 -60 59 -60 246 0 245 0 115 115 c106 106 118 115 152
115 l38 0 0 -360 0 -360 28 0 c44 0 996 71 1010 75 9 3 12 85 12 364 l0 360
33 5 c17 3 64 7 104 10 67 4 96 16 501 200 l429 196 1321 0 1322 0 0 275 0
275 2465 0 c2458 0 2465 0 2465 -20 0 -19 7 -20 186 -20 182 0 186 0 218 -25
l33 -25 311 0 312 0 0 240 0 240 -312 0 -311 0 -33 -25 c-32 -25 -36 -25 -218
-25 -179 0 -186 -1 -186 -20 0 -20 -7 -20 -3925 -20 -3482 0 -3925 2 -3925 15
0 9 -9 15 -25 15 -23 0 -25 3 -25 50 l0 50 -190 0 -190 0 0 170 0 170 137 0
138 0 567 -130 566 -130 686 0 686 0 -2 438 -3 437 -673 3 -673 2 -567 -130
-567 -130 -148 0 c-124 0 -147 2 -147 15 0 12 -17 15 -90 15 -73 0 -90 -3 -90
-15 0 -13 -24 -15 -160 -15 l-160 0 0 40 0 40 -90 0 -90 0 0 109 0 110 28 3
c25 3 27 6 27 48 l0 45 -201 3 c-110 1 -203 -1 -207 -4z m-127 -794 l0 -40
330 0 330 0 0 40 0 40 160 0 160 0 0 -170 0 -170 -650 0 -650 0 0 170 0 170
160 0 160 0 0 -40z m-1770 -1617 l-1 -228 -111 -122 -112 -123 -145 0 -145 0
-103 68 -103 67 0 171 0 170 136 112 136 112 224 0 224 0 0 -227z m810 150 c0
-16 -5 -70 -10 -121 l-10 -92 57 -115 c41 -82 63 -115 75 -115 10 0 18 2 18 4
0 3 -18 51 -40 107 l-40 103 21 110 c11 61 23 119 25 129 5 16 20 17 171 15
l166 -3 58 -155 c32 -85 58 -164 58 -175 1 -12 -30 -51 -76 -97 l-78 -78 -240
0 -241 0 -68 69 -69 69 27 179 c14 98 26 181 26 186 0 4 38 7 85 7 l85 0 0
-27z"/>
</g>
</svg>
