<?xml version="1.0" standalone="no"?>
<!DOCTYPE svg PUBLIC "-//W3C//DTD SVG 20010904//EN"
 "http://www.w3.org/TR/2001/REC-SVG-20010904/DTD/svg10.dtd">
<svg version="1.0" xmlns="http://www.w3.org/2000/svg"
 width="600.000000pt" height="1067.000000pt" viewBox="0 0 600.000000 1067.000000"
 preserveAspectRatio="xMidYMid meet">

<g transform="translate(0.000000,1067.000000) scale(0.100000,-0.100000)"
fill="#000000" stroke="none">
<path d="M2921 3554 c0 -11 3 -14 6 -6 3 7 2 16 -1 19 -3 4 -6 -2 -5 -13z"/>
<path d="M2900 3506 c0 -16 29 -36 54 -36 20 0 10 26 -12 34 -9 3 -23 9 -29
12 -8 3 -13 -1 -13 -10z"/>
<path d="M2990 3471 c0 -6 9 -11 19 -11 11 0 23 -5 27 -11 4 -8 26 -10 61 -6
51 5 57 4 84 -24 26 -27 69 -40 69 -20 0 4 -17 20 -38 33 -29 20 -55 27 -112
30 -41 3 -83 8 -92 12 -11 5 -18 4 -18 -3z"/>
<path d="M2830 3405 c-33 -25 -54 -53 -80 -107 -33 -68 -38 -73 -84 -90 -100
-35 -188 -158 -200 -278 -4 -39 0 -112 9 -180 8 -62 15 -172 15 -243 0 -97 4
-141 17 -178 15 -40 15 -54 5 -82 -16 -44 -15 -62 4 -77 13 -11 16 -10 21 8
11 44 23 20 23 -47 l0 -69 -56 -28 c-80 -40 -186 -156 -207 -226 -9 -29 -17
-66 -17 -83 0 -16 0 -111 0 -210 0 -172 -11 -290 -27 -306 -7 -7 -212 -11
-362 -8 -13 1 -27 -5 -32 -13 -8 -12 -13 -4 -10 15 0 4 -6 7 -15 7 -8 0 -12
-4 -9 -10 8 -13 -30 -13 -72 -1 -18 5 -35 6 -38 1 -3 -4 16 -13 43 -19 76 -19
79 -23 35 -65 -21 -20 -53 -46 -70 -59 -18 -12 -33 -28 -33 -34 0 -15 -39 -26
-71 -21 l-24 5 25 11 c25 12 24 12 -5 6 -87 -18 -167 -24 -325 -24 -96 0 -181
4 -188 9 -7 4 -31 5 -52 1 -21 -4 -45 -3 -54 2 -13 7 -16 4 -16 -18 0 -26 -1
-27 -14 -9 -11 15 -24 19 -59 16 -25 -1 -48 2 -52 8 -3 6 -14 11 -24 11 -22 0
-66 46 -53 54 6 3 24 -5 40 -19 34 -28 69 -32 98 -11 18 14 18 15 1 21 -11 5
-25 1 -37 -10 -27 -24 -26 -2 0 35 13 18 16 31 10 35 -5 3 -10 -1 -10 -9 0
-24 -25 -19 -38 7 l-11 22 0 -22 c-1 -12 4 -25 9 -28 6 -4 8 -11 4 -16 -3 -5
-20 4 -37 21 -32 31 -47 37 -47 20 0 -5 -8 -10 -17 -10 -17 1 -17 1 0 14 9 7
17 19 17 25 0 7 -8 10 -17 7 -10 -3 -67 -8 -127 -11 -60 -3 -113 -8 -117 -11
-14 -9 -139 -12 -139 -3 0 5 14 9 30 9 17 0 30 5 30 11 0 7 -10 9 -26 5 -15
-4 -32 -2 -41 5 -9 8 -17 9 -21 3 -4 -5 -14 -10 -22 -10 -83 -1 -207 -31 -143
-35 10 -1 5 -5 -12 -9 -16 -5 -58 -19 -92 -32 -56 -20 -63 -26 -63 -50 l0 -26
189 -1 c125 -1 192 2 196 9 5 8 11 7 21 -1 19 -15 342 -19 352 -3 8 13 44 15
36 2 -3 -4 -10 -8 -16 -8 -7 0 -21 -8 -32 -19 -24 -22 -116 -71 -132 -71 -7 0
-14 -8 -16 -17 -7 -25 -138 -89 -232 -113 -62 -15 -112 -20 -223 -20 l-143 0
0 -115 0 -115 28 -6 c45 -10 52 -13 52 -24 0 -5 -18 -10 -40 -10 l-40 0 0
-154 0 -153 107 -6 c60 -3 160 -3 223 -1 63 3 144 0 180 -6 36 -6 77 -11 92
-11 16 0 28 -4 28 -9 0 -5 7 -7 16 -3 13 5 13 7 2 14 -10 7 -9 9 5 9 20 0 21
-4 7 -31 -14 -25 4 -26 22 -1 15 21 50 42 70 42 7 0 0 -11 -17 -23 -46 -34
-128 -108 -148 -134 l-19 -23 651 0 650 1 23 37 c12 20 26 42 30 47 4 6 16 21
26 34 32 41 95 51 324 49 113 0 212 -4 218 -8 16 -10 2 -33 -16 -26 -20 8 -17
0 11 -29 14 -14 23 -25 19 -25 -5 0 -1 -6 8 -12 9 -7 18 -22 21 -33 5 -20 11
44 10 103 l-1 32 192 0 c105 0 197 -4 204 -9 11 -7 12 -22 3 -79 -6 -39 -11
-73 -11 -76 0 -3 239 -6 530 -6 455 0 530 2 530 14 0 8 -5 18 -10 21 -6 4 0
19 15 37 27 32 27 50 -1 28 -13 -12 -17 -11 -25 1 -5 8 -9 20 -9 28 0 10 3 11
14 2 9 -7 17 -8 20 -2 3 5 0 11 -6 14 -10 3 -10 8 -2 17 16 16 80 19 77 3 -2
-9 10 -7 40 5 35 14 66 16 194 12 88 -3 149 -1 146 4 -4 5 6 6 22 2 15 -4 128
-7 252 -7 220 1 225 0 274 -25 27 -13 58 -33 68 -43 25 -25 61 -33 61 -14 0 8
7 13 18 11 10 -2 16 -11 15 -23 -2 -11 -1 -35 2 -52 l6 -33 419 0 420 0 0 95
0 95 -275 0 c-233 0 -275 -2 -275 -14 0 -8 -5 -18 -11 -22 -8 -4 -9 0 -4 15 6
21 5 21 -171 21 -107 0 -192 5 -216 12 -57 17 -123 110 -68 95 11 -3 20 -1 20
4 0 5 -9 9 -20 9 -25 0 -85 53 -87 77 -1 10 -3 24 -5 32 -2 7 3 16 11 19 10 3
12 0 8 -11 -8 -21 4 -30 17 -13 6 8 28 23 48 34 21 10 35 22 32 24 -10 10 211
19 461 17 317 -1 296 -2 288 17 -4 12 -2 15 8 12 8 -3 13 -12 11 -21 -2 -13 6
-15 54 -12 59 5 83 -5 144 -61 l25 -23 3 54 c3 49 1 55 -16 55 -28 0 -182 73
-209 99 -22 20 -28 38 -24 69 2 16 -4 15 -24 -5 -16 -16 -19 -14 -50 22 -41
47 -31 66 30 56 31 -5 41 -12 46 -31 l6 -25 7 26 c10 35 54 49 154 49 l82 0 0
120 0 120 -319 0 c-355 0 -320 -6 -405 72 -17 16 -52 43 -78 60 -27 17 -48 35
-48 39 0 11 61 14 325 14 274 -1 365 -12 446 -57 80 -44 79 -44 79 17 l0 54
-68 0 c-81 0 -156 17 -197 45 -16 12 -32 22 -34 23 -2 1 7 12 20 23 21 17 21
19 4 13 -11 -3 -25 -10 -30 -14 -6 -5 -35 3 -65 17 -29 13 -61 24 -69 23 -9
-1 -23 0 -31 4 -8 3 -28 8 -43 12 -25 5 -28 3 -22 -15 5 -15 2 -20 -10 -20
-11 0 -15 5 -11 15 4 12 -5 15 -52 16 -82 2 -141 -1 -187 -11 -26 -6 -44 -5
-53 2 -7 6 -58 12 -113 14 l-100 3 55 -64 c31 -35 56 -66 56 -69 0 -3 -160 -6
-355 -6 l-355 0 -15 24 c-9 13 -25 26 -36 29 -12 3 -18 10 -15 15 3 5 -1 15
-9 22 -10 9 -15 9 -15 1 0 -6 -8 -11 -17 -11 -17 1 -17 1 0 11 20 12 23 39 5
39 -18 0 -43 -17 -43 -30 0 -5 -3 -10 -7 -10 -5 0 -12 0 -18 0 -18 0 -10 22
10 27 20 5 28 23 11 23 -23 0 -41 -14 -41 -31 0 -10 -6 -19 -14 -19 -8 0 -22
-7 -31 -16 -9 -9 -19 -13 -23 -10 -3 4 -2 10 4 14 6 4 14 16 18 27 6 19 2 20
-146 17 -137 -3 -154 -1 -166 15 -13 16 -14 15 -7 -12 4 -16 9 -96 11 -177 3
-150 -1 -169 -34 -136 -9 9 -17 7 -35 -10 -13 -13 -41 -31 -61 -41 -35 -18
-39 -18 -69 -4 -18 9 -40 20 -51 26 -12 5 -22 5 -29 -2 -7 -7 -14 -5 -23 6 -9
13 -15 15 -26 6 -11 -10 -14 -3 -16 38 -1 27 -9 61 -18 74 -11 17 -14 34 -9
56 6 28 5 30 -14 25 -12 -3 -30 -9 -41 -12 -13 -4 -20 -1 -20 9 0 8 -16 38
-35 67 -19 29 -35 56 -35 60 0 5 15 11 33 13 26 3 24 4 -7 3 -35 -2 -40 1 -52
31 -8 17 -22 36 -31 42 -31 17 -3 26 80 25 96 -1 109 -4 119 -24 5 -8 6 22 4
68 -3 46 -9 89 -16 97 -6 7 -8 25 -4 41 5 19 4 25 -5 20 -14 -9 -14 -61 0 -89
9 -17 5 -16 -20 8 l-31 30 15 48 c8 26 10 47 5 47 -11 0 -25 -40 -21 -62 3
-24 -16 -23 -24 2 -6 19 -76 66 -172 114 -29 15 -53 30 -53 36 0 5 12 2 28 -6
29 -15 51 -17 76 -8 25 10 19 27 -8 22 -49 -10 -45 8 4 21 27 7 50 16 50 21 0
15 -50 17 -76 4 -35 -19 -40 -18 -21 4 8 9 20 29 26 45 6 15 17 27 26 27 8 0
15 5 15 10 0 6 11 15 25 20 28 11 34 30 9 30 -8 0 -13 4 -9 10 3 5 12 7 19 4
8 -3 27 11 46 35 33 40 72 61 118 61 30 0 181 -80 240 -127 57 -46 71 -78 87
-192 l13 -96 1 66 c1 36 -6 90 -14 120 -13 46 -27 64 -87 120 l-70 66 15 199
c15 202 14 225 -17 339 -13 46 -16 103 -15 250 1 212 -5 242 -69 352 -31 54
-41 64 -72 69 -118 21 -169 45 -170 80 0 6 -9 19 -20 29 -14 13 -10 -5 20 -71
36 -81 54 -174 31 -160 -5 3 -11 -3 -14 -14 -3 -10 0 -21 7 -23 8 -3 6 -19 -6
-54 -10 -28 -18 -62 -18 -76 0 -36 -18 -43 -25 -10 -14 62 -24 70 -24 18 -2
-64 -16 -90 -30 -55 -9 22 -10 20 -11 -20 l-1 -45 -20 24 c-14 18 -18 32 -14
53 13 57 -3 26 -29 -57 -15 -47 -31 -85 -36 -85 -8 0 -22 85 -22 136 0 13 -5
27 -10 30 -6 4 -9 -6 -8 -22 1 -16 2 -42 1 -58 -1 -24 -3 -27 -16 -16 -8 7
-15 27 -15 44 0 17 -5 38 -11 46 -7 11 -8 -3 -3 -45 3 -33 10 -64 15 -69 12
-13 11 -26 -1 -26 -18 0 -61 87 -55 112 3 13 2 35 -3 48 -8 21 -10 17 -16 -33
-6 -46 -4 -63 8 -83 9 -13 13 -24 8 -24 -15 0 -40 33 -60 78 -22 50 -32 46
-24 -10 3 -27 1 -39 -5 -35 -13 8 -30 74 -39 145 -3 28 -10 52 -15 52 -5 0 -4
8 2 19 7 11 9 26 4 37 -7 16 -9 13 -15 -16 -10 -46 -28 -90 -37 -90 -11 0 -3
113 9 128 8 8 6 12 -4 12 -8 0 -20 -10 -26 -22 -10 -21 -11 -20 -11 13 -1 20
5 57 13 82 7 25 12 48 9 50 -2 3 6 23 18 46 21 41 83 101 105 101 6 0 17 7 24
15 24 29 -23 16 -70 -20z m-18 -457 c-4 -39 -5 -41 -14 -18 -10 26 -2 74 10
66 4 -2 6 -24 4 -48z m308 -194 c0 -8 -4 -12 -10 -9 -5 3 -10 10 -10 16 0 5 5
9 10 9 6 0 10 -7 10 -16z m-524 -642 c-11 -10 -15 4 -8 28 l7 25 3 -23 c2 -13
1 -26 -2 -30z m182 -62 c23 -17 42 -38 42 -48 0 -15 2 -15 10 -2 9 13 11 13
20 0 14 -21 12 -32 -2 -25 -7 4 -5 0 4 -7 9 -8 19 -30 23 -49 4 -19 11 -42 16
-50 8 -12 10 -12 19 1 8 12 10 12 10 -5 0 -17 2 -18 11 -5 8 12 10 12 7 -5 -2
-12 -12 -21 -26 -23 -22 -3 -29 -16 -14 -25 4 -2 2 -2 -5 -1 -33 8 -14 -36 21
-50 19 -7 19 -7 0 -26 -32 -31 -114 -71 -133 -65 -9 3 -27 14 -39 26 l-22 20
0 -22 c0 -12 8 -23 20 -26 11 -3 20 -10 20 -15 0 -6 -11 -7 -25 -4 -23 6 -24
4 -19 -24 4 -19 2 -30 -5 -30 -11 0 -15 19 -12 58 1 12 -3 22 -9 22 -15 0 -13
-87 3 -93 8 -3 6 -7 -7 -12 -11 -5 -21 -3 -27 6 -7 11 -9 11 -9 -3 0 -10 -4
-18 -9 -18 -4 0 -11 -17 -14 -37 -5 -29 -2 -41 12 -54 18 -17 20 -15 46 39 25
54 29 42 7 -23 -25 -72 -73 -233 -78 -263 -4 -18 -11 -35 -15 -38 -5 -3 -9
-13 -9 -22 0 -12 3 -13 12 -4 24 24 30 12 23 -45 -8 -68 -11 -72 -28 -49 -12
16 -14 15 -36 -8 -26 -27 -22 -48 4 -26 23 19 26 8 4 -19 -16 -20 -23 -22 -47
-13 -15 6 -36 13 -47 18 -11 4 -29 6 -40 5 -12 -1 -34 5 -50 13 -36 19 -59 20
-85 4 -24 -15 -29 -10 -31 28 -2 30 15 227 31 374 6 47 10 93 10 104 0 12 5
16 15 12 20 -7 19 -1 -2 20 -15 15 -18 36 -18 123 0 106 0 106 37 161 84 124
177 192 292 216 91 18 99 17 144 -16z m807 21 c10 -18 -15 -22 -42 -7 l-28 15
32 1 c17 0 34 -4 38 -9z m-672 -66 c23 -32 17 -32 -13 0 -13 14 -19 25 -14 25
5 0 17 -12 27 -25z m23 -80 c10 -8 14 -15 8 -15 -5 0 -19 7 -30 15 -10 8 -14
15 -8 15 5 0 19 -7 30 -15z m134 -1 c0 -8 -5 -12 -10 -9 -6 4 -8 11 -5 16 9
14 15 11 15 -7z m10 -131 c0 -18 -5 -17 -57 13 -30 19 -41 29 -32 35 15 9 89
-31 89 -48z m-100 -14 c0 -14 -36 -11 -49 4 -8 11 -5 13 19 9 17 -2 30 -8 30
-13z m211 -169 c36 0 52 -6 75 -27 18 -17 24 -28 16 -31 -16 -5 -15 -29 2 -35
7 -3 19 0 25 6 13 13 15 -1 5 -27 -7 -19 -40 -21 -50 -4 -5 7 -3 8 6 3 9 -5
11 -4 6 4 -6 9 -14 8 -33 -4 -46 -31 -431 -27 -441 4 -3 10 2 12 20 8 13 -4
37 -2 53 2 35 11 35 11 -30 18 -60 6 -63 8 -42 31 10 10 17 27 17 38 1 15 4
14 16 -8 18 -35 34 -36 34 -4 0 32 17 35 160 30 63 -2 136 -4 161 -4z m-531
-70 c0 -5 -5 -10 -11 -10 -5 0 -7 5 -4 10 3 6 8 10 11 10 2 0 4 -4 4 -10z
m223 -100 c65 0 107 -4 107 -10 0 -13 -82 -118 -94 -119 -4 -1 -6 6 -2 14 4
12 -5 15 -48 15 -29 0 -68 3 -85 6 -30 6 -31 9 -31 56 0 47 1 50 23 44 12 -3
70 -6 130 -6z m295 -30 c65 -51 69 -59 30 -57 -18 0 -81 -3 -140 -7 -125 -10
-133 -4 -70 56 63 61 111 63 180 8z m116 -135 c53 -76 51 -77 -50 -73 l-69 3
-3 34 c-6 65 15 98 65 100 6 1 32 -28 57 -64z m-534 45 c15 -10 24 -70 9 -70
-12 0 -39 42 -39 62 0 20 8 22 30 8z m1320 6 c0 -2 -7 -6 -15 -10 -8 -3 -15
-1 -15 4 0 6 7 10 15 10 8 0 15 -2 15 -4z m1240 -6 c0 -5 -2 -10 -4 -10 -3 0
-8 5 -11 10 -3 6 -1 10 4 10 6 0 11 -4 11 -10z m-1305 -20 c3 -5 -1 -10 -9
-10 -9 0 -16 5 -16 10 0 6 4 10 9 10 6 0 13 -4 16 -10z m-1204 -13 c-1 -12
-15 -9 -19 4 -3 6 1 10 8 8 6 -3 11 -8 11 -12z m59 8 c0 -3 -11 -18 -25 -33
-14 -15 -25 -21 -25 -14 0 6 8 21 18 31 17 19 32 26 32 16z m1270 -29 c0 -11
-19 -15 -25 -6 -3 5 1 10 9 10 9 0 16 -2 16 -4z m92 -11 c0 -5 -5 -11 -11 -13
-6 -2 -11 4 -11 13 0 9 5 15 11 13 6 -2 11 -8 11 -13z m-1559 -34 c5 -22 -1
-33 -14 -25 -12 7 -12 44 0 44 5 0 11 -9 14 -19z m137 9 c0 -5 -4 -10 -10 -10
-5 0 -10 5 -10 10 0 6 5 10 10 10 6 0 10 -4 10 -10z m1280 -6 c0 -2 -7 -4 -15
-4 -8 0 -15 4 -15 10 0 5 7 7 15 4 8 -4 15 -8 15 -10z m1265 -9 c6 -2 -44 -4
-110 -3 -66 0 -129 4 -140 8 -11 4 39 6 110 3 72 -3 135 -6 140 -8z m369 7 c2
-4 -4 -9 -15 -9 -10 -1 -19 2 -19 8 0 11 27 12 34 1z m-2960 -11 c3 -5 0 -11
-8 -14 -15 -6 -26 1 -26 15 0 11 27 10 34 -1z m91 -1 c-3 -5 -11 -10 -16 -10
-6 0 -7 5 -4 10 3 6 11 10 16 10 6 0 7 -4 4 -10z m295 0 c0 -5 -5 -10 -11 -10
-5 0 -7 5 -4 10 3 6 8 10 11 10 2 0 4 -4 4 -10z m694 1 c3 -5 41 -10 84 -11
42 0 94 -3 115 -5 23 -2 43 2 51 11 12 11 15 11 19 0 7 -17 148 -22 178 -6 25
14 24 14 101 -105 28 -44 56 -83 61 -86 18 -12 -83 -16 -343 -12 -229 4 -267
7 -277 21 -8 10 -13 50 -13 109 0 83 8 111 24 84z m371 -1 c3 -6 -4 -10 -17
-10 -18 0 -20 2 -8 10 19 12 18 12 25 0z m-2305 -30 c0 -5 -5 -10 -11 -10 -5
0 -7 5 -4 10 3 6 8 10 11 10 2 0 4 -4 4 -10z m1223 -18 c11 -54 -4 -111 -35
-137 -29 -24 -33 -25 -199 -25 l-169 0 0 79 c0 77 1 80 28 94 20 11 70 15 198
16 l172 1 5 -28z m-451 -23 c10 -6 0 -39 -12 -39 -10 0 -20 52 -12 64 3 6 8 3
10 -4 3 -8 9 -18 14 -21z m708 0 c0 -6 -4 -7 -10 -4 -5 3 -10 11 -10 16 0 6 5
7 10 4 6 -3 10 -11 10 -16z m-2680 -19 c-8 -5 -26 -10 -40 -10 -20 0 -22 2
-10 10 8 5 26 10 40 10 20 0 22 -2 10 -10z m-83 -6 c-3 -3 -12 -4 -19 -1 -8 3
-5 6 6 6 11 1 17 -2 13 -5z m-172 -14 c3 -5 -1 -10 -9 -10 -9 0 -16 5 -16 10
0 6 4 10 9 10 6 0 13 -4 16 -10z m82 4 c-3 -3 -12 -4 -19 -1 -8 3 -5 6 6 6 11
1 17 -2 13 -5z m213 -8 c0 -3 -4 -8 -10 -11 -5 -3 -10 -1 -10 4 0 6 5 11 10
11 6 0 10 -2 10 -4z m4490 -56 c0 -5 -9 -10 -21 -10 -11 0 -17 5 -14 10 3 6
13 10 21 10 8 0 14 -4 14 -10z m-3270 -28 c0 -25 59 -27 61 -3 1 13 2 14 5 1
4 -12 24 -15 99 -15 83 0 96 -2 101 -18 5 -17 7 -17 23 -3 10 9 32 16 49 16
27 0 31 -3 34 -32 6 -69 -9 -171 -28 -185 -14 -10 -104 -13 -441 -13 -365 0
-423 2 -423 15 0 14 26 43 93 103 20 18 37 38 37 45 0 14 45 37 72 37 10 0 29
7 42 15 12 8 43 16 67 18 24 1 47 6 51 12 5 6 12 5 20 -3 15 -15 48 -16 48 -1
0 6 5 7 13 2 24 -15 45 -12 50 7 6 25 27 26 27 2z m660 -6 c0 -7 -7 -19 -15
-26 -8 -7 -15 -16 -15 -21 0 -12 -42 -81 -46 -76 -7 7 56 137 66 137 6 0 10
-6 10 -14z m2395 -6 c3 -5 -3 -10 -15 -10 -12 0 -18 5 -15 10 3 6 10 10 15 10
5 0 12 -4 15 -10z m-1591 -25 c-1 -14 2 -23 8 -22 6 1 13 -4 15 -10 3 -9 -7
-13 -29 -14 -21 -1 -25 -3 -12 -6 12 -2 25 -14 29 -26 l8 -22 4 23 c9 45 18
20 18 -50 l0 -73 -55 -8 c-30 -4 -116 -6 -190 -5 l-135 3 4 55 c2 30 8 66 13
80 6 14 11 39 12 55 1 28 4 30 46 35 25 3 95 6 156 7 l111 2 -3 -24z m323 -34
c-3 -25 -11 -89 -18 -141 -7 -52 -13 -121 -13 -153 l0 -58 -50 3 c-49 3 -50 4
-57 38 -11 56 -30 282 -24 289 3 3 20 0 37 -7 24 -9 34 -9 39 0 19 31 75 85
83 81 4 -3 6 -26 3 -52z m1341 52 c-10 -2 -28 -2 -40 0 -13 2 -5 4 17 4 22 1
32 -1 23 -4z m99 1 c-3 -3 -12 -4 -19 -1 -8 3 -5 6 6 6 11 1 17 -2 13 -5z
m123 -4 c-22 -14 -6 -22 24 -11 14 6 26 7 26 2 0 -5 34 -42 75 -83 45 -45 76
-84 77 -99 l3 -24 -420 -5 -420 -5 -52 55 c-53 56 -93 118 -93 145 0 17 48 19
400 15 118 -2 247 -3 285 -4 50 0 69 3 68 12 -2 7 7 12 20 12 17 0 19 -2 7
-10z m-1810 -52 c0 -5 -13 -2 -30 7 -30 15 -36 26 -23 38 7 8 53 -31 53 -45z
m-1090 32 c0 -5 -7 -10 -16 -10 -8 0 -12 5 -9 10 3 6 10 10 16 10 5 0 9 -4 9
-10z m120 -37 c0 -16 -11 -51 -24 -78 -24 -53 -38 -92 -56 -162 -10 -41 -12
-43 -50 -43 -22 0 -45 7 -54 16 -9 8 -16 16 -16 17 0 1 7 52 15 112 8 61 15
113 15 118 0 4 24 7 53 7 39 0 48 3 37 11 -12 8 -9 9 11 5 19 -4 29 -1 33 9
10 27 36 17 36 -12z m-1790 7 c0 -5 -2 -10 -4 -10 -3 0 -8 5 -11 10 -3 6 -1
10 4 10 6 0 11 -4 11 -10z m1927 -16 c-3 -3 -12 -4 -19 -1 -8 3 -5 6 6 6 11 1
17 -2 13 -5z m1248 -4 c3 -5 1 -10 -4 -10 -6 0 -11 5 -11 10 0 6 2 10 4 10 3
0 8 -4 11 -10z m-407 -31 c-2 -6 -8 -10 -13 -10 -5 0 -11 4 -13 10 -2 6 4 11
13 11 9 0 15 -5 13 -11z m-2503 -8 c3 -5 1 -12 -5 -16 -5 -3 -10 1 -10 9 0 18
6 21 15 7z m2780 0 c3 -5 1 -12 -5 -16 -5 -3 -10 1 -10 9 0 18 6 21 15 7z
m102 -13 c-3 -8 -6 -5 -6 6 -1 11 2 17 5 13 3 -3 4 -12 1 -19z m-67 -63 c0
-12 5 -26 12 -33 9 -9 9 -12 0 -12 -6 0 -16 8 -21 18 -10 16 -12 16 -25 0 -24
-31 -37 -21 -34 25 2 33 7 42 21 41 9 -1 17 3 17 9 0 6 7 2 15 -9 8 -10 15
-28 15 -39z m-313 13 c-3 -8 -6 -5 -6 6 -1 11 2 17 5 13 3 -3 4 -12 1 -19z
m367 -10 c10 -20 13 -35 7 -41 -6 -6 -15 4 -25 28 -19 44 -19 45 -7 45 5 0 17
-14 25 -32z m-2450 -10 c-10 -13 -19 -24 -20 -26 -1 -2 -23 -5 -49 -7 -25 -3
-54 -9 -63 -14 -15 -8 -13 -11 11 -20 27 -10 27 -12 11 -35 -25 -39 -154 -150
-204 -177 l-45 -24 -471 -3 c-386 -2 -474 0 -485 11 -8 7 -22 16 -31 20 -10 3
-18 10 -18 14 1 12 89 63 108 63 10 0 22 10 27 21 12 27 130 99 162 99 26 0
85 39 77 51 -9 16 20 21 31 6 9 -13 30 -17 84 -18 65 -1 71 -3 66 -20 -8 -25
15 -25 48 1 23 18 39 20 159 19 201 -2 467 7 520 18 26 5 57 17 70 26 32 22
34 21 12 -5z m2086 -8 c0 -5 -5 -10 -11 -10 -5 0 -7 5 -4 10 3 6 8 10 11 10 2
0 4 -4 4 -10z m2190 0 c12 -8 11 -10 -7 -10 -13 0 -23 5 -23 10 0 13 11 13 30
0z m-4925 -10 c3 -5 -1 -10 -10 -10 -9 0 -13 5 -10 10 3 6 8 10 10 10 2 0 7
-4 10 -10z m425 0 c0 -5 -4 -10 -9 -10 -6 0 -13 5 -16 10 -3 6 1 10 9 10 9 0
16 -4 16 -10z m1450 0 c0 -5 -4 -10 -10 -10 -5 0 -10 5 -10 10 0 6 5 10 10 10
6 0 10 -4 10 -10z m420 6 c0 -3 -4 -8 -10 -11 -5 -3 -10 -1 -10 4 0 6 5 11 10
11 6 0 10 -2 10 -4z m930 -1 c0 -3 -9 -9 -19 -13 -11 -4 105 -6 257 -4 157 2
278 8 280 13 6 15 22 10 22 -6 0 -11 7 -14 25 -9 32 8 105 -37 105 -65 0 -11
4 -21 9 -23 5 -1 12 -19 16 -39 7 -35 6 -37 -39 -59 -25 -12 -54 -32 -65 -45
-16 -21 -29 -25 -107 -30 -221 -14 -417 -13 -468 2 -28 8 -69 16 -91 16 -36 2
-42 6 -58 41 -10 21 -27 40 -38 43 -22 6 -26 23 -5 23 10 0 12 12 10 49 -5 56
6 69 63 78 21 3 47 12 58 19 20 14 45 19 45 9z m-1680 -72 c-9 -50 -52 -132
-84 -162 -34 -32 -123 -64 -145 -51 -13 8 -11 9 10 10 14 0 36 11 49 25 13 14
30 23 37 21 7 -3 13 2 13 11 0 9 17 41 37 72 21 31 38 58 38 61 1 14 38 59 45
55 4 -2 4 -22 0 -42z m492 38 c9 0 24 -8 32 -17 10 -9 16 -11 16 -4 0 22 44
-2 93 -48 58 -57 62 -42 5 23 -35 40 -38 46 -19 40 31 -9 71 -45 71 -62 0 -8
5 -11 10 -8 18 11 10 -15 -11 -36 -16 -16 -23 -18 -35 -8 -13 10 -81 15 -90 7
-1 -2 4 -12 12 -22 11 -16 16 -17 29 -6 20 17 19 6 -1 -15 -9 -9 -24 -13 -34
-10 -10 3 -21 2 -24 -3 -3 -5 -33 -10 -66 -11 -56 -1 -61 0 -70 24 -14 36 -13
138 1 152 7 7 23 10 38 8 14 -1 34 -3 43 -4z m238 -9 c0 -5 -16 -9 -35 -9 -19
0 -35 4 -35 9 0 4 16 8 35 8 19 0 35 -4 35 -8z m770 -33 c0 -5 -9 -1 -20 8
-11 10 -20 22 -20 27 0 5 9 1 20 -9 11 -10 20 -22 20 -26z m1550 21 c0 -5 -2
-10 -4 -10 -3 0 -8 5 -11 10 -3 6 -1 10 4 10 6 0 11 -4 11 -10z m-54 -35 c-4
-14 -13 -25 -21 -25 -19 0 -19 6 3 35 21 28 27 25 18 -10z m-2272 9 c9 -3 14
-10 11 -15 -7 -10 -35 0 -35 12 0 11 3 11 24 3z m747 -43 c6 -16 6 -28 -1 -35
-7 -7 -10 0 -10 22 0 18 -4 32 -9 32 -5 0 -12 7 -15 16 -6 15 -4 15 10 3 9 -7
20 -24 25 -38z m-2421 -1 c0 -5 -4 -10 -10 -10 -5 0 -10 5 -10 10 0 6 5 10 10
10 6 0 10 -4 10 -10z m130 0 c0 -5 -5 -10 -11 -10 -5 0 -7 5 -4 10 3 6 8 10
11 10 2 0 4 -4 4 -10z m3785 -40 c-9 -14 -25 5 -25 30 0 12 3 12 16 -2 9 -9
13 -21 9 -28z m-4007 -10 c-7 -10 -14 -18 -15 -16 -6 6 9 36 18 36 5 0 4 -9
-3 -20z m192 10 c0 -5 -2 -10 -4 -10 -3 0 -8 5 -11 10 -3 6 -1 10 4 10 6 0 11
-4 11 -10z m930 -7 c36 -7 43 -44 25 -129 -18 -88 -35 -119 -65 -119 -21 0
-26 5 -28 33 -2 17 -6 32 -10 32 -4 0 -38 -16 -76 -35 -62 -31 -96 -42 -96
-32 0 11 104 176 125 199 14 14 25 30 25 35 0 19 26 34 49 28 13 -3 36 -8 51
-12z m-880 -25 c0 -15 -15 -8 -28 12 -12 19 -11 20 8 8 11 -7 20 -16 20 -20z
m1460 2 c0 -5 -4 -10 -10 -10 -5 0 -10 5 -10 10 0 6 5 10 10 10 6 0 10 -4 10
-10z m1740 -23 c0 -7 9 -23 20 -37 11 -14 20 -27 20 -31 0 -3 -30 -2 -67 2
-38 5 -76 8 -87 8 -15 1 -16 4 -6 16 7 8 18 15 24 16 6 0 27 11 46 23 35 24
50 25 50 3z m-3151 -34 c9 -16 12 -16 21 -3 7 11 10 7 10 -21 l0 -35 54 0 c30
1 49 4 43 8 -6 4 -8 10 -4 14 4 4 13 2 19 -4 8 -8 49 -12 115 -12 107 0 183
-16 183 -37 0 -7 5 -13 11 -13 5 0 8 4 5 9 -10 15 18 29 47 24 30 -6 36 -20
12 -29 -9 -4 -14 -11 -13 -18 3 -19 -13 -59 -53 -125 -22 -34 -39 -69 -39 -77
0 -8 -12 -19 -26 -25 -30 -11 -899 -7 -949 5 -16 4 -43 7 -60 7 -32 0 -65 24
-65 47 0 12 3 12 15 2 10 -8 15 -9 15 -2 0 6 -7 15 -15 20 -13 7 -11 14 17 44
18 20 40 45 48 55 8 11 32 27 53 37 39 18 46 30 22 40 -8 3 -15 10 -15 16 0 5
7 10 15 10 8 0 15 -7 15 -15 0 -8 6 -15 13 -15 16 1 47 25 47 37 0 15 39 47
47 39 4 -4 2 -16 -5 -26 -13 -22 -12 -23 12 -14 9 3 13 11 9 18 -4 6 0 5 9 -2
18 -14 108 -25 108 -13 0 4 -5 12 -12 19 -9 9 -8 12 4 12 8 0 22 -10 30 -21
12 -19 22 -21 73 -19 33 1 90 3 128 3 37 1 67 5 67 8 0 4 -9 18 -20 32 -11 14
-20 28 -20 31 0 13 20 5 29 -11z m1043 -7 c-2 -11 1 -15 7 -11 6 3 11 13 11
21 0 9 10 14 29 14 27 0 29 -3 28 -32 l-2 -33 -60 1 c-97 3 -95 2 -95 27 0 32
9 38 50 35 28 -2 34 -7 32 -22z m326 17 c-11 -3 -18 -14 -18 -26 1 -19 2 -20
13 -6 21 27 55 41 75 30 9 -6 11 -11 5 -11 -7 0 -13 -5 -13 -11 0 -6 10 -10
23 -9 41 4 70 0 63 -7 -4 -4 -22 -8 -39 -9 -226 -11 -313 -13 -327 -9 -12 4
-15 13 -12 34 l4 30 122 -1 c66 0 113 -2 104 -5z m793 -15 c11 -16 31 -168 25
-184 -4 -11 -13 -14 -28 -11 -12 4 -28 1 -35 -5 -9 -7 -17 -7 -27 1 -10 8 -16
9 -21 1 -10 -16 -35 -12 -35 6 0 10 -6 14 -14 11 -8 -3 -22 0 -31 7 -17 12
-17 18 5 103 l22 91 67 -6 c36 -3 69 -9 72 -14z m1869 -8 c9 -17 8 -20 -14
-20 -27 0 -41 14 -31 30 10 17 34 11 45 -10z m334 -31 c14 -13 26 -28 26 -33
0 -5 -10 0 -23 12 -13 12 -27 22 -32 22 -11 0 -45 31 -45 41 0 11 44 -13 74
-42z m-4134 21 c0 -5 -5 -10 -11 -10 -5 0 -7 5 -4 10 3 6 8 10 11 10 2 0 4 -4
4 -10z m114 -11 c-3 -5 -10 -7 -15 -3 -5 3 -7 10 -3 15 3 5 10 7 15 3 5 -3 7
-10 3 -15z m576 11 c0 -5 -4 -10 -10 -10 -5 0 -10 5 -10 10 0 6 5 10 10 10 6
0 10 -4 10 -10z m2925 0 c8 -13 -5 -13 -25 0 -13 8 -13 10 2 10 9 0 20 -4 23
-10z m75 0 c0 -5 -7 -7 -15 -4 -8 4 -15 8 -15 10 0 2 7 4 15 4 8 0 15 -4 15
-10z m-4050 -10 c0 -5 -17 -9 -37 -9 l-38 2 35 7 c19 4 36 8 38 9 1 0 2 -3 2
-9z m2340 -3 c0 -8 17 -25 38 -38 42 -27 68 -73 81 -144 11 -56 7 -72 -21 -81
-13 -4 -18 -12 -15 -25 4 -16 0 -19 -34 -19 -22 0 -39 5 -39 11 0 8 -4 8 -15
-1 -8 -6 -18 -9 -23 -6 -12 7 3 99 17 104 27 9 31 40 11 87 -19 45 -25 125 -8
125 4 0 8 -6 8 -13z m195 3 c3 -5 -3 -10 -14 -10 -12 0 -21 5 -21 10 0 6 6 10
14 10 8 0 18 -4 21 -10z m975 0 c-8 -5 -24 -10 -35 -10 -11 0 -27 5 -35 10
-11 7 -1 10 35 10 36 0 46 -3 35 -10z m383 3 c-7 -2 -19 -2 -25 0 -7 3 -2 5
12 5 14 0 19 -2 13 -5z m204 1 c-3 -3 -12 -4 -19 -1 -8 3 -5 6 6 6 11 1 17 -2
13 -5z m-2023 -169 l-5 -140 -44 -8 c-25 -4 -143 -6 -262 -5 l-218 3 3 81 c4
116 11 133 67 174 l49 35 198 3 c145 2 198 6 198 15 0 7 4 6 10 -3 5 -8 7 -76
4 -155z m343 123 c-3 -7 -5 -2 -5 12 0 14 2 19 5 13 2 -7 2 -19 0 -25z m-808
-4 c-13 -16 -39 -19 -39 -4 0 12 32 30 43 23 4 -3 3 -11 -4 -19z m1110 2 c8
-13 11 -30 8 -38 -2 -7 -8 -2 -12 15 -4 15 -11 27 -16 27 -5 0 -9 5 -9 10 0
18 16 10 29 -14z m-1173 -63 c-10 -10 -19 5 -10 18 6 11 8 11 12 0 2 -7 1 -15
-2 -18z m-2803 -65 c3 -21 2 -38 -4 -38 -5 0 -9 19 -9 42 0 49 5 47 13 -4z
m2772 -87 c3 -5 1 -12 -5 -16 -5 -3 -10 1 -10 9 0 18 6 21 15 7z m695 -27 c63
3 77 1 73 -10 -4 -10 -26 -14 -84 -14 l-79 0 1 33 c1 22 3 25 6 10 4 -21 8
-22 83 -19z m-3356 -16 c-9 -14 -24 2 -24 25 1 21 1 21 15 3 8 -10 12 -23 9
-28z m575 5 c15 -11 14 -12 -1 -13 -9 0 -18 6 -21 13 -3 9 -9 9 -26 -1 -28
-16 -27 3 1 23 18 12 24 12 27 3 2 -7 11 -18 20 -25z m3051 8 c0 -5 -7 -11
-15 -15 -9 -3 -15 0 -15 9 0 8 7 15 15 15 8 0 15 -4 15 -9z m85 -1 c4 -6 -5
-10 -20 -10 -15 0 -24 4 -20 10 3 6 12 10 20 10 8 0 17 -4 20 -10z m-3305 -20
c-24 -15 -36 -11 -14 4 10 8 21 12 24 10 2 -3 -2 -9 -10 -14z m1710 10 c0 -5
-2 -10 -4 -10 -3 0 -8 5 -11 10 -3 6 -1 10 4 10 6 0 11 -4 11 -10z m540 0 c0
-5 -10 -10 -22 -9 -22 0 -22 1 -3 9 11 5 21 9 23 9 1 1 2 -3 2 -9z m1275 0 c3
-5 -1 -10 -9 -10 -9 0 -16 5 -16 10 0 6 4 10 9 10 6 0 13 -4 16 -10z m745 1
c0 -4 -11 -6 -25 -3 -14 2 -25 6 -25 8 0 2 11 4 25 4 14 0 25 -4 25 -9z
m-1050 -41 c0 -5 -7 -7 -15 -4 -8 4 -12 10 -9 15 6 11 24 2 24 -11z m1255 -19
c3 -5 1 -12 -5 -16 -5 -3 -10 1 -10 9 0 18 6 21 15 7z m56 -114 c-8 -8 -11 -7
-11 4 0 20 13 34 18 19 3 -7 -1 -17 -7 -23z"/>
<path d="M2855 1820 c3 -5 11 -10 16 -10 6 0 7 5 4 10 -3 6 -11 10 -16 10 -6
0 -7 -4 -4 -10z"/>
<path d="M2770 1695 c14 -16 40 -20 40 -6 0 9 -24 21 -42 21 -6 0 -6 -6 2 -15z"/>
<path d="M2628 1643 c-20 -23 -19 -53 1 -53 11 0 17 11 18 35 3 40 2 41 -19
18z"/>
<path d="M2562 1593 c-6 -16 -14 -41 -17 -58 -6 -27 -5 -28 6 -10 13 19 13 19
20 -5 5 -17 7 -5 8 38 1 34 -1 62 -3 62 -2 0 -8 -12 -14 -27z"/>
<path d="M2481 1466 c-6 -25 -10 -91 -10 -148 1 -57 3 -94 5 -83 5 29 22 269
19 273 -1 1 -8 -17 -14 -42z"/>
<path d="M2341 1484 c0 -11 3 -14 6 -6 3 7 2 16 -1 19 -3 4 -6 -2 -5 -13z"/>
<path d="M2353 1370 c0 -36 2 -50 4 -32 2 17 2 47 0 65 -2 17 -4 3 -4 -33z"/>
<path d="M2582 1100 c0 -14 2 -19 5 -12 2 6 2 18 0 25 -3 6 -5 1 -5 -13z"/>
<path d="M2465 1059 c-4 -6 -5 -12 -2 -15 2 -3 7 2 10 11 7 17 1 20 -8 4z"/>
<path d="M2880 1569 c0 -5 5 -7 10 -4 6 3 10 8 10 11 0 2 -4 4 -10 4 -5 0 -10
-5 -10 -11z"/>
<path d="M3232 1551 c-11 -7 -11 -9 2 -14 10 -4 16 -1 16 8 0 17 -1 17 -18 6z"/>
<path d="M3145 950 c-3 -5 -1 -10 4 -10 6 0 11 5 11 10 0 6 -2 10 -4 10 -3 0
-8 -4 -11 -10z"/>
<path d="M2380 889 c0 -5 11 -9 25 -9 14 0 25 2 25 4 0 2 -11 6 -25 8 -14 3
-25 1 -25 -3z"/>
<path d="M4686 535 c-19 -14 -18 -15 13 -15 21 0 31 4 29 12 -6 18 -21 19 -42
3z"/>
<path d="M3781 274 c0 -11 3 -14 6 -6 3 7 2 16 -1 19 -3 4 -6 -2 -5 -13z"/>
<path d="M2964 3415 c-10 -8 -14 -15 -8 -15 6 0 17 7 24 15 16 19 9 19 -16 0z"/>
<path d="M2973 3060 c0 -41 2 -58 4 -37 2 20 2 54 0 75 -2 20 -4 3 -4 -38z"/>
<path d="M3250 3045 c0 -14 4 -25 9 -25 12 0 23 29 15 41 -10 18 -24 9 -24
-16z"/>
<path d="M3200 1874 c0 -14 3 -14 15 -4 8 7 15 14 15 16 0 2 -7 4 -15 4 -8 0
-15 -7 -15 -16z"/>
<path d="M3460 1507 c0 -31 5 -59 11 -63 7 -4 9 11 4 52 -10 77 -15 81 -15 11z"/>
<path d="M3764 1533 c2 -10 8 -49 12 -88 4 -38 9 -64 12 -57 7 23 -9 162 -20
162 -5 0 -7 -8 -4 -17z"/>
<path d="M3651 1474 c0 -11 3 -14 6 -6 3 7 2 16 -1 19 -3 4 -6 -2 -5 -13z"/>
<path d="M3267 1395 c-4 -8 -2 -17 3 -20 6 -4 10 -1 10 5 0 6 4 9 9 5 5 -3 12
-1 15 4 3 5 -1 12 -10 15 -21 8 -21 8 -27 -9z"/>
<path d="M3333 1389 c9 -5 21 -8 26 -4 5 3 12 1 16 -5 9 -14 28 -13 23 2 -2 6
-22 13 -44 14 -30 3 -35 1 -21 -7z"/>
<path d="M5793 1353 c9 -2 23 -2 30 0 6 3 -1 5 -18 5 -16 0 -22 -2 -12 -5z"/>
<path d="M3368 1343 c7 -3 16 -2 19 1 4 3 -2 6 -13 5 -11 0 -14 -3 -6 -6z"/>
<path d="M3542 1295 c4 -56 57 -259 66 -251 5 6 -20 130 -29 142 -5 6 -13 44
-19 84 -13 91 -23 106 -18 25z"/>
<path d="M3735 1265 c3 -49 9 -103 14 -120 5 -19 7 6 3 70 -2 55 -9 109 -14
120 -5 12 -6 -14 -3 -70z"/>
<path d="M3653 1295 c0 -22 2 -30 4 -17 2 12 2 30 0 40 -3 9 -5 -1 -4 -23z"/>
<path d="M3692 1290 c0 -14 2 -19 5 -12 2 6 2 18 0 25 -3 6 -5 1 -5 -13z"/>
<path d="M1814 1258 c-16 -4 -68 -12 -116 -19 -49 -7 -88 -16 -88 -20 0 -8 43
-5 155 10 33 5 74 7 90 5 20 -3 38 2 55 16 l25 20 -46 -3 c-25 -1 -59 -5 -75
-9z"/>
<path d="M1930 1235 c-11 -13 -9 -15 15 -15 16 0 25 5 23 12 -7 19 -24 20 -38
3z"/>
<path d="M3662 1225 c0 -16 2 -22 5 -12 2 9 2 23 0 30 -3 6 -5 -1 -5 -18z"/>
<path d="M334 1195 c-17 -13 -17 -14 -2 -15 9 0 20 5 23 10 5 8 11 8 20 0 7
-6 21 -7 31 -3 17 6 16 7 -2 14 -30 12 -49 10 -70 -6z"/>
<path d="M230 1191 l-45 -6 33 -7 c40 -9 100 1 80 13 -7 5 -15 8 -18 7 -3 0
-25 -4 -50 -7z"/>
<path d="M65 1180 c-19 -8 -19 -9 3 -9 12 -1 22 4 22 9 0 6 -1 10 -2 9 -2 0
-12 -4 -23 -9z"/>
<path d="M1034 1179 c-3 -5 -16 -9 -30 -9 -18 0 -24 -5 -24 -22 0 -20 1 -21
13 -4 7 10 22 17 32 15 18 -4 18 -6 -5 -28 -23 -21 -23 -23 -5 -19 11 2 24 13
30 25 5 12 18 26 29 31 19 8 18 9 -7 14 -15 3 -30 1 -33 -3z"/>
<path d="M3676 1135 c4 -40 12 -67 25 -80 20 -21 26 -7 9 23 -5 9 -16 40 -24
67 l-15 50 5 -60z"/>
<path d="M438 1163 c7 -3 16 -2 19 1 4 3 -2 6 -13 5 -11 0 -14 -3 -6 -6z"/>
<path d="M807 1163 c-4 -3 -7 -11 -7 -17 0 -6 5 -5 12 2 6 6 9 14 7 17 -3 3
-9 2 -12 -2z"/>
<path d="M918 1152 c19 -21 27 -20 19 3 -4 8 -13 15 -22 15 -13 0 -12 -3 3
-18z"/>
<path d="M936 1085 c-3 -8 -2 -15 3 -15 5 0 14 7 21 15 10 12 10 15 -3 15 -8
0 -17 -7 -21 -15z"/>
<path d="M580 133 c0 -14 19 -38 25 -32 8 8 -5 39 -16 39 -5 0 -9 -3 -9 -7z"/>
<path d="M5080 72 c0 -9 56 -72 65 -72 9 0 -48 80 -57 80 -5 0 -8 -3 -8 -8z"/>
</g>
</svg>
